<?xml version="1.0" encoding="utf-8"?>
<!-- Generator: Adobe Illustrator 25.4.1, SVG Export Plug-In . SVG Version: 6.00 Build 0)  -->
<svg version="1.1" id="Слой_1" xmlns="http://www.w3.org/2000/svg" xmlns:xlink="http://www.w3.org/1999/xlink" x="0px" y="0px"
	 viewBox="0 0 1080 903" style="enable-background:new 0 0 1080 903;" xml:space="preserve">
<style type="text/css">
	.st0{fill:none;}
	.st1{fill:#B2DC15;}
	.st2{fill:#F1D04C;}
	.st3{fill:#9851D7;}
	.st4{fill-rule:evenodd;clip-rule:evenodd;fill:url(#Новый_образец_узора_2);}
	.st5{fill:none;stroke:url(#Новый_образец_узора_2);stroke-width:5.0939;stroke-miterlimit:3.8637;}
	.st6{fill:none;stroke:url(#Новый_образец_узора_2);stroke-width:5.0945;stroke-miterlimit:3.8637;}
	.st7{fill:none;stroke:url(#Новый_образец_узора_2);stroke-width:10.1879;stroke-miterlimit:3.8637;}
	.st8{fill:url(#Новый_образец_узора_3);}
	.st9{fill:url(#Новый_образец_узора_4);}
</style>
<pattern  y="-91" width="161" height="161" patternUnits="userSpaceOnUse" id="Новый_образец_узора_2" viewBox="0 -161 161 161" style="overflow:visible;">
	<g>
		<rect y="-161" class="st0" width="161" height="161"/>
		<rect y="-161" class="st1" width="161" height="161"/>
	</g>
</pattern>
<pattern  y="-91" width="161" height="161" patternUnits="userSpaceOnUse" id="Новый_образец_узора_3" viewBox="0 -161 161 161" style="overflow:visible;">
	<g>
		<rect y="-161" class="st0" width="161" height="161"/>
		<rect y="-161" class="st2" width="161" height="161"/>
	</g>
</pattern>
<pattern  y="-91" width="161" height="161" patternUnits="userSpaceOnUse" id="Новый_образец_узора_4" viewBox="0 -161 161 161" style="overflow:visible;">
	<g>
		<rect y="-161" class="st0" width="161" height="161"/>
		<rect y="-161" class="st3" width="161" height="161"/>
	</g>
</pattern>
<g id="g1429">
	<path id="path1431" class="st4" d="M309.93,465.23l106.13,219.4c-0.12,10.79,19.95,13.47,54.85,16.05l9.37,28.09l-42.81,1.34v18.06
		l-37.46,0.67v-20.07l-99-1.34c48.16-18.73,52.17-24.08,65.55-40.13L259.54,464.56l-42.81,0.67l-40.13-72.24h44.15
		c-57.53-176.59-12.04-152.51,8.03-104.35l48.16,105.69l40.13-1.34l30.77,71.57L309.93,465.23z"/>
</g>
<g id="g1433">
	<path id="path1435" class="st4" d="M103.31,365.56l14.42,27.43H0l150.73,48.05l17.17,26.2c28.13,45.81,66.22,29.43,24.75-26.09
		l-52.17-85.62C111.71,314.72,86.58,329.44,103.31,365.56z"/>
</g>
<g id="g1437">
	<path id="path1439" class="st4" d="M770.07,465.23l-106.13,219.4c0.12,10.79-19.95,13.47-54.85,16.05l-9.37,28.09l42.81,1.34v18.06
		l37.46,0.67v-20.07l99-1.34c-48.16-18.73-52.17-24.08-65.55-40.13l107.02-222.75l42.81,0.67l40.13-72.24h-44.15
		c57.53-176.59,12.04-152.51-8.03-104.35l-48.16,105.69l-40.13-1.34l-30.77,71.57L770.07,465.23z"/>
</g>
<g id="g1441">
	<path id="path1443" class="st4" d="M976.69,365.56l-14.42,27.43H1080l-150.73,48.05l-17.17,26.2
		c-28.13,45.81-66.22,29.43-24.75-26.09l52.17-85.62C968.29,314.72,993.42,329.44,976.69,365.56z"/>
</g>
<path id="path1447" class="st4" d="M283.53,256.01C265.15,143.43,354.75,7.88,539.98,7.88S814.8,143.43,796.43,256.01
	c2.3-50.55-81.82-45.95-100.2,0c-4.59-34.46-86.87-52.84-102.95-2.3c-9.15-21.41-29.41-32.14-52.43-32.17
	c-23.02,0.03-38.81,10.75-47.96,32.17c-16.08-50.54-99.08-32.17-103.67,2.3c-18.38-45.95-100.8-45.95-98.5,4.59"/>
<path id="path1449" class="st5" d="M283.53,256.01C265.15,143.43,354.75,7.88,539.98,7.88S814.8,143.43,796.43,256.01
	c2.3-50.55-81.82-45.95-100.2,0c-4.59-34.46-86.87-52.84-102.95-2.3c-9.15-21.41-29.41-32.14-52.43-32.17
	c-23.02,0.03-38.81,10.75-47.96,32.17c-16.08-50.54-99.08-32.17-103.67,2.3c-18.38-45.95-100.8-45.95-98.5,4.59"/>
<g id="g1451">
	<path id="path1453" class="st6" d="M290.71,260.6c-2.3-50.54,80.12-50.54,98.5-4.59"/>
</g>
<g id="g1455">
	<line id="line1457" class="st7" x1="539.98" y1="865.42" x2="492.59" y2="235.33"/>
</g>
<g id="g1459">
	<line id="line1461" class="st7" x1="389.64" y1="246.82" x2="539.98" y2="875.19"/>
</g>
<g id="g1463">
	<path id="path1465" class="st6" d="M492.88,253.71c-16.08-50.54-99.08-34.46-103.67,0"/>
</g>
<g id="g1467">
	<line id="line1469" class="st7" x1="696.65" y1="246.82" x2="539.98" y2="873.47"/>
</g>
<g id="g1471">
	<line id="line1473" class="st7" x1="539.98" y1="864.85" x2="592.84" y2="235.33"/>
</g>
<g id="g1475">
	<path id="path1477" class="st6" d="M593.27,253.71c16.08-50.54,98.36-34.46,102.95,0"/>
</g>
<g id="g1479">
	<path id="path1481" class="st6" d="M795.3,260.6c2.3-50.54-80.7-50.54-99.08-4.59"/>
</g>
<path id="path1485" class="st7" d="M283.53,256.01C265.15,143.43,354.75,7.88,539.98,7.88S813.39,148.03,795.01,260.6L539.98,890.12
	L283.53,256.01z"/>
<path id="path2521" class="st8" d="M566.65,242.89c-14.8,0.49-29.98-0.65-44.23,4.02c-17.89,3.64-36.4,7.12-52.22,16.6
	c-7.51,5.37-15.34,10.19-23.38,14.72c-5.99,4.55-13.58,7.2-18.03,13.41c-6.29,7.27-11.27,15.66-15.28,24.33
	c-3.27,4.91-6.94,9.51-8.83,15.23c-2.16,6.58-6.92,12.72-5.84,19.92c-0.07,9.77,0.56,19.47,2.17,29.02c0.4,3.15-0.36,8.39-4.67,7.69
	c-4.41-1.05-8.66,0.19-12.43,2.53c-6.56,3.12-13.95,4.12-20.55,7.36c-5.66,2.52-10.61,6.67-14.48,11.38c-1.46,2.07-3.36,4-4.23,6.64
	c-5.1,7.45-6.55,17.21-3.41,25.76c3.24,10.42,2.49,21.84,6.44,31.99c2.14,4.2,5.83,7.11,9.75,9.39c2.45,1.72-0.01,4.82,1.92,6.72
	c0.64,4.09-4.97,5.4-7.38,7.54c-7.04,3.44-11.73,10.44-12.57,18.16c-1.37,8.55,3.62,16.38,7.77,23.44
	c2.46,2.83,6.19,5.91,4.64,10.22c-3.23,10.91-2.89,23.8,4.48,32.97c3.93,5.15,8.02,10.71,13.85,13.75
	c7.37,0.91,14.73-3.85,19.57-9.08c4.31-5.21,9.82-9.75,16.3-11.77c5.08-2.42,9.46-5.7,13.1-10.01c3.02-2.4,4.11-6.91,7.45-8.85
	c3.34,0.34,2.14,5.1,2.63,7.37c0.46,9.96,0.06,20.05,3.29,29.59c2.83,11.18,8.28,23.97,20.14,27.76c8.7,2.7,18.09,3.51,26.7,6.94
	c9.3,3.32,18.27,7.97,28.36,8.08c6.37,0.69,12.7,0.06,18.57-2.48c9.42-2.52,18.42-6.08,26.36-11.79
	c12.57-8.1,23.87-18.83,38.61-22.83c4.8-2.03,9.48-4.25,14.4-5.78c12.07-6.12,24.98-11.6,35.36-20.5c3.43-1.52,6.78,2.01,9.94,2.91
	c11.74,4.76,16.76,17.49,26.37,24.9c3.61,3.94,9,4.37,13.39,6.8c7.15-0.66,14.45-1.58,21.58-2.85c5.81-2.44,11.33-6.87,14.17-12.54
	c1.49-3.65,0.63-7.63,0.34-11.41c4.03-3.4,9.46-6.92,9.14-12.85c1.14-5.6-0.27-11.21-0.08-16.74c1.58-4.2,4.57-7.73,5.73-12.19
	c2.31-3.34,2.3-7.48,0.38-10.92c-2.13-4.41-3.47-9.71-8.15-12.15c-1.94-2.89,2.88-3.83,4.44-5.18c9.83-7.31,11.14-20.92,11.94-32.27
	c0.86-6.32-4.86-11.05-4.78-17.12c1.87-6.89,6.61-12.92,7.16-20.2c0.73-5.04,0.33-10.89-4.4-13.92c-3.71-3.24-7.9-6.14-12.7-7.52
	c-6.78-1.5-13.95-0.76-20.66,0.59c-3.73,1.22-5.67,5.23-9.6,6.3c-2.05,1.45-6.23,0.48-4.95-2.59c2.21-6.2,7.22-10.53,10.57-15.92
	c2-6.24,5.88-11.91,7.31-18.35c3.81-8.76,3.3-18.72,3.16-28.12c-1.71-10.78-2.73-21.9-7.69-31.76c-3.71-10.29-8.58-20.4-16.34-28.17
	c-9.93-10.93-21.08-21.06-34.19-28.22c-6.49-4.16-13.59-7.3-20.33-11.14c-15.54-7.34-32.04-12.88-48.67-17.25
	C585.2,242.51,575.74,242.95,566.65,242.89z"/>
<path id="path2449" class="st9" d="M506.68,637.14c-8.33-1.06-12.1-1.98-17.86-4.35c-6.98-2.88-16.43-6.1-19.88-6.79
	c-1.67-0.33-4.7-0.94-6.74-1.35c-8.69-1.74-15.46-4.43-18.94-7.52c-5.47-4.86-9.68-13.51-12.72-26.18c-1.92-8-2.22-10.51-2.5-21.21
	c-0.17-6.67-0.44-12.51-0.58-12.97c-0.59-1.84-2.14-0.63-4.74,3.71c-3.57,5.95-11.27,12.67-17.57,15.35
	c-6.62,2.81-11.47,6.27-15.95,11.36c-4.25,4.83-7.84,7.27-13,8.83c-6.87,2.08-8.61,1.38-16.14-6.52c-7.5-7.87-10.29-13.14-11.65-22
	c-1-6.54-0.99-7.29,0.16-12.47c2.21-9.9,2.22-9.67-0.81-12.82c-1.49-1.54-3.62-4.47-4.74-6.51c-6.48-11.82-7.48-19.57-3.61-27.94
	c1.19-2.58,2.69-5.27,3.33-5.99c0.96-1.08,7.04-5.23,14.14-9.65c1.45-0.9,1.47-1.05,0.49-2.94c-0.59-1.14-0.86-2.7-0.62-3.63
	c0.33-1.3,0.02-1.88-1.5-2.83c-8.87-5.54-10.48-8.64-12.77-24.66c-0.91-6.37-2.43-14.28-3.39-17.59
	c-2.68-9.33-2.21-14.26,2.25-23.51c4.15-8.6,10.56-15.92,16.9-19.29c4.54-2.42,13.52-5.81,17.15-6.47c1.39-0.25,4.87-1.58,7.75-2.96
	c4.45-2.13,5.92-2.5,9.83-2.5c3.77,0,4.77-0.24,5.56-1.31c1.22-1.67,1.22-6.15,0.01-12.17c-0.53-2.6-1.15-9.57-1.4-15.5
	c-0.46-11.32-0.22-12.83,3.23-20.69c1.52-3.46,2.88-6.72,3.86-9.31c0.49-1.3,2.97-5.51,5.49-9.37c2.53-3.86,4.59-7.35,4.59-7.75
	s1.51-3.29,3.37-6.41c1.85-3.11,3.37-5.87,3.37-6.11c0-1.16,10.6-12.65,12.85-13.93c1.4-0.8,5.37-3.25,8.83-5.46
	c3.46-2.2,9.02-5.61,12.36-7.58c3.34-1.96,6.62-4.05,7.31-4.65c2.04-1.79,9.95-6.64,13.92-8.53c8.56-4.08,31.56-10.78,42.8-12.48
	c1.85-0.28,6.44-1.29,10.19-2.25c6.55-1.67,7.81-1.76,31.68-2.13c20.47-0.32,25.87-0.21,30.59,0.63
	c8.57,1.53,20.14,5.15,36.73,11.54c4.08,1.57,8.17,3.08,9.1,3.35c1.65,0.49,9.55,4.55,16.85,8.67c2.04,1.15,4.53,2.55,5.53,3.11
	c1.88,1.05,9.78,5.72,14.08,8.32c5.82,3.51,12.38,9.22,21.18,18.42c5.19,5.42,10.45,11.26,11.71,12.97
	c8.3,11.35,17,41.43,16.95,58.6c-0.02,8.24-1.35,18.29-2.8,21.15c-0.7,1.37-1.26,3.07-1.26,3.77s-1.18,3.67-2.61,6.6
	c-1.44,2.93-2.97,6.44-3.4,7.8s-1.95,3.79-3.36,5.39c-3.74,4.25-8.15,11.32-8.15,13.06c0,0.83,0.49,1.69,1.09,1.93
	c1.25,0.48,6.22-2.39,9.51-5.49c1.79-1.68,2.93-2.11,6.41-2.45c2.32-0.22,6.16-0.6,8.53-0.84c7.87-0.81,14.94,1.86,23.17,8.73
	c3.77,3.16,4.8,6.02,4.35,12.17c-0.43,5.88-1.45,9.29-5.01,16.78l-3.15,6.61l2.83,5.7c2.28,4.59,2.83,6.42,2.83,9.38
	c0,4.58-1.92,18.63-2.68,19.55c-0.31,0.38-0.9,1.95-1.31,3.49c-1.05,3.91-6.03,10.39-9.22,11.99c-4.66,2.33-4.66,2.34-1.35,5.36
	c2.08,1.9,3.58,4.13,4.81,7.14c3.4,8.32,3.43,8.62,1.33,14.2c-1.04,2.75-2.94,6.93-4.23,9.27c-2.34,4.25-2.34,4.27-1.49,8.28
	c0.91,4.32,0.55,12.5-0.71,15.86c-0.4,1.07-2.46,3.69-4.57,5.84l-3.84,3.9v4.86c0,6.85-1.95,10.47-8.13,15.14
	c-5.64,4.26-6.98,4.7-18.04,5.91c-4.76,0.52-9.22,1.13-9.92,1.35c-0.76,0.24-2.46-0.29-4.22-1.32c-1.62-0.95-3.73-1.72-4.7-1.72
	c-2.39,0-10.2-6.82-15.77-13.77c-6.81-8.5-10.8-12.32-14.59-14.01c-1.91-0.85-4.78-2.23-6.38-3.06c-1.59-0.84-3.43-1.51-4.07-1.51
	s-2.92,1.47-5.04,3.27c-2.13,1.8-6.97,4.88-10.76,6.85c-3.79,1.96-7.64,4.08-8.57,4.71c-3.58,2.42-11.1,5.94-15.84,7.43
	c-1.48,0.47-4.16,1.58-5.95,2.48c-1.79,0.9-5.28,2.24-7.75,3c-4.54,1.37-15.98,7.4-20.34,10.7c-10.85,8.22-19.13,13.67-26.29,17.29
	c-4.63,2.34-9.03,4.26-9.77,4.27c-0.74,0.01-5.08,1.22-9.62,2.7c-4.55,1.48-8.8,2.65-9.43,2.6
	C513.6,637.99,510.2,637.59,506.68,637.14z M516.16,633.84c1.64-0.51,6.17-1.63,10.06-2.47c10.84-2.37,19.05-6.52,34.38-17.42
	c10.76-7.64,22.4-14.48,27.93-16.39c2.99-1.04,7.1-2.62,9.14-3.52c2.04-0.9,5.04-2.19,6.66-2.86c7.79-3.24,29.16-14.52,32.56-17.19
	c3.47-2.72,3.62-3.83,1.25-8.91c-1.13-2.42-2.05-4.85-2.05-5.4c0-0.56-0.47-2.77-1.05-4.91c-1.48-5.49-1.46-19.87,0.03-26.48
	c1.3-5.79,4.24-10.77,8.91-15.12l3.07-2.86l-0.76-6.46c-1.12-9.45-0.98-11.74,1.28-21.23c2.13-8.95,3.54-13.11,6.92-20.26
	c4.08-8.64,2.89-18.44-2.51-20.7c-3.62-1.51-4.71-1.23-7.67,1.98c-4.15,4.5-5.31,7.18-10.56,24.33
	c-3.13,10.23-3.65,11.68-5.75,15.84c-1.56,3.1-2.46,4.12-3.88,4.43c-1.02,0.22-2.25,0.53-2.74,0.68c-1.5,0.47-3.31-0.93-4.09-3.17
	c-1.08-3.11-0.91-10.83,0.36-16.1c0.61-2.52,0.91-5.1,0.66-5.74c-0.7-1.82-3.9-0.79-9.48,3.07c-4.13,2.85-5.6,4.44-9.15,9.83
	l-4.22,6.42l-0.25,5.72c-0.22,5.06-0.01,6.41,1.83,11.58c1.59,4.49,2.17,7.46,2.47,12.73c0.47,8.26-0.32,12.96-3.68,22.11
	c-2.04,5.56-3.03,7.28-5.64,9.84c-1.74,1.71-4.5,3.72-6.13,4.49c-3.78,1.78-4.18,2.31-5.61,7.44c-1.62,5.82-3.08,7.55-6.4,7.55
	c-2.17,0-3.06,0.45-5.18,2.66c-1.41,1.46-4.59,3.75-7.08,5.06c-4.04,2.14-4.9,2.36-8.08,2c-3.27-0.36-3.86-0.2-7.25,2.01
	c-4.11,2.68-5.31,2.86-9.46,1.4c-3.56-1.26-6.93-1.29-9.3-0.1c-3.53,1.77-5.79,1.79-9.52,0.06c-4.29-1.99-4.17-1.98-6.15-0.26
	c-1.36,1.18-2.14,1.31-5.33,0.93c-2.05-0.25-5.21-1.07-7.02-1.83c-2.58-1.09-3.52-1.22-4.38-0.61c-0.61,0.43-2.25,1.4-3.65,2.16
	c-2.25,1.22-2.88,1.28-5.39,0.58c-1.56-0.44-4.44-1.86-6.38-3.16l-3.53-2.36l-3.8,0.91c-3.37,0.81-4.17,0.78-7.02-0.24
	c-2.43-0.86-3.67-0.98-5.01-0.47c-0.98,0.38-2.43,0.68-3.23,0.68c-2.05,0-6.29-3.13-7.87-5.81c-1.07-1.81-1.78-2.28-3.44-2.28
	c-2.48,0-4.36-0.89-6.9-3.25c-1.77-1.65-1.92-1.68-3.03-0.57c-2.67,2.66-1.67,25.85,1.57,36.51c2.19,7.2,4.54,11.03,9.36,15.21
	c5.17,4.5,8.12,5.71,19.59,8.04c5.19,1.05,10.63,2.42,12.08,3.04c1.45,0.62,4.64,1.73,7.08,2.48c2.44,0.75,5.39,1.94,6.56,2.65
	c1.21,0.74,4.55,1.61,7.75,2.02c3.09,0.4,7.44,1.12,9.67,1.59C513.09,634.9,512.77,634.9,516.16,633.84z M515.77,614.53
	c-1.48-0.71-3.42-1.3-4.3-1.31c-0.89-0.01-2.7-0.3-4.04-0.65c-1.34-0.34-4.26-0.98-6.48-1.41c-2.23-0.43-5.26-1.18-6.74-1.67
	c-4.77-1.56-6.49-1.76-8.77-1.01c-1.78,0.59-2.76,0.52-4.82-0.35c-2.86-1.19-6.04-0.67-10.88,1.79c-1.34,0.68-2.82,1.24-3.29,1.24
	c-0.47,0-1.33,0.93-1.92,2.06c-0.71,1.37-1.49,1.99-2.31,1.85c-0.68-0.12-3.23-2.42-5.65-5.13c-3.37-3.76-4.74-5.93-5.84-9.23
	c-1.1-3.31-1.27-4.62-0.71-5.67c1.14-2.14,2.62-0.95,3.11,2.52c0.77,5.39,5.23,11.58,8.33,11.55c0.95-0.01,3.09-0.64,4.76-1.41
	c5.66-2.61,11.89-4.04,13.79-3.17c1.39,0.63,2.12,0.56,3.93-0.42c2.17-1.17,2.3-1.16,5.11,0.27c2.66,1.36,3.01,1.39,4.49,0.42
	c2.3-1.51,2.89-1.39,9.79,1.97c3.41,1.66,7.3,3.2,8.64,3.41c1.34,0.21,3.35,0.79,4.47,1.27c2.18,0.95,9.52,0.92,10.43-0.04
	c0.3-0.32,0.66-1.19,0.79-1.93c0.13-0.74,1.26-1.83,2.5-2.41c1.25-0.59,2.8-1.78,3.46-2.65l1.19-1.58l6.54,1.23
	c6.46,1.22,8.18,2.24,6.53,3.89c-0.53,0.53-1.81,0.55-4.39,0.08c-3.35-0.61-3.79-0.53-5.47,0.91c-1.42,1.22-2.32,1.48-4,1.17
	c-1.98-0.37-2.34-0.16-3.99,2.34c-1.74,2.63-1.97,2.75-5.35,2.76c-1.94,0.01-4.13,0.14-4.88,0.3
	C519.08,615.7,517.26,615.25,515.77,614.53z M712.93,602.38c1.3-0.33,4.29-2,6.62-3.7c3.25-2.36,4.64-3.92,5.88-6.59
	c1.93-4.14,1.98-4.97,0.54-8.56l-1.09-2.74l5.09-4.86c2.8-2.67,5.29-5.65,5.52-6.62c0.47-1.9,0.05-11.95-0.69-16.57
	c-0.41-2.56-0.2-3.2,2.27-6.74c1.5-2.15,2.93-4.82,3.19-5.93c0.26-1.11,0.69-2.33,0.96-2.7c1.39-1.93,1.27-5.28-0.34-9.23
	c-2.57-6.34-4.38-8.28-9.22-9.91c-5.31-1.79-7.66-1.78-11.76,0.06c-2.07,0.93-4.91,1.54-7.67,1.64c-2.41,0.09-4.61,0.19-4.89,0.21
	c-1.47,0.13,1.46,9.5,3.79,12.1c1.53,1.71,7.46,4.78,9.25,4.79c1.67,0.01,11.27,6.66,11.74,8.13c0.96,3.02-1.92,3.61-4.44,0.91
	c-2.82-3.02-6.27-4.31-13.27-4.98c-7.76-0.73-9.17-0.19-9.89,3.82c-0.25,1.41-0.8,3.53-1.21,4.72c-0.58,1.66-0.54,2.79,0.17,4.96
	c0.85,2.59,0.83,2.89-0.34,3.75c-0.7,0.51-2.68,0.93-4.4,0.93c-3.9,0-10.36,2.57-13.17,5.24c-3.37,3.2-5.69,8.52-5.69,13.02
	c0,4.16,1.07,6.42,7.5,15.92c3.72,5.5,7.1,8.02,12.02,8.95c2,0.38,3.8,0.86,4.01,1.07C703.85,603.92,709.47,603.27,712.93,602.38z
	 M714.61,573.32c-6.53-6.58-7.69-8.14-7.73-10.49c-0.03-2.17,1.54-1.88,3.79,0.67c3.6,4.08,5.56,5.22,9,5.22
	c4.18,0,5.06,1.02,3.68,4.32c-0.57,1.36-0.86,2.78-0.63,3.14c0.59,0.95-0.32,3.34-1.25,3.29
	C721.03,579.44,717.94,576.68,714.61,573.32z M687.98,600.52c0-0.68-0.79-1.96-1.74-2.87c-2.44-2.28-5.81-6.98-8.41-11.71
	c-4.48-8.17-2.93-19.62,3.59-26.57c3.88-4.13,4.6-4.54,10.8-6.11l4.86-1.23l1.14-3.2c0.63-1.76,1.35-4.14,1.6-5.3
	c0.25-1.16,1.15-3.62,1.99-5.47c0.84-1.85,1.74-4.75,1.99-6.42c0.41-2.76,0.15-3.66-2.75-9.33c-2.23-4.35-3.71-6.47-4.84-6.89
	c-1.85-0.7-5.79,0.19-7.86,1.77c-0.72,0.55-1.94,1-2.7,1c-1.77-0.01-7.11,1.78-11.68,3.91c-3.05,1.42-4.26,1.61-8.47,1.34
	c-2.88-0.19-5.87-0.82-7.23-1.54c-1.27-0.67-3.41-1.79-4.76-2.5c-3.67-1.92-5.43-1.14-9.22,4.08c-4.18,5.75-4.73,7.48-5.27,16.37
	c-0.46,7.58-0.49,7.38,2.87,19.16c1.58,5.51,4.85,9.73,9.66,12.42c5.55,3.11,13.1,9.88,18.22,16.33c3.77,4.75,7.72,8.49,13.15,12.45
	C685.48,602.06,687.98,602.22,687.98,600.52z M379.89,591.41c1.63-0.8,5.12-3.75,7.75-6.55s6-5.99,7.48-7.08
	c3.68-2.71,5.7-4.94,6.17-6.84c0.66-2.61-1.13-7.5-4.25-11.66c-1.61-2.14-2.92-4.24-2.92-4.67c0-0.43,1.13-1.26,2.51-1.83
	c2.13-0.89,3.03-0.92,6.01-0.21c2.62,0.63,4.23,0.66,6.38,0.11c3.23-0.82,3.97-0.6,3.97,1.18c0,1.76-2.98,3.47-6.54,3.76
	c-1.68,0.13-3.2,0.4-3.39,0.58c-0.19,0.19,0.15,1.77,0.75,3.53c0.6,1.76,1.09,3.85,1.09,4.65s0.6,2,1.33,2.66
	c1.18,1.07,1.58,1.1,3.51,0.3c4.57-1.9,10.97-9.57,16.39-19.68c1.68-3.12,1.7-3.31,0.69-6.28c-0.57-1.68-1.34-4.41-1.71-6.06
	c-0.42-1.85-1.8-4.39-3.61-6.62c-1.62-1.99-3.75-5.38-4.74-7.54c-2.09-4.56-4.82-8.36-6.01-8.36c-0.45,0-4.14-1.64-8.19-3.66
	c-6.81-3.38-7.51-3.6-9.41-2.84c-4.22,1.67-7.25,11.91-5.68,19.22c1.03,4.78,2.01,5.92,6.22,7.16c4.53,1.35,6.48,1.27,8.18-0.33
	c0.79-0.73,2.39-1.53,3.57-1.77c2.8-0.56,3.52,1.07,1.84,4.18c-0.98,1.82-1.94,2.46-4.99,3.37c-3.33,0.98-4.51,1.01-9.84,0.26
	c-11.67-1.65-10.94-1.69-14.24,0.68c-4.01,2.88-6.32,2.48-6.32-1.09c0-1.92,0.54-2.97,2.62-5.04c2.19-2.19,3.07-2.62,5.37-2.62
	c3.65,0,4.31-1.25,3.46-6.49c-0.36-2.18-0.65-6.27-0.65-9.09c-0.01-4.41,0.24-5.49,1.74-7.71c4.78-7.04,4.35-7.57-10.38-12.73
	c-7.45-2.61-16.68-2.24-20.05,0.8c-0.72,0.65-3.08,2.34-5.26,3.76c-3.55,2.32-4.21,3.14-6.57,8.19c-3.2,6.82-3.28,8.97-0.6,16.44
	c1.11,3.1,2.02,5.77,2.02,5.93c0,0.16,1.37,1.76,3.06,3.56c2.66,2.85,3.81,3.51,8.93,5.09c7.34,2.27,7.89,2.56,7.89,4.13
	c0,0.86-0.54,1.33-1.68,1.46c-7.35,0.79-8.69,2.04-10.41,9.61c-1.19,5.23-1.19,5.84-0.15,12.24c0.7,4.28,1.74,7.91,2.86,9.96
	c2.54,4.67,8,11.19,11.63,13.88c2.99,2.22,3.34,2.31,7.18,1.92C375.11,593.05,378.26,592.2,379.89,591.41z M372.14,563.04
	c-3.83-1.74-5.65-3.84-5.65-6.48c0-2.68,0.66-2.81,3.15-0.62c4.2,3.68,7.13,2.28,7.25-3.45c0.04-1.9,0.43-3.59,0.91-3.89
	c0.96-0.59,9.97,1.53,11.36,2.68c2.2,1.82-0.5,4.35-3.75,3.51c-1.95-0.51-3.93,1.4-4.81,4.65c-0.75,2.77-2.75,5.28-4.17,5.21
	C375.96,564.62,374.03,563.9,372.14,563.04z M489.39,574.45c3.8-1.59,4.49-3.2,3.76-8.76c-1.41-10.65-1.68-11.12-6.48-11.12
	c-1.59,0-4.25-0.36-5.92-0.81c-1.66-0.44-3.23-0.61-3.47-0.36c-0.25,0.25-0.35,2.05-0.24,4.01s0.15,5.7,0.07,8.32
	c-0.15,5.2,0.52,6.37,4.95,8.68C484.61,575.73,486.32,575.74,489.39,574.45z M524.84,574.53c4.16-1.5,4.79-3.11,4.95-12.57l0.14-8.4
	h-6.53c-4.33,0-6.82-0.29-7.38-0.84c-1.57-1.57,0.51-2.37,7.09-2.71c6.13-0.32,6.43-0.41,7.13-2.1c0.54-1.31,0.47-3.48-0.27-8.44
	c-1.51-10.05-3.56-12.37-11.49-13.03c-3.38-0.28-4.32-0.11-5.73,1.03c-1.63,1.32-1.68,1.59-1.49,8.67
	c0.11,4.02,0.81,11.4,1.56,16.41c0.8,5.3,1.28,11.34,1.16,14.45l-0.22,5.36l2.29,1.55C518.56,575.62,521.28,575.81,524.84,574.53z
	 M541.47,574.6c2.5-1.42,5.15-5.19,5.72-8.11c0.91-4.69,0.72-13.53-0.33-14.95c-0.86-1.18-1.19-1.21-4.74-0.35
	c-2.78,0.67-4.02,0.71-4.55,0.17c-1.37-1.37-0.04-2.68,3.2-3.16c5.82-0.88,6.53-1.37,6.04-4.25c-0.23-1.39-0.8-5.55-1.27-9.25
	c-0.97-7.76-1.55-8.4-7.61-8.42c-5.1-0.02-5.27,0.39-4.67,10.97c0.66,11.56,0.51,27.53-0.28,31.06c-0.77,3.44,0.35,5.49,3.52,6.41
	C539.44,575.56,539.81,575.55,541.47,574.6z M507.76,572.27c3.25-4.13,3.72-5.84,3.22-11.41c-0.62-6.88-0.98-7.15-8.61-6.58
	c-3.38,0.25-6.39,0.69-6.7,0.98c-0.31,0.29-0.18,4.11,0.29,8.5c1.02,9.52,1.96,11.04,6.87,11.04
	C505.43,574.79,506.01,574.5,507.76,572.27z M472.52,568.61c2.02-2.17,2.07-3.11,0.72-13.92c-0.45-3.6-1.53-4.09-7.99-3.65
	c-6.15,0.42-6.69,0.88-6.1,5.18c0.25,1.87,0.6,5.05,0.77,7.08c0.34,4.02,1.46,5.76,4.64,7.18
	C467.33,571.72,470.26,571.04,472.52,568.61z M558.9,569.2c1.48-0.84,3.05-2.24,3.49-3.13c1.37-2.75,1.84-12.2,0.79-15.94
	c-1.21-4.28-2.83-4.57-8.35-1.45c-3.98,2.24-4,2.28-3.93,5.26c0.04,1.65-0.21,5.66-0.56,8.93c-0.47,4.43-0.43,6.18,0.18,6.91
	C551.71,571.22,555.84,570.94,558.9,569.2z M456.78,568.77c0.68-1.26,0.48-3.41-1.2-12.87c-0.72-4.04-1.08-4.52-4.03-5.34
	c-3.49-0.97-6.19-0.88-6.61,0.24c-0.2,0.52-0.02,2.87,0.41,5.22C446.95,564.95,454.38,573.25,456.78,568.77z M442.61,561.01
	c0.63-0.76,0.57-1.88-0.25-5.11c-0.58-2.28-1.06-5.19-1.06-6.48c0-2.05-0.3-2.46-2.44-3.36c-3.25-1.36-4.59-0.81-3.95,1.6
	c0.27,1.02,0.61,3.31,0.75,5.1c0.31,3.78,1.64,6.68,3.76,8.17C441.27,562.23,441.6,562.24,442.61,561.01z M573.57,559.98
	c1.21-0.95,1.83-2.27,2.16-4.55c0.25-1.77,0.85-4.58,1.31-6.25c0.47-1.67,0.67-3.76,0.44-4.66c-0.71-2.83-2.04-3.03-6.61-0.99
	c-3.99,1.77-4.67,2.58-4.31,5.1c0.04,0.26,0.11,2.69,0.16,5.39c0.05,2.71,0.37,5.46,0.71,6.1
	C568.27,561.72,571.45,561.64,573.57,559.98z M507.85,550.09c1.9-1.18,1.88-2.32-0.14-10.58c-2.11-8.63-4.5-11.22-10.33-11.22
	c-3.72,0-4.18,1.42-4.18,12.86c0,9.15,0.04,9.45,1.51,10.02C496.82,551.99,506.01,551.24,507.85,550.09z M489.57,550.68
	c0.54-0.35,0.64-3.49,0.34-10.94l-0.43-10.44l-1.92-0.92c-1.06-0.5-3.67-1.08-5.81-1.27c-3.34-0.3-4.09-0.15-5.32,1.08
	c-1.21,1.21-1.43,2.21-1.4,6.32c0.04,5.88,0.86,13.76,1.5,14.4C478.05,550.44,487.9,551.77,489.57,550.68z M455.93,544.97
	c-2.35-20.57-1.94-19.38-6.72-19.38c-5.37,0-6.57,1.13-6.57,6.21c0,3.65,1.29,9.81,2.65,12.66c0.79,1.65,4.89,3.37,8.03,3.37h2.93
	L455.93,544.97z M472.02,539.74c0.08-10.17-1-12.36-6.88-14.04c-7.34-2.09-8.1-0.87-7,11.28c0.42,4.62,1.06,8.95,1.43,9.64
	c0.59,1.1,1.39,1.23,6.53,1.05l5.86-0.2L472.02,539.74z M553.69,545.81c0.65-0.37,2.92-1.3,5.05-2.07s3.86-1.76,3.84-2.19
	c-0.19-4.65-1.99-14.23-2.83-15.07c-0.57-0.57-2.41-1.19-4.09-1.39c-2.63-0.3-3.29-0.11-4.79,1.39c-1.66,1.66-1.74,2.06-1.74,9.37
	c0,5.82,0.25,7.99,1.05,9.13C551.36,546.65,551.98,546.8,553.69,545.81z M440.31,538.9c-0.27-2.32-0.7-6-0.94-8.19
	c-0.49-4.44-1.54-5.59-4.43-4.86c-3.25,0.81-4.65,6.41-2.99,11.94c1.16,3.86,2.83,5.32,6.09,5.32h2.77L440.31,538.9z M572.39,539.59
	c5.04-1.97,5.23-2.25,4.92-6.9c-0.19-2.81-0.9-5.32-2.33-8.12c-2.02-3.98-2.11-4.05-5.15-4.25c-2.75-0.18-3.23,0.01-4.31,1.66
	c-1.72,2.64-1.49,17.62,0.29,18.95c0.63,0.47,1.62,0.66,2.18,0.42C568.56,541.11,570.54,540.32,572.39,539.59z M509.32,525.29
	c4.34-3.2,9.93-3.44,16.46-0.71c2.43,1.02,2.73,1,5.43-0.3c3.24-1.57,7.68-1.77,12.21-0.56c2.8,0.75,3.31,0.68,5.96-0.76
	c2.56-1.4,3.42-1.53,7.38-1.1l4.48,0.48l2.61-2.75c2.38-2.5,2.92-2.75,6-2.75c2.93,0,3.74,0.32,5.96,2.35
	c2.46,2.25,2.62,2.31,3.86,1.18c3.31-2.99,6.89-13.33,6.24-18.02c-1.16-8.33-1.56-9.64-4.22-13.51c-4.05-5.92-7.03-8.47-11.48-9.87
	c-6.11-1.91-10.17-1.63-15.94,1.12c-4.97,2.36-7.66,4.91-11.04,10.51c-0.8,1.32-2.1,2.99-2.89,3.7c-1.42,1.28-1.45,1.28-2.79-0.38
	c-1.74-2.15-1.28-6.21,1.23-10.83c2.36-4.32,3.49-5.29,11-9.36c3.51-1.9,6.84-3.86,7.41-4.36c0.57-0.5,2.71-1.76,4.75-2.78
	c6.2-3.12,12.47-2.45,22.73,2.44c6.16,2.93,10.1,3.42,11.76,1.46c0.55-0.65,2.62-4.52,4.6-8.59c5.42-11.15,6.1-11.98,12.1-14.86
	c2.02-0.97,5.82-3.24,8.42-5.04c6.5-4.48,13.33-6.25,22.83-5.94c4.83,0.16,7.53,0.58,9.15,1.41c1.26,0.65,2.67,1.18,3.13,1.18
	c1.04,0,4.78,4.19,5.24,5.86c0.19,0.67,0.52,2.06,0.75,3.08c0.4,1.82,2.53,2.62,3.36,1.27c0.56-0.91,10.84-8.65,12.97-9.76
	c4.33-2.27,17.04-17.07,27.76-32.33c5.81-8.27,12.09-23,13.63-31.95c1.48-8.59-1.27-30.06-5.36-41.98
	c-3.15-9.15-7.3-18.98-9.45-22.37c-2.6-4.09-18.62-21.09-23.75-25.21c-7.85-6.28-21.06-14.54-33.94-21.21
	c-3.34-1.73-7.28-3.79-8.76-4.59c-2.89-1.55-15.88-6.41-23.59-8.83c-2.6-0.81-5.78-1.88-7.08-2.37c-7.57-2.83-7.61-2.83-13.44,0.13
	c-5.7,2.91-5.6,2.91-9.96,0.16c-1.38-0.87-1.65-0.76-3.53,1.34l-2.04,2.28l1.44,1.01c0.79,0.56,4.2,1.35,7.57,1.77
	c5.07,0.63,6.17,0.97,6.37,2c0.22,1.14-0.12,1.21-4.37,0.77c-2.54-0.26-5.33-0.65-6.2-0.85c-1.27-0.3-1.54-0.13-1.35,0.87
	c0.15,0.75,1.04,1.41,2.25,1.67c1.11,0.23,3.38,1.13,5.05,1.99c2.42,1.25,4.8,1.69,11.8,2.2c4.82,0.35,9.55,0.93,10.52,1.28
	c1.09,0.4,2.24,1.71,3.03,3.43c1,2.19,2.07,3.19,4.98,4.66c2.04,1.03,4.77,3.05,6.07,4.49c1.3,1.44,2.85,2.79,3.45,3
	c0.6,0.21,1.3,1.19,1.55,2.19c0.75,2.98,4.58,7.62,6.98,8.45c2.31,0.79,4.19,3.75,8.35,13.1c2.12,4.77,1.81,5.86-2.64,9.07
	c-1.58,1.14-2.87,2.35-2.87,2.69c0,0.96,2,2.74,3.08,2.74c1.74,0,3.66,2.6,3.66,4.95c0,2.66-1.54,4.28-4.38,4.6
	c-1.55,0.17-2.08,0.61-2.25,1.87c-0.18,1.28,0.61,2.42,3.54,5.12c3.37,3.11,3.77,3.77,3.77,6.18c0,3.51-1.17,6.8-2.72,7.63
	c-0.68,0.36-3.46,0.66-6.18,0.66c-5.31,0-7.95,1.1-7.95,3.3c0,0.66,0.9,2.84,2.01,4.85c2.69,4.88,2.59,6.1-0.73,8.95
	c-5.01,4.3-7.84,5.91-11.15,6.38c-2.49,0.35-3.43,0.82-3.93,1.98c-0.93,2.11-2.22,2.36-8.24,1.6c-2.88-0.36-6.43-0.61-7.87-0.54
	c-2.95,0.12-3.93-1.08-1.81-2.22c1.79-0.96,5.52-1.11,10.34-0.43l3.88,0.55l1.02-2.43c1.03-2.47,2.16-2.94,4.3-1.8
	c1.55,0.82,6.83-1.62,10.52-4.86l2.7-2.37l-2.53-5.06c-2.46-4.94-3.2-8.74-1.86-9.57c1.62-1,8.36-2.33,11.45-2.27
	c3.79,0.08,5.41-0.87,5.41-3.17c0-2.73-1.18-4.81-3.59-6.29c-2.54-1.57-5.42-6.72-4.75-8.49c0.5-1.3,2.4-2.37,4.22-2.37
	c0.75,0,1.68-0.58,2.06-1.29c0.59-1.09,0.19-1.72-2.67-4.11c-4.59-3.84-4.58-5.66,0.04-8.41c1.87-1.1,3.54-2.65,3.74-3.44
	c0.44-1.77-0.81-4.83-4.04-9.88c-2.56-3.99-3.68-4.62-5.14-2.87c-0.46,0.56-1.41,1.01-2.1,1.01c-1.27,0-1.6-0.96-1.33-3.94
	c0.2-2.25-1.59-4.64-4.5-6.01c-2.16-1.02-2.56-1.56-2.88-3.95c-0.55-4.09-2-5.86-5.64-6.83c-2.69-0.72-3.46-1.33-5.25-4.21
	c-1.15-1.85-2.57-3.41-3.17-3.47c-1.36-0.13-6.7-0.48-11.53-0.74c-2.04-0.11-4.31-0.56-5.05-0.98c-0.74-0.43-3.71-1.6-6.6-2.61
	c-5.46-1.9-8.22-4.22-7.56-6.34c0.49-1.53-1.49-3.16-4.52-3.73c-1.38-0.26-2.87-0.9-3.31-1.44c-0.45-0.54-1.86-1.42-3.14-1.95
	c-3.47-1.45-1.89-2.91,3.1-2.84c4,0.04,7.1-0.44,10.66-1.66c1.79-0.62,2.41-0.5,4.15,0.73c2.5,1.78,3.4,1.79,5.45,0.08
	c2.2-1.83,1.41-3.17-2.2-3.71c-4.63-0.7-22.54-0.82-26.38-0.18c-1.87,0.31-8.69,0.67-15.17,0.8c-10.38,0.21-13.07,0.52-22.88,2.63
	c-6.12,1.31-13.55,2.88-16.51,3.49c-5.23,1.07-8.92,2.08-20.22,5.54c-9.91,3.03-15.69,6.1-27.01,14.31
	c-1.51,1.09-5.08,3.22-7.94,4.73c-2.86,1.5-6.78,3.91-8.72,5.36c-1.94,1.44-4.43,3.12-5.54,3.74c-8.44,4.66-15.53,13.23-22.5,27.16
	c-1.16,2.31-3.85,6.87-6,10.14c-3.76,5.73-7.24,13.37-8.96,19.71c-0.45,1.67-0.85,6.83-0.88,11.46c-0.06,7.9,0.08,8.8,2.15,14.49
	c1.21,3.34,2.65,7.67,3.19,9.64c1.09,3.91,1.33,10.63,0.41,11.2c-0.32,0.2-0.75,1.35-0.95,2.57c-0.2,1.21-0.57,2.7-0.8,3.3
	c-0.25,0.62,0.04,1.56,0.65,2.18c0.99,0.99,1.46,0.89,5.69-1.27c2.54-1.29,4.96-2.78,5.4-3.3c0.44-0.53,0.7-2.39,0.58-4.19
	l-0.21-3.24l2.38,0.19c1.62,0.13,2.96-0.26,4.18-1.22c1.62-1.27,1.78-1.82,1.68-5.43c-0.08-2.92,0.19-4.32,0.98-5.11
	c1.7-1.7,2.35-0.67,2.85,4.45l0.47,4.74l-4.09,4.54c-2.25,2.5-4.66,5.61-5.33,6.9c-0.68,1.3-2.27,3.05-3.53,3.89
	c-5.9,3.96-11.86,11.21-13.72,16.7c-3.67,10.81-3.67,34.79-0.01,48.82c0.53,2.04,1.41,5.57,1.96,7.85c0.54,2.28,1.87,6.07,2.93,8.42
	s2.66,5.9,3.54,7.87c1.61,3.62,5.58,7.53,7.63,7.53c1.46,0,2.99-2.52,3.72-6.11c2.4-11.77,5.47-19.08,9.22-21.94
	c2.55-1.94,5.21-2.04,8.78-0.31c5.47,2.64,7.27,5.81,9.16,16.06c0.82,4.47,0.49,5.61-1.3,4.48c-0.67-0.43-1.58-2.89-2.32-6.32
	c-1.25-5.8-2.62-8.05-5.95-9.76c-4.63-2.38-7.07,3.05-8.14,18.18c-1.07,15-3.16,22.29-7.45,25.95c-2.65,2.26-2.76,5.44-0.31,9.32
	c1.95,3.09,3.47,4.07,4.79,3.09c3.87-2.87,4.36-3.02,10.87-3.33c3.66-0.17,7.57-0.36,8.68-0.42c1.11-0.06,3.24-0.05,4.72,0.01
	c1.48,0.06,4.42-0.07,6.52-0.3c3.26-0.35,4.44-0.14,7.94,1.44c3.47,1.56,4.37,1.72,5.81,1.07c2.45-1.12,8.58-0.95,11.72,0.31
	c2.28,0.91,3.38,0.96,7.11,0.31c4.39-0.76,7.99-0.32,10.44,1.29C504.98,527.35,506.96,527.03,509.32,525.29z M471.96,492.96
	c-2.2-0.98-4.29-3.54-5.69-6.99c-1.21-2.99-0.58-17.9,0.98-23.41c0.63-2.23,1.41-5.3,1.72-6.84s1.67-5.63,3.02-9.09
	c4.63-11.86,5.82-13.44,12.29-16.42c5.87-2.7,7.49-2.75,12.09-0.43c2.36,1.19,5.24,3.4,6.9,5.28c3.47,3.93,9.7,12.89,11.91,17.12
	c1.96,3.74,2.92,11.13,2.93,22.41c0.01,9.09-1.21,14.52-3.84,17.15c-1.5,1.5-2.06,1.63-5.86,1.32c-4.18-0.34-8.31-2.24-10.44-4.8
	c-1.33-1.6-4.34-1.36-8.36,0.68c-4.31,2.18-12.35,4.97-14.25,4.93C474.62,493.87,473.08,493.46,471.96,492.96z M477.52,489.02
	c-0.16-0.47-1.07-0.75-2.08-0.63c-1.79,0.22-1.79,0.21-1.78-4.38c0.04-11.46,2.25-24.56,4.9-29.05c0.72-1.22,2.66-3.15,4.33-4.3
	c2.16-1.49,3.47-3.08,4.57-5.56c1.79-4.06,2.29-4.52,6.53-6.11c1.74-0.65,3.65-1.72,4.25-2.37c0.99-1.09,0.98-1.28-0.02-2.28
	c-0.6-0.6-1.6-1.1-2.22-1.11c-0.62-0.01-1.72-0.47-2.44-1.01c-1.93-1.46-4-1.22-8.32,0.96c-4.73,2.39-5.7,3.44-7.57,8.16
	c-0.81,2.04-2.08,5.22-2.83,7.08c-3.86,9.52-6.16,20.92-6.19,30.7c-0.02,7.56,2.02,10.44,7.57,10.68
	C477.21,489.84,477.7,489.55,477.52,489.02z M433.01,444.03c-0.95-0.75-2.39-2.44-3.21-3.76c-1.33-2.16-1.45-3.06-1.16-8.92
	c0.25-5.19,0.67-7.21,2.01-9.89c0.93-1.85,1.91-4.26,2.17-5.35c0.26-1.09,1.03-2.76,1.69-3.71c0.67-0.95,1.44-2.48,1.71-3.41
	c0.27-0.93,1.17-2.75,2-4.04c0.83-1.3,2.32-3.65,3.31-5.22c0.99-1.57,2.94-3.58,4.32-4.46c3.38-2.15,5.13-4.2,4.64-5.46
	c-0.9-2.33-6.95-0.44-11.49,3.59c-6.53,5.81-9.45,9.65-11.69,15.45c-3.44,8.88-3.61,9.52-4.11,14.97c-0.4,4.43-0.62,5.05-1.79,5.05
	c-2.48,0-2.76-2.92-1.12-11.95c1.29-7.07,1.96-9.08,4.6-13.79c3.54-6.31,4.99-8,10.93-12.69c7.17-5.66,8.65-6.33,15.3-6.91
	c8.74-0.76,14.86,0.34,21.34,3.83c2.87,1.55,5.6,3.48,6.05,4.3c3.79,6.72,4.29,14.11,1.36,20.54c-2.66,5.85-13.24,17.66-19.38,21.63
	c-1.48,0.96-4.61,3.47-6.95,5.59c-4.92,4.44-8.65,5.96-14.64,5.96C435.75,445.38,434.32,445.05,433.01,444.03z M566.66,438.41
	c-2.98-1.13-5.02-1.37-10.45-1.26c-10.13,0.21-16.36-1.62-23.07-6.76c-3.33-2.55-4.71-4.3-7.06-8.93
	c-3.51-6.92-5.47-13.05-5.47-17.1c0-3.77,0.16-4.12,3.9-8.81c3.47-4.35,4.57-5.21,10.06-7.91c5.96-2.93,6.31-3.02,10.76-2.62
	c3.87,0.34,5.21,0.81,8.42,3c5.06,3.44,13.44,12.3,16.02,16.93c1.2,2.16,2.42,5.73,2.91,8.55c0.96,5.52,3.77,10.74,8.51,15.81
	c1.65,1.77,3.01,3.51,3.01,3.86c0,1.11-3.43,4.8-5.44,5.83C576.15,440.35,571.13,440.1,566.66,438.41z M628.67,429.2
	c-6.44-1.1-8.55-2.08-14.08-6.5c-4.62-3.69-6.49-5.82-10.28-11.59c-2.55-3.89-4.63-7.31-4.63-7.62c0-0.3-1.06-2.2-2.36-4.23
	c-1.3-2.03-2.36-3.87-2.36-4.09c0-0.22-0.93-2.28-2.06-4.56c-1.13-2.28-2.38-5.68-2.77-7.54c-0.39-1.87-1.24-5.21-1.89-7.44
	c-2.36-8.04-2.72-10.61-2.71-19.39c0.01-9.26,0.42-11.1,2.32-10.38c0.96,0.37,1.05,1.18,0.68,6c-0.67,8.57,1.22,19.32,5.65,32.19
	c1.76,5.1,3.11,7.84,8.82,17.86c4.91,8.62,12.98,16.36,21.45,20.58c2.9,1.45,5.47,2.09,10.26,2.57c5.73,0.57,6.78,0.5,10.11-0.73
	c5.97-2.2,15.33-8.17,18.15-11.57c0.49-0.59,1.62-1.08,2.5-1.08c2.83,0,1.83,2.32-2.96,6.83
	C653.08,427.41,640.82,431.28,628.67,429.2z M675.34,425.39c-0.97-0.39-1.15-4-0.22-4.57c1.06-0.66,3.43-6.11,3.43-7.9
	c0-2.02-1.9-3.94-3.89-3.94c-0.79,0-1.62-0.31-1.86-0.7c-0.65-1.04,0.98-2.66,2.67-2.66c0.81,0,2.06-0.44,2.78-0.99
	c1.86-1.41,3.22-1.26,5.17,0.54c4.36,4.04,4.2,6.16-0.83,11.17c-3.05,3.05-4.04,4.5-4.04,5.95c0,1.05-0.36,2.28-0.81,2.73
	C676.87,425.89,676.66,425.92,675.34,425.39z M513.98,421.99c-0.61-1.03-2.19-5.13-3.53-9.1c-2.11-6.27-2.43-8.04-2.41-13.48
	c0.02-5.91,0.13-6.42,2.05-8.96c3.76-4.99,14.47-10.76,19.11-10.31c2.7,0.26,2.73,2,0.05,2.79c-4.13,1.22-6.16,2.39-9.98,5.76
	c-2.15,1.9-4.16,3.45-4.47,3.45c-0.89,0-1.94,3.43-2.27,7.41c-0.36,4.44,2.05,14.97,4.23,18.51c1.74,2.81,1.59,5.33-0.33,5.6
	C515.55,423.8,514.71,423.23,513.98,421.99z M673.11,399.71c-0.9-0.68-3.39-1.77-5.52-2.42c-2.52-0.77-4.26-1.77-4.96-2.83
	c-1.45-2.22-5.97-2.28-9.7-0.13c-2.36,1.36-2.74,1.41-3.66,0.49c-0.56-0.56-1.61-3.14-2.33-5.73c-3.82-13.72-4.64-19.54-2.76-19.54
	c1,0,2.04,3.46,4.03,13.32c1.28,6.37,4.36,6.7,7.81,0.82c2.31-3.93,3.46-4.56,5.84-3.16c1.28,0.76,1.99,1.85,2.26,3.48
	c0.9,5.34,1.97,6.76,5.09,6.76c3.03,0,4.19,0.91,5.96,4.69c1.44,3.06,1.5,3.55,0.59,4.45C674.86,400.83,674.56,400.81,673.11,399.71
	z M500.78,381.58c-1.82-0.73-0.59-2.09,5.68-6.3c3.59-2.41,8.1-5.82,10.03-7.58s4.13-3.2,4.89-3.2c2.53,0,4.85-1.31,5.54-3.11
	c0.67-1.76,0.75-1.78,5.88-1.46c4.49,0.28,5.91,0.71,10.28,3.1c5.18,2.83,8.07,5.05,8.07,6.21c0,0.86-2.5,0.84-3.03-0.03
	c-0.23-0.37-1.14-0.67-2.02-0.67c-0.88,0-1.79,0.3-2.02,0.67c-0.67,1.08-2.21,0.79-4.9-0.94c-1.38-0.89-3.61-2-4.95-2.46
	c-2.17-0.75-2.78-0.68-5.52,0.65c-1.69,0.82-3.48,1.44-3.97,1.37c-1.74-0.24-2.39,0.07-4.76,2.23c-1.32,1.21-3.64,3.33-5.17,4.72
	c-1.53,1.39-3.32,2.53-3.98,2.53s-2.23,1.06-3.49,2.36C505.17,381.91,503.1,382.52,500.78,381.58z M554.53,374.11
	c-2.79-1.39-3.2-3.27-0.67-3.06c0.93,0.07,2.62,0.33,3.76,0.57c1.48,0.3,2.72,0.03,4.3-0.93c4.11-2.5,5.66-0.04,1.82,2.88
	C561.06,375.61,557.91,375.79,554.53,374.11z M489.29,370.43c-0.44-0.44-0.81-1.56-0.81-2.47c0-0.91-0.52-2.24-1.14-2.93
	c-2.05-2.26-1.46-5.38,1.68-8.96c1.56-1.77,2.83-3.71,2.83-4.32s-1.34-2.53-2.98-4.27c-2.88-3.05-2.96-3.24-2.29-5.7
	c0.87-3.19,1.83-4.4,3.12-3.91c0.55,0.21,1.73-0.1,2.64-0.69c1.55-1.02,1.62-1.31,1.17-5.58c-0.26-2.47-0.91-5.01-1.46-5.63
	c-0.54-0.62-0.89-1.68-0.76-2.36c0.2-1.05,1.12-1.28,6.29-1.56c4.94-0.27,6.09-0.54,6.27-1.46c0.13-0.67-0.61-1.6-1.85-2.34
	c-1.13-0.67-2.24-1.83-2.46-2.59c-0.22-0.75-1.32-3.71-2.43-6.58c-1.12-2.87-1.86-5.67-1.64-6.24c0.26-0.68,1.29-1.03,3.02-1.03
	c1.9,0,3.7-0.7,6.49-2.53l3.86-2.53l-0.4-3.5l-0.4-3.5l2.87-0.21c3.49-0.25,3.99-1.77,1.89-5.69c-2.27-4.23-1.64-5.97,2.31-6.42
	c1.23-0.14,2.28-0.79,2.72-1.67c1.3-2.61,2.49-3.61,4.32-3.61c2.1,0,3.42-1.1,3.42-2.86c0-1.97,3.03-4.55,5.36-4.55
	c2.68,0,2.72,1.64,0.07,3.01c-1.65,0.85-2.02,1.5-2.19,3.89c-0.2,2.81-0.26,2.88-3.01,3.24c-1.96,0.26-3.64,1.13-5.56,2.87
	c-1.51,1.37-3.05,2.49-3.4,2.49c-0.36,0-0.98,0.63-1.4,1.39c-0.95,1.78,0.5,4.19,3.44,5.71c2.98,1.54,2.28,2.98-2.07,4.31
	l-3.71,1.12v2.98c0,2.73-0.17,3.03-2.02,3.58c-4.74,1.42-5.31,2.61-2.73,5.68c2.22,2.64,2.24,4.21,0.04,4.21
	c-1.18,0-2.14-0.7-3.2-2.34c-1.79-2.76-2.84-3.29-4.6-2.35c-1.46,0.78-1.6,1.78-0.64,4.31c0.58,1.53,1.04,1.73,3.94,1.73
	c2.32,0,3.61,0.36,4.4,1.23c1.74,1.93,1.39,3.47-0.91,3.93c-1.11,0.22-2.02,0.63-2.02,0.91c0,0.88,2.12,2.32,4.99,3.38
	c1.95,0.72,2.83,1.48,2.98,2.52c0.33,2.28-2.45,3.01-9.32,2.47c-4.66-0.36-5.93-0.26-6.6,0.54c-0.66,0.8-0.57,1.31,0.47,2.63
	c0.81,1.03,1.37,3,1.52,5.29c0.21,3.42,0.11,3.71-1.62,4.55c-1.02,0.49-2.16,1.49-2.55,2.2c-0.39,0.72-1.6,1.77-2.7,2.34
	c-2.6,1.34-2.52,2.11,0.44,4.83c2.23,2.04,2.41,2.49,2.09,4.95c-0.25,1.83-1.15,3.58-2.78,5.39c-2.43,2.69-3.26,6.12-1.71,7.08
	c1.1,0.68,2.06,3.71,1.62,5.12C491.7,371.42,490.47,371.62,489.29,370.43z M452.29,368.87c-0.61-0.44-0.92-1.26-0.71-1.82
	c0.3-0.79,1.99-1.09,7.5-1.33c6.68-0.3,7.34-0.46,11.01-2.69c4.67-2.84,9.92-4.9,10.93-4.28c1.32,0.81,0.76,2.41-1.13,3.22
	c-1.02,0.44-2.93,1.63-4.25,2.64c-1.32,1.01-3.29,2.03-4.38,2.27c-1.09,0.24-3.8,0.85-6.02,1.37
	C459.57,369.55,453.62,369.84,452.29,368.87z M537.18,265.4c-2.28-0.92-1.83-1.86,1.28-2.7c2.04-0.55,3.6-0.56,5.73-0.02
	c2.41,0.61,3.38,0.54,5.46-0.37c1.39-0.61,3.59-1.3,4.89-1.54c1.83-0.33,2.66-0.99,3.71-2.94c2.12-3.95,6.96-5.43,9.15-2.79
	c1.11,1.34,0.22,3.23-1.24,2.62c-2.58-1.07-3.38-1.07-4.44,0c-0.61,0.61-1.11,1.94-1.11,2.95c0,2.54-1.14,3.46-4.35,3.48
	c-1.5,0.01-3.49,0.46-4.41,0.99C549.92,266.18,539.66,266.4,537.18,265.4z M675.51,516.08c1.85-0.36,6.25-2.28,9.77-4.26
	c6.45-3.63,11.58-5.19,12.45-3.79c0.25,0.4,2.15,1.99,4.23,3.53c4.25,3.14,8.9,4.13,11.21,2.39c1.25-0.94,1.24-1.05-0.17-5.42
	c-0.79-2.46-1.44-5.72-1.44-7.25c0-3.21,1.63-9.28,3.46-12.91c1.9-3.76,1.61-4.87-2.08-7.99c-2.66-2.24-3.71-3.76-5.12-7.45
	c-1.52-3.98-2-4.63-3.42-4.63c-2.39,0-6.27-1.78-6.78-3.1c-0.31-0.8,0.39-1.91,2.32-3.71c2.62-2.45,2.94-2.56,6.67-2.36
	c3.88,0.21,3.92,0.24,4.48,2.62c0.79,3.35,2.66,4.85,5.88,4.72c3.03-0.12,4.12,0.96,2.31,2.28c-1.78,1.3-4.19,1.12-6.84-0.52
	c-2.88-1.78-3.54-1.21-1.98,1.69c2.09,3.88,8.88,6.65,12.72,5.18c2.18-0.82,5.73-4.53,6.28-6.53c0.21-0.78,1.35-1.84,2.53-2.36
	c2.71-1.19,3.18-3.49,1-4.89c-0.86-0.54-3.53-1.53-5.94-2.19c-7.94-2.18-15.25-8.13-16.6-13.51c-0.35-1.41,1.1-8.5,2.48-12.15
	c0.33-0.86,1.14-1.57,1.81-1.57c1.08,0,1.21,0.69,1.23,6.24c0.02,4.49,0.34,6.83,1.14,8.35c1.52,2.87,6.69,6.5,11.61,8.16
	c2.23,0.75,4.95,1.74,6.07,2.19c3.17,1.3,7.29-0.14,11.28-3.94c3.06-2.92,3.44-3.65,4.98-9.55c2.33-8.95,1.73-12.05-3.26-16.83
	c-5.4-5.17-15.5-7.94-23.47-6.45c-6.47,1.22-11.02,4.03-19.18,11.86c-3.62,3.48-6.75,5.59-13.48,9.12
	c-4.82,2.52-10.48,5.98-12.59,7.67c-5.03,4.04-9.26,7.08-11.34,8.14c-3.46,1.77-7.3,5.51-9.74,9.45c-1.99,3.22-2.79,5.55-3.86,11.28
	c-2.06,10.98-2.52,17.29-1.83,24.9c0.94,10.29,1.71,11.52,8.47,13.67C664.86,517.45,668.53,517.43,675.51,516.08z M735.51,510.18
	c5.01-2.27,8.17-6.47,11.85-15.74c1.35-3.39,1.82-7.51,2.01-17.37c0.07-3.68-0.3-5.2-2.28-9.53c-3.51-7.67-6.27-7.82-9.88-0.54
	c-1.44,2.9-4.09,6.11-9.4,11.38c-6.89,6.84-7.49,7.64-8.79,11.85c-2.11,6.84-1.97,8.08,1.83,15.81
	C723.22,510.8,729.93,512.71,735.51,510.18z M414.88,503.33c0.2-1.71-3.03-8.58-5.23-11.11c-1.82-2.09-5.22-8.44-6.32-11.8
	c-2.32-7.08-3.41-11.36-3.86-15.17c-0.26-2.23-1.08-5.71-1.82-7.75c-0.74-2.04-1.69-5.15-2.1-6.92c-0.93-3.97-0.94-24.67-0.01-28.8
	c1.65-7.36,1.78-9.13,0.93-12.43c-0.92-3.54-2.36-5.09-4.74-5.09c-1.63,0-7.71-6.05-7.71-7.68c0-1.51,1-1.82,2.43-0.74
	c0.7,0.53,2.36,0.98,3.68,0.99c1.45,0.01,2.98,0.56,3.85,1.37c0.8,0.74,2.01,1.35,2.71,1.35c1.82,0,3.02-5.43,1.92-8.73l-0.8-2.39
	l-4.46,0.05c-3.67,0.04-5.34,0.48-9.42,2.45c-2.73,1.32-7.09,2.91-9.68,3.53c-2.6,0.62-5.32,1.52-6.07,2
	c-0.74,0.48-2.56,1.25-4.04,1.72c-4.12,1.31-9.17,4.37-11.89,7.22c-3.38,3.54-9.15,13.11-10.82,17.95
	c-1.17,3.38-1.32,4.91-0.93,9.64c0.25,3.1,1,7.38,1.68,9.51s1.54,6,1.94,8.6c0.39,2.6,1.22,8.05,1.84,12.12
	c0.62,4.07,1.53,8.19,2.03,9.15c1.14,2.2,8.05,7.93,10.23,8.48c2.24,0.56,4.14-0.64,6.89-4.37c5.52-7.48,7.95-13.08,9.16-21.15
	c0.21-1.38,1.12-3.39,2.02-4.46c2.1-2.49,5.72-12.27,5.72-15.44c0-1.33,0.34-4.36,0.75-6.73c0.59-3.39,0.98-4.26,1.85-4.09
	c0.78,0.15,1.44,1.71,2.22,5.26c1.6,7.27,1.56,13.97-0.12,17.89c-0.75,1.75-1.55,5.49-1.77,8.31c-0.68,8.59-6.38,18.83-14.04,25.23
	c-3.04,2.54-3.78,4.44-2.2,5.65c1.5,1.14,9.83,3.54,13.81,3.98c8.91,0.96,20.25,6.07,25.38,11.43c2.39,2.49,3.34,3.06,4.89,2.88
	C414.23,505.08,414.72,504.64,414.88,503.33z"/>
</svg>
