<?xml version="1.0" encoding="utf-8"?>
<!-- Generator: Adobe Illustrator 25.4.1, SVG Export Plug-In . SVG Version: 6.00 Build 0)  -->
<svg version="1.1" id="Слой_1" xmlns="http://www.w3.org/2000/svg" xmlns:xlink="http://www.w3.org/1999/xlink" x="0px" y="0px"
	 viewBox="0 0 400 364" style="enable-background:new 0 0 400 364;" xml:space="preserve">
<style type="text/css">
	.st0{fill:#FEFEFE;}
	.st1{fill:#010003;}
	.st2{fill:#1A181D;}
	.st3{fill:#EEEEEE;}
	.st4{fill:#6F6F70;}
	.st5{fill:#CDCDCD;}
	.st6{fill:#D4D4D5;}
	.st7{fill:#D6D6D7;}
	.st8{fill:#252525;}
	.st9{fill:#ADACAE;}
	.st10{fill:#B1B0B1;}
	.st11{fill:#9B9B9B;}
	.st12{fill:#726162;}
	.st13{fill:#0B0C18;}
	.st14{fill:#6B676C;}
	.st15{fill:#17161C;}
	.st16{fill:#747279;}
	.st17{fill:#806F6C;}
	.st18{fill:#6B5753;}
	.st19{fill:#2A292E;}
	.st20{fill:#A3938F;}
	.st21{fill:#1D1D29;}
	.st22{fill:#888083;}
	.st23{fill:#997A71;}
	.st24{fill:#443E42;}
	.st25{fill:#26242A;}
	.st26{fill:#827275;}
	.st27{fill:#918D91;}
	.st28{fill:#7A5953;}
	.st29{fill:#DDDBDD;}
	.st30{fill:#927D7A;}
	.st31{fill:#7C6968;}
	.st32{fill:#0C0B12;}
	.st33{fill:#0D0C13;}
	.st34{fill:#0E0D12;}
	.st35{fill:#16100D;}
	.st36{fill:#252124;}
	.st37{fill:#181112;}
	.st38{fill:#171110;}
	.st39{fill:#3B2F2F;}
	.st40{fill:#614F52;}
	.st41{fill:#887070;}
	.st42{fill:#6C5856;}
	.st43{fill:#372B2F;}
	.st44{fill:#60464A;}
	.st45{fill:#312B2F;}
	.st46{fill:#564244;}
	.st47{fill:#6A4F4E;}
	.st48{fill:#5D5A63;}
	.st49{fill:#7F7173;}
	.st50{fill:#6C5A59;}
	.st51{fill:#0C0A11;}
	.st52{fill:#1B1B24;}
	.st53{fill:#917977;}
	.st54{fill:#9A827C;}
	.st55{fill:#76635C;}
	.st56{fill:#B1968E;}
	.st57{fill:#795950;}
	.st58{fill:#766060;}
	.st59{fill:#604845;}
	.st60{fill:#191922;}
	.st61{fill:#4B3431;}
	.st62{fill:#292830;}
	.st63{fill:#A98982;}
	.st64{fill:#93716A;}
	.st65{fill:#82675F;}
	.st66{fill:#7E6059;}
	.st67{fill:#1B191F;}
	.st68{fill:#55413F;}
	.st69{fill:#76615D;}
	.st70{fill:#6F574F;}
	.st71{fill:#715A56;}
	.st72{fill:#534243;}
	.st73{fill:#83615C;}
	.st74{fill:#A78A87;}
	.st75{fill:#432929;}
	.st76{fill:#564240;}
	.st77{fill:#846A66;}
	.st78{fill:#30292E;}
	.st79{fill:#615759;}
	.st80{fill:#434046;}
	.st81{fill:#4D4B58;}
	.st82{fill:#3C1B18;}
	.st83{fill:#493330;}
	.st84{fill:#654A4B;}
	.st85{fill:#5E3D37;}
	.st86{fill:#7F5E59;}
	.st87{fill:#1F0D0D;}
	.st88{fill:#8C7068;}
	.st89{fill:#6A4B43;}
	.st90{fill:#96766F;}
	.st91{fill:#5A423C;}
	.st92{fill:#3E2C2A;}
	.st93{fill:#2F100D;}
	.st94{fill:#9F7C74;}
	.st95{fill:#53352F;}
</style>
<g>
	<path class="st0" d="M399.95,355.88c-0.16,3.16-0.83,5.93-3.21,8.12c4.74-16.42-1.97-31.48-5.88-46.78
		c-3.34-13.08-9.09-25.35-14.96-37.48c-0.12-0.25-0.24-0.52-0.36-0.77c-0.18-0.39-0.36-0.79-0.55-1.17
		c-6.69-14.14-14.57-27.63-22.55-41.05c-0.2-0.35-0.4-0.71-0.62-1.06c-1.03-1.77-2.15-3.46-3.33-5.05
		c-6.55-8.77-15.34-14.77-26.13-18.31c-8.93-2.93-17.98-5.43-27.06-7.84c-3.25-0.86-6.49-1.74-9.01-4.2h-0.01
		c-0.09-0.11-0.18-0.21-0.27-0.32c-2.44-3.03-2.01-6.55-1.93-10.02c0.02-0.61,0.02-1.22-0.01-1.83c-0.01-0.4-0.04-0.81-0.09-1.2
		c-0.03-3.21,0.21-6.42-0.04-9.6c-0.37-4.9,1.53-8.11,6.22-9.62c0.1-0.08,0.2-0.16,0.29-0.25c0.22-0.2,0.4-0.41,0.55-0.65
		c0.71-1.05,0.74-2.33,0.56-3.6c-0.48-3.24-0.41-6.48-0.39-9.73c0.01,0,0-0.01,0-0.01c0.01-0.14,0.01-0.27,0.01-0.4
		c0-1.57,0-3.14-0.09-4.7c0.44-2.87,0.75-5.74,0.92-8.63c0.35-5.4,0.27-10.81-0.13-16.23c-0.02-0.13-0.03-0.26-0.06-0.39
		c-0.01-0.14-0.04-0.27-0.06-0.41c-0.05-0.25-0.1-0.5-0.16-0.74c-0.63-2.68-1.97-4.94-3.75-6.93c-0.37-0.42-0.78-0.84-1.19-1.23
		c-0.42-0.41-0.86-0.81-1.32-1.19c-1.56-2.7-1.83-5.71-2.19-8.71c-1.8-15.41-4.5-30.58-12.38-44.3c-0.64-1.15-1.3-2.3-1.95-3.42
		c0,0-0.01,0-0.01-0.01c-0.45-0.78-0.91-1.55-1.38-2.31c-4.27-7.03-9.07-13.57-14.69-19.36c0.01-0.01,0-0.02-0.01-0.02
		c-0.5-0.52-1-1.02-1.52-1.52c-2.53-2.49-5.22-4.81-8.1-6.96c-2.59-1.93-5.33-3.71-8.25-5.34c-0.16-0.09-0.33-0.19-0.51-0.28
		c-0.2-0.11-0.4-0.22-0.61-0.34c-6.37-3.55-12.34-7.88-19.45-10.04c-1.37-0.53-2.77-0.86-4.19-1.21c-1.7-0.41-3.39-0.85-4.96-1.66
		c-0.05-0.02-0.09-0.04-0.14-0.05c-1.48-0.59-2.98-1.06-4.51-1.44c-2.78-0.7-5.63-1.08-8.51-1.28c-1.14-0.08-2.44,0.13-3.45-0.27
		c-0.17-0.06-0.32-0.14-0.48-0.24c-1.2-0.83-2.32-1.37-3.35-1.66c-4.12-1.2-6.99,1.42-9.71,4.54c-0.49,0.56-0.96,1.12-1.44,1.69
		c-0.01,0.01-0.02,0.03-0.03,0.04c-0.16,0.24-0.33,0.49-0.52,0.72c-0.38,0.54-0.81,1.04-1.25,1.53
		c-10.08,7.99-18.3,17.73-26.46,27.56l-0.01,0.01c-0.26,0.32-0.53,0.65-0.77,0.97c-1.44,1.78-2.76,3.62-4,5.49
		c-0.71,1.06-1.39,2.13-2.03,3.23c-4.65,7.77-7.98,16.17-10.52,24.97c-0.15,0.5-0.29,0.99-0.44,1.5c-0.01,0.04-0.02,0.08-0.03,0.12
		c-0.99,3.75-2.5,7.4-3.22,11.21c-0.31,1.64-0.49,3.31-0.39,5.03c0.01,0.36,0.04,0.74,0.08,1.11c-0.29,2.35-0.53,4.69-0.7,7.04
		c-0.04,0.65-0.09,1.3-0.13,1.96c-0.47,7.81-0.28,15.62,0.57,23.42c0.56,8.05,0.5,16.13,1.27,24.16c0.13,1.4,0.29,2.8,0.5,4.2
		c0,0.06,0.01,0.12,0.02,0.18c0.5,2.42,1.01,4.83,1.87,7.15c0.09,0.28,0.2,0.56,0.31,0.83c0,0.01,0.01,0.02,0.01,0.03
		c1.5,4.09,3.33,8.07,3.98,12.41c0.62,4.18,1.11,8.39-2.13,11.91c-0.27,0.24-0.56,0.47-0.85,0.66c-0.11,0.08-0.22,0.14-0.33,0.21
		c-0.02,0.01-0.04,0.02-0.06,0.03c-0.98,0.59-2.08,0.93-3.23,1.08c-0.12,0.02-0.23,0.03-0.34,0.06c-3.42,0.56-5.73,2.5-7.14,5.67
		c-0.53,1.16-1.16,2.21-1.96,3.14c-0.7,0.84-1.52,1.58-2.48,2.17h-0.01c-0.38,0.26-0.79,0.49-1.21,0.69
		c-7.92,3.36-15.61,7.15-22.73,11.98c-1.05,0.71-2.09,1.44-3.12,2.2c-0.01,0-0.01,0-0.01,0c-0.45,0.33-0.89,0.67-1.34,1.01
		c-9.74,7.01-16.6,16.6-23.08,26.41c-11.48,17.39-20.56,36.09-29.64,54.79c-0.94,1.94-1.89,3.89-2.84,5.85
		c-0.25,0.53-0.51,1.04-0.76,1.57c-5.34,11.31-11.56,22.2-16.37,33.76c-0.38,0.74-0.77,1.49-1.15,2.23c-3,5.8-5.87,11.64-8.28,17.7
		c-0.48,1.18-0.77,2.07-0.86,2.73c-0.1,0.79,0.1,1.25,0.67,1.51c0.5,0.22,1.28,0.29,2.41,0.26c0.25-0.01,0.53-0.02,0.82-0.03
		c1.23-0.06,2.47-0.1,3.7-0.14h0.05c0.03-0.01,0.06-0.01,0.1-0.01c4.91-0.14,9.82-0.13,14.74-0.09h0.13
		c0.06,0.01,0.12,0.01,0.17,0.01c2.89,0.03,5.79,0.07,8.68,0.09c0.14,0.02,0.28,0.04,0.43,0.06c0.07,0.01,0.14,0.01,0.2,0.03
		c0.08,0.01,0.16,0.02,0.23,0.04c0.58,0.09,1.13,0.21,1.69,0.38c0.97,0.28,1.91,0.7,2.77,1.32c0.1,0.1,0.18,0.21,0.23,0.31
		c0.02,0.02,0.03,0.05,0.04,0.07c0.15,0.34,0.11,0.7-0.14,1.07c0.01-0.35,0.02-0.72,0.02-1.07c-1.69-0.3-3.38-0.62-5.08-0.92
		c-10.04,0.07-20.08-0.62-30.12,0.47c-4.11,0.45-3.9-2.27-2.85-4.92c2.98-7.65,6.65-14.98,10.6-22.16
		c4.32-11.57,10.73-22.12,16.29-33.08c8.1-16.8,15.95-33.72,25.38-49.85c7.34-12.54,15.12-24.7,25.63-34.87
		c1.67-1.62,3.18-3.5,5.5-4.31c8.13-6.86,17.48-11.52,27.38-15.19c1.17-1.37,3.58-1.63,4-3.5c1.62-7.18,7.14-8.76,13.24-9.64
		c3.44-5.81,1.86-11.64,0.1-17.47c-0.67-2.23-1.53-4.4-2.3-6.59c-1.32-2.19-1.79-4.6-1.85-7.12c-2.41-9.57-1.6-19.36-2.13-29.06
		v-0.01c0-0.02,0-0.04-0.01-0.06c-1.29-11.22-1.7-22.43,0.16-33.64c-0.35-6.14,1.76-11.7,3.99-17.23
		c2.7-11.75,7.85-22.39,14.57-32.33c1.03-1.53,2.02-3.08,3.63-4.1c7.49-10.32,16.29-19.36,26.26-27.28c0.4-0.6,0.8-1.19,1.2-1.8
		c1.69-3.44,4.78-5.44,7.84-7.42c0.66-0.42,1.81-0.95,2.27-0.67c7.12,4.37,16,1.91,23.15,6.02c3.06,0.97,6.11,1.93,9.17,2.9
		c16.09,6.59,31.13,14.91,42.42,28.48c5.4,6.5,11.15,12.95,14.35,21.04c7.53,10.98,9.57,23.76,12.03,36.43
		c1.12,5.79,1.03,11.77,2.97,17.42c3.62,2.25,5.98,5.31,6.24,9.71c1.88,8.84,0.75,17.66-0.2,26.48c0.22,5.14,0.5,10.28,0.62,15.41
		c0.05,1.73,0.46,3.72-1.58,4.82c-5.34,1.17-6.95,4.48-6.09,9.73c0.46,2.74-0.01,5.64-0.06,8.48c1.01,4.33-1.31,9.17,2,13.16
		c11.69,4.8,24.21,6.87,36.07,11.17c13.11,4.75,23.74,12.29,30.08,25.06c8.29,13.87,16.87,27.57,23.15,42.52
		c9.51,17.5,15.9,36.14,20.1,55.56C398.35,341.58,400.33,348.53,399.95,355.88z"/>
	<path class="st1" d="M399.95,355.88c-0.16,3.16-0.83,5.93-3.21,8.12h-89.01c-6.75-0.84-13.49-0.84-20.24,0h-4.05
		c-1.72-1.56-3.83-0.98-5.8-0.99h-0.35c-2.16-0.01-4.31-0.01-6.47,0c-4.26,0-8.52,0.02-12.78,0.03c-6.72,0.02-13.43,0.02-20.14-0.08
		c-0.73-0.01-1.45-0.02-2.18-0.03c-12.09-0.22-11.16-0.85-8.08-12.02c0.17-0.64,0.54-1.22,0.55-2.24c-1.73-1.21-4.85,1.29-6.03-1.71
		c-0.93-2.35,0.05-4.64,0.38-6.95c0.12-0.83,0.54-1.69,0.39-2.48c-1.21-6.81,0.74-12.46,5.64-17.35c1.81-1.81,1.57-4.3,0.33-6.61
		c-1.68-3.16-3.89-5.82-7.02-8.13c-0.83,2.09,0.24,4.35-1.52,5.84c-1.83,1.57-4.06,1.41-6.22,1.61c-1.51,0.15-3.02,0.24-4.49,0.62
		c-1.27,0.31-2.32,1-1.95,2.44c1.46,5.78,0.42,12.72,8.08,15.49c3.55,1.28,4.53,4.36,2.61,7.87c-2.36,4.31-3.19,9.21-5.47,13.55
		c-1.09,2.07-1.5,4.09,2.09,3.58c2.27-0.32,3.65,0.65,3.8,2.92c0.18,2.73-2.04,2.59-3.82,2.89c-0.32,0.06-0.67,0.05-1.01,0.05
		c-0.88-0.01-1.75-0.01-2.62-0.01h-0.18c-8.66-0.05-17.31,0.12-25.97,0.31c-0.07,0-0.14,0.01-0.2,0.01
		c-6.11,0.13-12.23,0.27-18.35,0.36c-6.7,0.1-13.41,0.14-20.11,0.03c-0.73-0.01-1.47-0.02-2.2-0.04c-1.16-0.03-2.37,0.09-3.4-0.66
		c0-0.16-0.01-0.33-0.01-0.5c0-0.01,0-0.01,0-0.02c-0.1-5.13,0.72-10.21,0.66-15.36c-0.07-7.25-0.97-14.41-1.26-21.63
		c-0.05-1.18-0.26-2.35-0.74-3.44c-1.06-2.44-3.1-2.74-3.98-0.48c-2.7,6.96-6.81,13.61-5.81,21.55c0.41,3.35,1.57,6.53,2.42,9.79
		c0.83,3.15,1.87,6.46-0.18,9.42c-0.05,0.07-0.1,0.14-0.15,0.21c-0.19,0.26-0.41,0.53-0.67,0.78c-6.13,0.72-12.29,0.21-18.44,0.31
		c-1.57,0.01-3.14,0.07-4.7,0.2c-0.53,0.04-1.04,0.09-1.56,0.15c-2.78,0.26-5.57,0.28-8.34-0.02c-2.3-0.18-4.59-0.27-6.89-0.31
		c-3.4-0.07-6.8-0.01-10.2,0.02c-0.18,0-0.35,0-0.54,0.01c-2.53,0.02-5.06,0.03-7.59-0.04c-1.43-0.04-2.87,0.17-4.28-0.06
		c-0.35-0.05-0.71-0.14-1.05-0.26c-0.11-0.04-0.21-0.08-0.32-0.12c-0.1-0.04-0.2-0.09-0.3-0.14c-0.16-0.19-0.31-0.38-0.46-0.58
		c-0.11-0.18-0.22-0.36-0.32-0.54c-1.23-2.21-0.96-4.73-0.56-7.07c3.11-18.13,2.29-36.61,4.74-54.79c0.12-0.95,0.26-1.9,0.4-2.85
		c0.09-0.42,0.19-0.84,0.28-1.26c0.11-0.5,0.22-1,0.32-1.5c0.21-0.97,0.42-1.95,0.63-2.93c2.59-12.54,4.53-25.24,8.64-37.48
		c1.77-5.25,5.05-9.78,6.29-15.31c0.77-3.4,3.44-3.35,5.38-0.34c1.11,1.73,1.81,3.73,1.84,5.71c0.16,10.1,0.24,20.26-6.37,28.87
		c-1.88,2.44-3.26,5.07-4,8.06c-0.89,3.61-0.1,4.64,3.67,4.06c2.82-0.45,5.67-0.74,8.5-1.17c1.93-0.3,3.8,0.05,4.74,2.03
		c1.06,2.26-0.23,3.84-1.85,5.23c-0.89,0.77-2,1.25-2.89,2.02c-2.86,2.45-2.67,4.5,0.96,5.68c3.03,0.99,2.82,2.29,1.34,4.33
		c-1.48,2.03-3.73,4.25-0.34,6.28c3.29,1.97,5.29-0.5,7.05-2.88c0.71-0.97,1.13-2.18,0.92-3.34c-1.38-7.39,3.04-13.65,3.9-20.6
		c0.04-0.32,0.2-0.65,0.35-0.94c0.98-1.93,1.77-4.56,4.35-4.29c2.98,0.31,3.19,3.19,3.24,5.51c0.14,6.67-0.65,13.11-5.02,18.59
		c-1.26,1.59-2.3,3.33-2.6,5.4c-0.41,2.85-1.85,5.19-4.28,6.54c-4.28,2.39-4.08,5.79-2.54,9.52c1.07,2.6,1.45,6.5,4.12,7.12
		c3.18,0.75,5.19-2.88,6.71-5.26c5.67-8.84,14.46-14.47,21.65-21.71c1.95-1.96,3.86-3.77,4.36-6.57c1.62-8.9,5.1-16.69,10.81-23.99
		c3.82-4.91,6.88-10.92,7.04-18c0.09-4.27,0.48-9.41,5.56-11.7c0.11-0.05,0.22-0.09,0.33-0.14h0.15c0.49,0.01,1.1,0.01,1.27,0.32
		c2.84,5.04,8.8,7.61,10.47,13.63c1.07,3.89,5.67,7.58,9.45,7.08c4.42-0.59,8.44,0.55,12.28,1.97c3.46,1.27,6.71,1.63,10.11,0.87
		c0.29-0.07,0.59-0.14,0.88-0.22c0.08-0.02,0.16-0.05,0.24-0.07c2.15-0.18,4.15,0.65,6.24,0.84c0.09,0,0.17,0.01,0.26,0.01
		c2.74,0.13,5.5,0.09,8.26,0.08c0.53,0,1.03,0,1.52,0.01c0,0,0.01,0.01,0.02,0c2.91,0.09,5.21,0.75,6.29,4.89
		c1.04,3.96,5.42,2,8.33,1.86c3.09-0.15,4.95-2.11,4.48-5.4c-0.47-3.3-0.01-6.1,2.77-8.1c0.11-0.08,0.23-0.16,0.35-0.24
		c0.09-0.04,0.19-0.07,0.28-0.12c0.23-0.09,0.47-0.19,0.7-0.3c0.25-0.11,0.5-0.22,0.75-0.34c3.1-1.53,6.02-3.47,10.03-2.36
		c2.45,0.68,3.95-1.7,4.43-3.91c1.36-6.08,3.29-11.87,6.52-17.12c0.58-0.94,1.19-1.86,1.87-2.77c0.14-0.21,0.3-0.41,0.46-0.62
		c2.4-3.72,3.95-7.8,5.37-11.91c0.01-0.02,0.03-0.05,0.03-0.08c0.28-0.73,0.54-1.48,0.78-2.24c0.01-0.04,0.02-0.08,0.04-0.12
		c0.45-1.3,0.9-2.6,1.38-3.88c0.48-1.28,0.98-2.55,1.55-3.79c0.02-0.06,0.04-0.11,0.07-0.17c0.1-0.12,0.2-0.23,0.29-0.34
		c0.2-0.23,0.39-0.45,0.59-0.65c3.15-3.42,4.99-3.42,8.63-0.21c2.18,1.91,4.54,3.38,7.12,4.67c4.87,2.43,9.2,5.71,12.47,10.05
		c4.49,5.97,10.52,10.33,15.75,15.51c2.61,2.59,6.51,3.43,10.03,4.51c5.16,1.6,8.04,4.89,7.9,10.3c-0.12,4.36,1.96,6.01,6.01,6.22
		c4.41,0.22,7.57,2.15,8.92,6.74c0.85,2.9,3.02,5.22,4.52,7.83c1.7,2.95,3.19,5.58,7.36,3c1.2-0.74,2.56-0.39,3.82,0.31
		c0.61,0.34,1.18,0.77,1.72,1.19c9.51,17.5,15.9,36.14,20.1,55.56C398.35,341.58,400.33,348.53,399.95,355.88z"/>
	<path class="st2" d="M106.41,362.87c5.5-1.87,11.17-0.5,16.75-0.88c2.82-0.19,5.66-0.09,8.49-0.12c3.1-1.8,6.21-2.1,9.33-0.04
		c12.64,0.01,25.33,0.68,37.91-0.16c11.96-0.8,23.89-0.39,35.82-0.76c1.06-0.03,2.53,0.71,3.11-0.72c0.26-0.64-0.01-1.78-0.47-2.36
		c-1.05-1.34-2.13-0.06-3.11,0.34c-1.29,0.54-2.49,1.13-3.72-0.05c-1.33-1.28-0.31-2.61,0.14-3.73c2.1-5.27,4.1-10.6,6.64-15.67
		c1.63-3.25,0.96-5.21-2.18-6.27c-5.26-1.77-8.3-4.89-7.58-10.78c0.06-0.48-0.12-1-0.24-1.48c-1.98-8.4-1.98-8.49,6.59-8.74
		c4.38-0.13,9.02,0.37,5.28-6.37c-0.23-0.41,0.02-1.36,0.38-1.78c0.68-0.81,1.59-0.33,2.27,0.11c4.49,2.96,7.91,7.07,9.67,11.97
		c1.43,3.98-2.18,6.87-4.66,9.44c-2.65,2.73-3.52,5.22-2.31,9c1.09,3.41-0.77,6.89-1.42,10.33c-0.22,1.17-0.68,2.41,0.48,3.23
		c0.97,0.68,1.91,0.02,2.75-0.59c1.31-0.95,2.88-1.65,4.04-0.17c1.08,1.38,0.37,3-0.89,4.03c-3.25,2.66-0.06,7.1-3.52,9.81
		c9.11,2.3,17.72,1.23,26.26,1.39c8.93,0.17,17.87,0.05,26.8,0.15c1.67,0.02,3.93-0.83,4.43,1.99c-1.01,0-2.02,0-3.03,0
		c-3.86-1.16-7.82-0.21-11.73-0.52c-12.22,0-24.44,0-36.66,0c-17.61-0.5-35.22-0.95-52.84,0c-11.71,0-23.42,0-35.13,0
		c-6.13,0-12.26,0-18.4,0C119.26,363.14,112.8,364.2,106.41,362.87z"/>
	<path class="st3" d="M179.27,362.97c17.54-1.28,35.08-0.72,52.61-0.04c0.32,0.24,0.43,0.48,0.32,0.72
		c-0.11,0.23-0.22,0.35-0.33,0.35c-17.53,0-35.06,0-52.6,0c-0.33-0.23-0.44-0.46-0.33-0.68
		C179.05,363.09,179.16,362.97,179.27,362.97z"/>
	<path class="st4" d="M106.41,362.87c6.44,0.08,12.89,0.16,19.33,0.24c0.28,0.22,0.36,0.43,0.24,0.62
		c-0.11,0.18-0.21,0.27-0.32,0.27c-14.84,0-29.67,0-44.51,0c-0.35-0.67-0.17-1.15,0.54-1.43c5.55,0.07,11.11-0.5,16.65,0.32
		C101.04,362.88,103.72,362.88,106.41,362.87z"/>
	<path class="st5" d="M231.87,364c0-0.36,0.01-0.71,0.01-1.07c12.46,0.05,24.92,0.1,37.37,0.15c0.35,0.19,0.48,0.39,0.37,0.6
		c-0.11,0.21-0.22,0.32-0.33,0.32C256.82,364,244.35,364,231.87,364z"/>
	<path class="st6" d="M179.27,362.97c0,0.34,0,0.68,0,1.03c-11.8,0-23.6,0-35.4,0c-0.33-0.22-0.44-0.44-0.33-0.66
		c0.11-0.22,0.23-0.32,0.34-0.32C155.68,363,167.48,362.99,179.27,362.97z"/>
	<path class="st7" d="M68.01,364H38.67c0.01-0.35,0.02-0.72,0.02-1.07c0.03-0.02,0.05-0.05,0.08-0.07c0.35-0.31,0.68-0.73,1.15-0.76
		c1.88-0.12,3.76-0.25,5.65-0.37c4.69-0.28,9.39-0.47,14.07-0.17c0.04,0,0.09,0,0.14,0.01c0.82,0.05,1.63,0.12,2.45,0.21
		c1.7,0.16,3.39,0.41,5.09,0.75c0.02,0,0.04,0.01,0.06,0.01c0.1,0.03,0.18,0.07,0.26,0.11c0.2,0.1,0.34,0.23,0.41,0.38
		c0,0,0.01,0,0.01,0.01C68.22,363.29,68.19,363.61,68.01,364z"/>
	<path class="st8" d="M287.5,364c6.74-1.82,13.49-1.54,20.23,0C300.99,364,294.25,364,287.5,364z"/>
	<path class="st9" d="M143.88,363.02c-0.01,0.33-0.01,0.65-0.01,0.98c-6.07,0-12.14,0-18.21,0c0-0.3,0.03-0.6,0.08-0.89
		C131.79,363.08,137.84,363.05,143.88,363.02z"/>
	<path class="st10" d="M68.01,364c0-0.32,0-0.64-0.01-0.96c4.37-0.83,8.73-0.95,13.08,0.08c0.04,0.29,0.07,0.59,0.08,0.88
		C76.78,364,72.4,364,68.01,364z"/>
	<path class="st11" d="M269.3,364c0-0.31-0.01-0.61-0.04-0.92c3.75-0.1,7.57-0.91,11.16,0.92C276.71,364,273,364,269.3,364z"/>
	<path class="st12" d="M288.77,156.82c-3.17,3.07-2.25,6.62,1.32,9.25c0.31,0.23,0.65,0.47,0.93,0.72c0.55,0.51,0.89,1.11,0.55,2.08
		c-5.34,1.17-6.95,4.48-6.09,9.73c0.46,2.74-0.01,5.64-0.06,8.48c-0.59,0.77-0.83,1.96-1.32,2.86c-0.46,0.82-1.11,1.39-2.43,1.16
		c-2.38-0.4-2.53-2.93-2.95-4.85c-0.73-3.28-1.51-6.52-2.4-9.77c-2.11-7.76-8.06-11.66-14.21-15.57c-1.88-1.19-3.73-1.03-5.81-0.53
		c-6.81,1.68-13.06,1.78-18.56-4.11c-3.89-4.18-7.97-2.04-10.4,4.82c-0.06,0.15-0.11,0.3-0.16,0.47c-0.01,0.16-0.03,0.32-0.06,0.49
		c-0.02,0.2-0.06,0.41-0.1,0.62c-0.02,0.13-0.05,0.25-0.08,0.38c-0.03,0.13-0.07,0.26-0.11,0.38c-0.18,0.58-0.47,1.1-0.93,1.52
		c-0.01,0.01-0.02,0.02-0.03,0.03h-0.05c-2.87,0.01-3.36-2.3-4.01-4.33c-1.45-4.62-1.7-9.59-4.18-13.91
		c-0.87-1.52,0.15-2.55,1.3-3.37c1.86-1.34,2.04-2.97,0.89-4.81c-2.12-3.41-3.82-7.12-6.58-10.11c-4.4-4.77-8.72-3.94-11.05,2.18
		c-1.18,3.14-1.74,6.56-4.49,8.84c-1.2,1-2.19,2.87-4.19,2.01c-0.01,0-0.02,0-0.03-0.01c-0.12-0.05-0.25-0.12-0.38-0.19
		c2.48-7.06,4.91-14.14,9.78-20.04c0.77-0.93,1.8-1.79,3.01-1.64c3.63,0.43,7.12,1.13,10.92,0.37c1.47-0.29,2.3,0.7,2.72,2
		c0.25,0.75,0.37,1.6,0.4,2.37c0.08,1.81,0.27,3.54,0.78,5.23c0.3,1,0.71,1.98,1.26,2.96c1.46,2.53,3.22,4.24,5.81,4.74
		c0.4,0.08,0.82,0.13,1.26,0.15c0.16,0.01,0.32,0.01,0.5,0.01c10.49,3.87,16.28,1.92,22.51-7.44c1.7-2.55,1.51-4.96,0.2-7.49
		c0-0.01-0.01-0.01-0.01-0.02c-0.09-0.13-0.17-0.26-0.26-0.39c-0.24-0.38-0.47-0.78-0.66-1.18c-0.06-0.1-0.1-0.2-0.15-0.3
		c-0.02-0.06-0.04-0.12-0.06-0.18c-0.6-1.79-0.25-3.07,1.57-3.59c0.14-0.05,0.3-0.08,0.47-0.11c0.02-0.01,0.05-0.01,0.08-0.02
		c1.54,0.16,2.57,1.13,3.54,2.18c0.07,0.07,0.13,0.15,0.2,0.22c0.06,0.1,0.12,0.2,0.19,0.29c1.1,1.62,2.97,1.46,4.64,1.78
		c1.75,0.34,3.64,0.64,3.63,3c0,0.06-0.01,0.11-0.01,0.17v0.07c-1.32,1.92-5.93,0.52-5.15,3.48c0.75,2.85,4,4.78,7.19,5.67
		c1.14,0.31,2.33-0.09,3.49-0.27c7.81-1.21,10.81,1.14,11.44,8.98c0.02,0.28,0.03,0.58,0.03,0.86c0.01-0.27,0.03-0.55,0.05-0.81
		c0.34-4.3,1.77-5.03,5.71-2.78c0.99,0.57,1.48,0.33,2.06-0.38c0.03-0.06,0.07-0.12,0.09-0.18c0.07-0.12,0.13-0.24,0.19-0.37
		c1.47-3.17,0.36-6.57,0.67-9.84c0.16-1.84-0.11-3.71,0.52-5.51c0.03-0.07,0.06-0.13,0.1-0.19c0.08-0.16,0.18-0.31,0.29-0.45
		c0.05-0.05,0.1-0.1,0.15-0.14c0.13-0.13,0.28-0.24,0.46-0.34c1.88,8.84,0.75,17.66-0.2,26.48c-0.29,1.72-0.64,3.32-1.35,4.81
		c0,0,0.01,0.01,0,0.01C290.64,154.64,289.88,155.75,288.77,156.82z"/>
	<path class="st13" d="M376.71,278.99c-0.38,0.04-0.78,0.02-1.17-0.02c-2.38-0.27-4.88-1.61-6.91,1.6c-0.91,1.44-2.82-0.3-3.6-1.54
		c-2.42-3.81-5.49-7.49-6.76-11.7c-1.57-5.21-5.17-6.33-9.34-6.31c-4.56,0.03-5.83-1.93-5.84-6.05c-0.04-7.24-0.92-8.28-8.16-10.43
		c-6.56-1.94-11.46-6.28-16.32-10.78c-7.94-7.38-13.54-17.53-24.84-21c-1.15-0.35-2.08-1.68-2.94-2.7c-2.93-3.48-5.7-3.89-8.38,0.24
		c-0.23-0.27-0.44-0.54-0.59-0.8c-0.09-0.15-0.17-0.3-0.23-0.45c-0.61-1.41-0.2-2.81,0.82-4.22c0.08-0.07,0.16-0.14,0.24-0.2
		c0.1-0.09,0.21-0.18,0.32-0.24c0.14-0.12,0.29-0.22,0.45-0.29c1.58-0.93,3.29-0.87,5.04,0.04c2.97,1.55,6.16,2.56,9.09,4.29
		c4.16,2.47,8.53,4.55,13.57,5c14.81,1.31,27.32,6.99,37.34,17.2c1.76,1.8,3.46,3.74,5.07,5.84
		C361.85,250.34,370.43,264.04,376.71,278.99z"/>
	<path class="st14" d="M289.94,121.36c0,0.14,0,0.28-0.01,0.42c-0.06,2.47-0.47,4.77-3.15,5.93c-0.01,0-0.02,0.01-0.03,0.01
		c-0.06-0.03-0.11-0.06-0.17-0.09c-6.96-3.54-5.62-9.63-4.3-15.97c-3.45,3.64-5.02,3.46-7.04-0.63c-2.15-4.34-3.13-9.13-6.01-13.27
		c-2.36-3.37-4.75-6.43-8.28-8.54c-0.08-0.14-0.15-0.28-0.19-0.43c-0.04-0.09-0.07-0.18-0.08-0.28c-0.1-0.42-0.07-0.87,0.06-1.32
		c0.11-0.14,0.2-0.27,0.28-0.4c0.02-0.03,0.03-0.05,0.05-0.07V86.7c0.92-1.53,0.22-2.57-1.43-3.43c-1.14-0.59-2.5-0.91-3.41-1.88
		c-0.06-0.07-0.13-0.14-0.19-0.22c-0.15-0.19-0.28-0.41-0.39-0.66c-0.1-0.58-0.04-1.1,0.25-1.55c0.03-0.05,0.07-0.11,0.11-0.16
		c0.1-0.11,0.2-0.22,0.33-0.32c3.05-0.47,5.97-0.13,8.74,1.06c0.32,0.12,0.64,0.27,0.95,0.43c0.08,0.04,0.16,0.08,0.24,0.12
		c2.72,2.94,5.89,5.63,7.31,9.5c1.39,3.79,2.89,7.51,4.56,11.21c-1.45-3.96-1.71-8.25-1.64-12.26c0.18-10.47-5.83-18.09-11.08-25.94
		c-3.5-5.24-7.31-10.41-11.54-15.16c-1.26-1.42-2.35-3.17-4.5-2.48c-3.97,1.26-7.24,0.28-10.46-3.12c-0.81,2.85-1.39,5.04,1.44,6.3
		c1.82,0.82,4.38,1.06,3.96,3.71c-0.49,3.03-3.36,2.77-5.65,3.08c-0.78,0.1-1.58,0.19-2.38,0.27c-0.05,0-0.09,0.01-0.14,0.01
		c-1.11,0.47-2.23,0.87-3.35,1.19c-5.4,1.62-10.85,1.66-16.62,0.15c-5.28-1.4-10.96-0.35-16.46-0.5c-2.17-0.05-4.35,0.18-6.43-0.64
		c-0.44-0.3-0.72-0.58-0.87-0.84c-0.61-0.97,0.44-1.66,1.5-1.87c5.84-1.17,11.64-3.17,17.73-2c1.86,0.35,3.68,0.59,5.46-0.06
		c2.76-1,5.5-1.37,8.4-0.59c1.48,0.38,3.09,0.56,3.99-1.15c0.85-1.63,0.14-3.02-1.08-4.04c-3.19-2.62-2.49-5.47-0.08-7.8
		c3.63-3.5,4.52-7.17,2.29-11.71c-0.56-1.13-0.73-2.51-0.22-3.81c0.01-0.04,0.02-0.08,0.04-0.12c0.04-0.05,0.09-0.1,0.14-0.15
		c0.86-0.92,2.2-1.37,3.17-1.27c0.51,0.05,0.92,0.25,1.1,0.61c0,0.01,0.01,0.01,0.01,0.02c1.77,3.49,5.28,3.96,8.25,5.34
		c0.8,0.36,1.56,0.79,2.23,1.37c2.5,2.12,4.84,4.27,6.99,6.66c0.14,0.15,0.27,0.3,0.4,0.46c0.01,0,0.02,0.01,0.01,0.02
		c0.07,0.07,0.13,0.14,0.19,0.21c1.45,1.65,2.81,3.43,4.08,5.38c3.09,4.77,6.7,9.33,10.42,13.77c1.35,1.6,2.7,3.19,4.05,4.76
		c7.53,10.98,9.57,23.76,12.03,36.43c1.12,5.79,1.03,11.77,2.97,17.42c0.6,0.8,1.02,1.66,1.37,2.56
		C288.63,117.1,288.97,119.35,289.94,121.36z"/>
	<path class="st15" d="M78.16,256.94c0.03,0.59-0.04,1.19-0.17,1.8c-1.96,5.1-2.22,10.51-2.95,15.84c-0.31,1.39-0.6,2.77-0.88,4.17
		c-0.2,1.01-0.4,2.03-0.63,3.04c-0.08,0.45-0.18,0.88-0.27,1.32c-0.09,0.53-0.23,1.03-0.4,1.54c-0.33,0.67-0.6,1.35-0.79,2.03
		c-0.61,2.14-0.64,4.38-0.77,6.59c-0.04,0.68-0.09,1.35-0.17,2.01c-0.01,0.07-0.02,0.15-0.03,0.22c-0.17,1.27,0,2.92-0.66,3.89
		c-0.33,0.51-0.89,0.82-1.82,0.8c-2.91-0.05-2.92-2.89-2.57-5.04c1.09-6.66,1.07-13.39,1.9-20.06c0.12-1,0.34-1.99,0.34-3
		c-0.01-0.99,0.13-2.19-0.93-2.65c-1.17-0.51-1.78,0.62-2.4,1.37c-0.97,1.16-1.72,2.5-2.22,3.93c-1.5,4.3-3.57,7.92-8.52,9.05
		c-2.01,0.47-2.84,2.39-3.14,4.24c-2.29,14.24-7.98,27.63-9.43,42.18c-1.02,10.23-4.5,20.23-7.27,30.24c0,0,0,0.01-0.01,0.01
		c-0.08,0.13-0.18,0.25-0.28,0.35c-0.05,0.05-0.11,0.11-0.17,0.14c-0.04,0.05-0.1,0.09-0.15,0.13c-0.04,0.03-0.09,0.05-0.14,0.08
		c-0.16,0.09-0.34,0.17-0.54,0.22c-2.74,0.05-5.48,0.12-8.23-0.03c-0.18-0.22-0.32-0.46-0.44-0.68c-0.01-0.01-0.02-0.02-0.02-0.04
		c-0.01-0.02-0.02-0.04-0.03-0.06c-0.79-1.73,0.38-3.33,1.03-4.8c4.89-11.2,8.07-22.72,8.13-35.08c0.02-4.33,1.33-8.62,2.11-12.92
		c0.34-1.87,1.25-3.88-0.41-5.66c-6.24,4.81-22.02,40.7-25.84,58.56c-0.01,0.01-0.01,0.03-0.01,0.04c-0.04,0.17-0.08,0.34-0.11,0.51
		c-0.98,0.3-1.98,0.21-2.98,0.2c-1.91-0.02-3.18-0.25-3.88-0.84c-0.44-0.35-0.65-0.85-0.67-1.51c-0.02-0.86,0.31-2.01,0.96-3.52
		c2.87-6.72,6.39-13.16,8.54-20.19c4.32-11.57,10.73-22.12,16.29-33.08c1.87-2.03,3-4.67,4.47-7.04c1.21-1.94,2.66-3.69,4.95-4.76
		c0.09-0.04,0.18-0.08,0.27-0.12c0.22-0.04,0.45-0.06,0.65-0.08c2.99-0.27,3.88,1.45,3.55,4.43c-0.59,5.33-0.32,10.74-1.17,16.09
		c1.4-3.82,2.42-7.78,2.73-11.76c0.27-3.52,1.09-6.91,1.82-10.33c0.41-1.99,0.81-3.98,1.04-6.01c0.31-2.74,1.2-5.31,2.75-7.48
		c1.4-1.98,3.34-3.62,5.88-4.74c2.63-1.15,4.44-3.02,5-5.9c0.57-2.93,2.32-5.2,4.06-7.46c3.03-3.95,4.94-4.63,8.71-1.53
		c2.54,2.08,3.24-1.54,4.91-0.89c0.01,0,0.02,0.01,0.04,0.02c0.06,0.02,0.12,0.05,0.19,0.09c0.23,0.3,0.4,0.63,0.53,0.95
		C78.06,256.16,78.14,256.55,78.16,256.94z"/>
	<path class="st16" d="M271.47,58.61c-0.9-0.81-1.79-1.62-2.66-2.45c0,0-0.01,0-0.01-0.01c-6.11-5.75-11.57-12.04-14.91-19.97
		c-0.19-0.46-0.53-0.96-0.96-1.49c-0.06-0.07-0.12-0.14-0.19-0.21c0.01-0.01,0-0.02-0.01-0.02c-0.13-0.15-0.26-0.3-0.4-0.46
		c-0.33-0.34-0.71-0.7-1.11-1.06c-3.82-3.41-10.47-7.1-13.56-7c-0.99,0.03-2.59,0.42-2.24-0.88c1.32-4.97-2.16-3.64-4.58-3.77
		c-0.14,0.1-0.28,0.19-0.44,0.27c-2.78,1.7-5.85,0.98-8.82,0.69c-1.79-0.18-3.39-1.23-3.32-3.19c0.12-3.56-2.09-3.49-4.6-3.61
		c-4.78-0.23-9.79,1.13-14.21-1.92c-0.83-0.58-1.68-0.34-2.07,0.57c-1.77,4.07-5.45,3.6-8.68,3.34c-2.86-0.22-5.53-0.06-8.03,0.46
		c-0.01,0-0.02,0-0.02,0c-1.23,0.25-2.42,0.59-3.57,1c-5.7,2.03-10.46,5.98-14.65,11.16c-0.76,0.94-1.48,1.91-2.73,2.07
		c-4.48,0.58-4.21,3.07-2.34,5.99c2.07,3.22,3.04,6.67,3.09,10.47c0.05,3.24,0.98,6.28,2.66,9.07c1.93,3.22,5.81,0.96,8.2,2.91
		c-0.02,0.04-0.03,0.07-0.06,0.11c0,0.01-0.01,0.03-0.02,0.04c-1.89,3.77-9.07,5.22-12.83,2.45c-1.2-0.89-2.32-1.89-3.29-3.03
		c-0.39-0.46-0.76-0.94-1.1-1.45c-0.12-0.17-0.23-0.34-0.34-0.52c-1.49-7.6-3.25-8.97-11.01-8.63c-1.51,0.06-3.24,0.29-4.01-1.28
		c-0.05-0.11-0.1-0.22-0.13-0.32c-0.54-1.58,0.85-2.58,2.03-3.23c2.39-1.27,3.48-3.21,4-5.49c0.14-0.61,0.23-1.23,0.3-1.88
		c7.49-10.32,16.29-19.36,26.26-27.28c0.8-0.62,1.62-1.16,2.45-1.63c4.27-2.45,8.9-3.09,14.26-3.12c5.9-0.01,11.59,0.7,17.22,1.74
		c3.24,0.59,6.47,1.29,9.7,2.03c16.09,6.59,31.13,14.91,42.42,28.48C262.53,44.07,268.28,50.52,271.47,58.61z"/>
	<path class="st17" d="M180.46,87.63c-0.41,0.8-1.1,1.39-1.93,1.49c-6.8,0.82-12.36,4.94-18.69,6.94c-5.41,1.72-9.63,5.33-14.5,7.88
		c-2.76,1.45-3.23,4.14-2.63,6.98c1.22,5.79-0.28,11.3-1.56,16.84c-0.29,1.24-0.47,2.74-2.26,2.88c-0.02-0.04-0.04-0.07-0.06-0.11
		c-0.01-0.01-0.02-0.03-0.02-0.04c-2.42-4.23-1.38-8.63-0.46-12.99c0.4-1.95,1.35-3.85-0.6-5.99c-3.04,4.02-3.81,8.14-2.92,13.04
		c0.8,4.39,1.48,8.86,1.41,13.66c0.92-2.04-0.74-5.24,2.46-5.62c0.04-0.01,0.07-0.01,0.11-0.01c0.19-0.02,0.4-0.03,0.64-0.03
		c1.43,1.18,1.72,2.84,1.75,4.52c0.1,5.49,0.13,10.97,0.91,16.44c0.38,2.73-0.68,5.25-2.21,7.52c-0.34,0.39-0.72,0.7-1.1,0.92
		c-0.08,0.04-0.15,0.09-0.23,0.12c-1.35,0.67-2.89,0.46-4.45,0.15c-0.06-0.15-0.1-0.3-0.14-0.47c-0.02-0.08-0.04-0.17-0.05-0.25
		c-0.41-2.3,0.57-5.37-3.1-5.84c-0.02-0.01-0.05-0.01-0.08-0.01c-0.12-0.02-0.24-0.03-0.37-0.04c-0.17-0.27-0.33-0.58-0.37-0.89
		c-0.25-1.98-0.49-4.35-2.83-4.58c-1.5-0.16-1.35,1.36-1.69,2.51c-0.15,0.48-0.38,0.9-0.86,1.11c-2.41-9.57-1.6-19.36-2.13-29.06
		v-0.01c0-0.02,0-0.04-0.01-0.06c-0.75-7.45-0.16-14.92-0.31-22.37c-0.03-1.45,0.37-2.57,1.11-3.36c0.82-0.9,2.06-1.36,3.55-1.39
		c2.84-0.06,2.72,2.2,2.62,4.33c-0.02,0.47,0,0.92,0.05,1.38c0.17,1.46,0.69,2.85,1.23,4.22c0.02,0.05,0.04,0.11,0.06,0.16
		c0.53,0.6,0.76,1.75,1.7,1.63c0.98-0.12,0.91-1.25,1.08-2.03c0.18-0.82,0.27-1.65,0.53-2.46c0.24-0.73,0.53-1.45,0.92-2.04
		c0.29-0.45,0.65-0.83,1.09-1.11c0.45-0.28,0.99-0.47,1.65-0.51c4.09-0.23,7.01-2.6,9.97-4.93c0.35-0.28,0.72-0.57,1.08-0.85
		c0.1-0.07,0.19-0.15,0.29-0.22c8.94-4.25,17.75-8.88,27.54-10.99c0.12,0.01,0.23,0.03,0.34,0.05c0.05,0.01,0.1,0.02,0.15,0.03
		c0.32,0.08,0.63,0.2,0.91,0.35c-0.01,0.16,0.01,0.31,0.04,0.45c0.02,0.08,0.04,0.16,0.08,0.24c0.33,0.81,1.35,1.11,1.92,1.75
		c0.03,0.03,0.06,0.06,0.08,0.1C180.31,87.23,180.41,87.41,180.46,87.63z"/>
	<path class="st18" d="M287.41,200.24c-0.42-0.06-0.79-0.04-1.1,0.05h-0.01c-1.31,0.35-1.69,1.8-2.38,2.9
		c-0.16,0.14-0.31,0.28-0.47,0.42c-0.18,0.19-0.34,0.39-0.49,0.61c-0.1,0.13-0.19,0.27-0.27,0.41c-0.76,1.34-0.87,2.89-1.06,4.42
		c-0.03,0.32-0.08,0.65-0.13,0.96c-0.15,0.91-0.38,1.79-0.85,2.59c-0.21,0.41-0.44,0.83-0.7,1.2c-0.1,0.16-0.21,0.3-0.32,0.45
		c-0.35,0.43-0.76,0.8-1.22,1.02c-0.55,0.25-1.19,0.3-1.95,0.06c-2.35-0.75-2.22-3.05-2.19-5.11c0.14-6.9-0.04-13.72,1.18-20.68
		c1.29-7.26-3.05-13.86-6.09-20.36c-0.81-1.73-2.76-2.33-4.57-2.86c-5.92-1.76-11.98-1.31-17.99-0.98c-2.88,0.16-4.54,1.58-2.4,4.62
		c1.13,1.61,1.72,3.26,0.77,5.15c0.01,0.05,0.02,0.11,0.03,0.16c0.06,0.3,0.13,0.61,0.22,0.89c1.08,3.86,4.27,6.08,7.26,8.46
		c0.19,0.14,0.37,0.28,0.56,0.43c0.25,0.21,0.5,0.42,0.74,0.66l0.01,0.01c0.57,0.52,1.1,1.06,1.65,1.61
		c5.14,5.11,5.59,6.15,0.64,9.44h-0.01c-0.38,0.25-0.79,0.52-1.23,0.8c-0.18,0.11-0.36,0.22-0.56,0.34
		c-2.61,1.34-4.55,3.89-7.73,4.18c-0.18-0.05-0.36-0.1-0.55-0.14c-1.47-0.41-2.9-0.91-4.36-1.32c-1.73-0.49-3.48-0.85-5.3-0.77
		h-0.01c-1.21,0.06-2.47,0.31-3.76,0.85c-1.19,0.51-2.64-0.48-3.94-1.45c-0.32-0.24-0.64-0.49-0.93-0.71
		c-0.04-0.09-0.08-0.17-0.12-0.25v-0.01c0-0.03-0.01-0.05-0.02-0.07c-0.45-1.32,0.47-2.24,1.51-2.24c3.97-0.02,7.94-1.83,11.93-0.07
		c0.91,0.4,1.9,0.74,2.91,0.71c3.39-0.12,6.69-1.54,8.05-4.31c1.24-2.53-2.37-3.48-3.92-5.06c-0.7-0.72-1.61-1.26-2.19-2.07
		c-2.18-3.01-4.18-4.32-6.62-0.12c-1.1,1.9-3.11,2.49-5.28,1.44c-0.08-0.15-0.14-0.29-0.19-0.43c-0.01-0.02-0.01-0.05-0.02-0.07
		c-0.69-2.3,2.89-3.37,1.83-6.03c-2.08,0.05-5.04,0.89-5.17-2.92c0.01-0.06,0.04-0.12,0.07-0.18c0.04-0.11,0.1-0.2,0.19-0.29
		c0.25-0.29,0.67-0.52,1.09-0.73c0.96-0.47,1.97-0.9,1.52-2.09c-0.11-0.29-0.31-0.64-0.63-1.03c-2.23-2.69-6.77-3.3-7.04-7.72
		c-0.01-0.05-0.01-0.11-0.01-0.17c0-0.68,0.01-1.36,0.01-2.03c0.45-0.16,0.84-0.18,1.2-0.11c1.35,0.24,2.25,1.7,3.63,1.94
		c-0.57-1.97-2.04-2.28-3.53-2.56c-0.45-0.08-0.89-0.16-1.31-0.27c0.46-4.16,2.56-7.53,6.35-8.85c3.62-1.24,6.12,1.59,8.5,4.13
		c4.65,4.97,10.44,3.37,15.78,1.83c2.62-0.76,4.23-0.26,6.44,0.89c10.38,5.42,15.6,14.02,16.88,25.47c0.18,1.63-0.1,4.27,1.76,4.96
		c1.53,0.57,1.86-0.97,2.56-2.09c0.31-0.52,0.71-0.94,1.33-1.03C286.42,191.41,284.1,196.26,287.41,200.24z"/>
	<path class="st19" d="M120.87,201.26c-0.1,0.19-0.19,0.38-0.3,0.57c-0.23,0.45-0.49,0.87-0.76,1.28
		c-2.62,4.08-6.48,6.67-11.23,8.13c-1.11,0.2-2.22,0.45-3.32,0.68c-1.56,0.32-3.12,0.62-4.72,0.7c-0.29,0.02-0.59,0.03-0.89,0.03
		c-1.86,0-3.15,0.87-4.3,1.93c-0.68,0.63-1.31,1.32-1.97,1.96c-0.34,0.34-0.71,0.66-1.09,0.94c-0.38,0.3-0.8,0.55-1.24,0.76
		c-0.54,0.2-1.07,0.4-1.61,0.63c-0.62,0.24-1.23,0.5-1.85,0.74c-2.09,0.85-4.21,1.66-6.45,2.09c-2.44,0.49-4.36,1.65-5.78,3.56
		c-0.13,0.17-0.25,0.35-0.36,0.54l-0.21,0.33c-4.15,6.03-5.86,13.22-9.37,19.55c-2.77,5-5.16,10.18-9.55,14.13
		c-2.16,1.93-3.18,4.77-4.15,7.44c-0.99,2.68-2.1,5.31-3.12,7.99c-1.21,3.11-2.29,6.27-2.89,9.61c-0.2,1.11-0.22,2.89-0.9,3.88
		c-0.63,0.92-1.81,1.16-4.23-0.4c-1.33-0.86-1.84,0.83-2.7,1.97c-0.33,0.43-0.71,0.8-1.21,0.9c-3.14,2.78-4.36,7.14-7.5,9.91
		c-0.49,0.45-1.03,0.85-1.63,1.19c8.1-16.8,15.95-33.72,25.38-49.85c7.34-12.54,15.12-24.7,25.63-34.87c1.67-1.62,3.18-3.5,5.5-4.31
		c1.66-0.93,3.39-1.7,5.14-2.42c5.11-2.09,10.42-3.76,14.7-7.75c4.12-3.82,10.09-2.71,15.22-3.85c0.26,0.04,0.51,0.11,0.74,0.21
		c0.16,0.06,0.32,0.14,0.48,0.24c0.07,0.04,0.13,0.08,0.2,0.13c0.08,0.09,0.14,0.18,0.19,0.28c0.02,0.02,0.03,0.04,0.04,0.07
		C120.93,200.53,120.97,200.87,120.87,201.26z"/>
	<path class="st20" d="M142.73,79.63c-4.18,3.98-7.04,8.29-5.11,14.67c0.79,2.58-0.39,4.93-1.51,7.29
		c-0.55,1.17-1.07,2.36-1.33,3.58c-0.1,1.45-0.04,2.92-0.34,4.32c-0.22,1.02-0.56,2.46-2.01,2.3c-1.34-0.15-1.61-1.42-1.7-2.59
		c-1.02-1.92-1.22-3.93-1.23-5.97c-0.01-1.62,0.1-3.25,0.03-4.86c-0.05-1.17-0.18-2.34-0.13-3.51c0.11-2.66-0.31-5.22-2.91-6.49
		c-1.85-0.91-1.71,1.5-2.59,2.4c-0.27,0.29-0.66,0.42-1.25,0.24c-0.35-6.14,1.76-11.7,3.99-17.23c0.51-0.25,0.95-0.54,1.35-0.86
		c2.57-2.05,3.17-5.38,4.45-8.22c3.81-8.5,5.58-8.86,12.33-2.32c0.05,0.07,0.09,0.15,0.14,0.22c0.14,0.22,0.27,0.45,0.39,0.66
		C149.22,69.87,148.47,74.15,142.73,79.63z"/>
	<path class="st21" d="M353.56,236.47c-0.61-0.22-1.18-0.5-1.74-0.79c-3.74-2.04-6.24-5.65-9.19-8.51
		c-7.9-7.63-17.71-10.01-27.81-11.72c-7.15-1.19-13.68-3.27-20.05-6.96c-3.08-1.79-6.65-5.48-11.3-3.26
		c-0.21-0.28-0.36-0.56-0.45-0.84c-0.02-0.06-0.04-0.11-0.05-0.17c-0.14-0.67,0.04-1.34,0.49-2c0.42-1.62,1.32-2.3,2.57-2.26
		c0.41,0.01,0.89,0.1,1.39,0.27c11.69,4.8,24.21,6.87,36.07,11.17C336.59,216.16,347.22,223.7,353.56,236.47z"/>
	<path class="st22" d="M154.48,64.49c-0.16,0.07-0.32,0.13-0.49,0.18c-0.02,0.01-0.04,0.02-0.07,0.02c-3.14,1.05-5.87-0.3-8.63-1.45
		c-0.47-0.19-0.94-0.37-1.41-0.55c-7-5.39-7-5.39-10.52,2.85c-0.98,2.28-1.8,4.65-3.04,6.78c-0.59,0.98-1.27,2.75-2.79,2.07
		c-0.27-0.12-0.58-0.33-0.91-0.64c2.7-11.75,7.85-22.39,14.57-32.33c1.03-1.53,2.02-3.08,3.63-4.1c0.18,0.31,0.34,0.61,0.48,0.9
		c1.56,3.41-0.45,5.51-3.51,7.12c-1.13,0.6-3.04,0.64-2.29,2.48c0.48,1.18,2.24,0.98,3.18,0.52c3.9-1.96,6.58,0.11,9.5,2.26
		c2.69,1.97,2.66,4.32,1.8,7.04c0.51,0.82,0.89,1.65,1.1,2.49C155.45,61.55,155.32,63,154.48,64.49z"/>
	<path class="st23" d="M148.61,191.54c-0.15,0.33-0.38,0.59-0.69,0.73c-0.03,0.03-0.06,0.04-0.09,0.05
		c-0.11,0.06-0.22,0.09-0.35,0.12c-0.18-0.11-0.35-0.21-0.53-0.31c-0.01-0.01-0.03-0.02-0.04-0.02c-3.9-2.26-5.45-1.72-8,2.8
		c-0.64,1.14-1.32,2.04-2.11,2.59c-0.19,0.13-0.39,0.24-0.61,0.33c-0.01,0-0.01,0-0.01,0c-0.31,0.13-0.64,0.21-0.98,0.24
		c-0.55,0.05-1.14-0.05-1.81-0.3c-0.29-0.11-0.61-0.25-0.93-0.43c-1.38-2.29-1.16-5.07-2.34-7.41c-0.07-0.2-0.15-0.4-0.23-0.6
		c-0.08-0.18-0.16-0.35-0.26-0.54c-0.42-0.86-0.95-1.69-1.32-2.58c0-0.01,0-0.01,0-0.02c-0.01-0.04-0.02-0.08-0.01-0.11
		c-0.01-0.01-0.01-0.02-0.01-0.03c-0.04-0.41,0.1-0.78,0.38-1.09c3.44-5.81,1.86-11.64,0.1-17.47c-0.67-2.23-1.53-4.4-2.3-6.59
		c0.31-0.28,0.62-0.59,0.9-0.9c1.24-1.32,2.28-2.82,3.38-4.27c0.03-0.02,0.05-0.04,0.08-0.05c1.57-1.06,3.18-0.92,4.3,0.49
		c1.73,2.16-0.24,3.67-1.2,5.35c-0.05,0.09-0.1,0.19-0.15,0.28c0.11,0.65,0.24,1.29,0.23,1.96c-0.01,3.18,0.09,6.15,4.4,2.95
		c0.08-0.06,0.18-0.06,0.29-0.02c0.03,0.01,0.05,0.02,0.08,0.04c0.27,0.13,0.58,0.47,0.75,0.76c0.13,0.38,0.23,0.77,0.31,1.14
		c0.2,0.95,0.26,1.85,0.08,2.69c-0.24,1.17-0.93,2.24-2.27,3.13c-0.28,0.06-0.55,0.13-0.8,0.21c-0.15,0.04-0.29,0.09-0.44,0.15
		c-1.64,0.64-2.56,1.83-2.44,4.07c0.15,2.66-0.01,5.34,0.05,8c0.03,1.13-0.27,2.54,0.88,3.22c1.32,0.77,2.06-0.62,2.95-1.25
		c2.17-1.53,4.32-3.01,6.98-3.5c0.15-0.02,0.3-0.05,0.46-0.07c0.05-0.01,0.11-0.01,0.16-0.02
		C149.02,186.1,149.45,188.5,148.61,191.54z"/>
	<path class="st24" d="M130.68,189.06c-0.27,0.08-0.54,0.17-0.8,0.26c-4.34,1.56-7.44,4.35-8.53,9.14
		c-0.13,0.59-0.56,0.95-1.03,1.25c-0.23,0.15-0.49,0.28-0.72,0.42c-7.34,1.68-14.64,2.61-20.89,8.11c-3.17,2.79-7.93,4.2-12.64,4.81
		c-0.01,0-0.01,0-0.01,0c-0.68,0.09-1.35,0.15-2.01,0.21c8.13-6.86,17.48-11.52,27.38-15.19c1.66-0.32,2.98-1.07,4.19-2.06
		c0.79-0.64,1.52-1.38,2.25-2.15c2.19-2.32,4.09-5.1,6.86-6.66c1.04-0.6,2.21-1.02,3.56-1.17c0.02,0,0.04-0.01,0.07,0
		c0.11-0.02,0.22-0.03,0.33-0.04C130.01,186.59,130.71,187.58,130.68,189.06z"/>
	<path class="st22" d="M130.73,107.45v1.75c-2.93-1.56-2.19-4.62-2.77-7.08c-0.29-1.2,1.72-3.31-0.57-3.66
		c-1.8-0.28-3.46,0.73-4.25,2.42c-0.17,0.37-0.29,0.79-0.37,1.22c-0.33,1.96-0.12,4.02-0.14,6.03c-0.05,5.52-0.09,11.05-0.14,16.58
		c0-0.02,0-0.04-0.01-0.06c-1.29-11.22-1.7-22.43,0.16-33.64c0.22-0.24,0.45-0.5,0.67-0.74c1.06-1.15-0.3-4.14,0.98-4.53
		c0.22-0.08,0.53-0.07,0.94,0.04c2.31,0.62,5.54,2.59,5.51,6.35C130.7,97.22,130.72,102.34,130.73,107.45z"/>
	<path class="st25" d="M33.88,361.66c-0.08,0.22-0.17,0.34-0.26,0.34c-10.04,0.07-20.08-0.62-30.12,0.47
		c-4.11,0.45-3.9-2.27-2.85-4.92c2.98-7.65,6.65-14.98,10.6-22.16c-0.03,1.12-0.16,2.21-0.36,3.28c-1.02,5.38-3.95,10.11-6.1,15.07
		c-2.4,5.49-3.07,6.95,0.04,7.13c1.05,0.07,2.54-0.01,4.55-0.13h0.01c0.04-0.02,0.07-0.03,0.11-0.05c4.91-1.98,9.82-1.97,14.74-0.09
		c0.05,0.02,0.11,0.04,0.16,0.06c0.03,0.01,0.07,0.03,0.1,0.04c3.04,0.09,6.08,0.18,9.12,0.27c0.05,0.04,0.1,0.09,0.14,0.13
		C33.91,361.29,33.95,361.48,33.88,361.66z"/>
	<path class="st26" d="M291.56,168.88c-0.28-0.4-0.52-0.87-0.86-1.22c-0.07-0.07-0.15-0.14-0.23-0.21
		c-2.13-1.67-7.66-0.65-4.99-6.04c1.31-2.63,0.39-6.59,4.64-7.65c0.53-0.13,0.85-0.38,1.06-0.71c0.75-1.21-0.16-3.45,1.34-4.41
		c0.22,5.14,0.5,10.28,0.62,15.41C293.19,165.78,293.59,167.78,291.56,168.88z"/>
	<path class="st27" d="M214.71,9.09c-1.56,0.08-3.09-0.07-4.6-0.32c-3.26-0.53-6.47-1.53-9.76-1.63
		c-9.19-0.29-18.53-1.71-27.33,2.01c-0.65,0.27-1.3,0.58-1.93,0.91c0.4-0.6,0.8-1.19,1.2-1.8c1.55-1.28,2.82-2.91,4.46-4.03
		c2.47-1.7,5.01-3.75,7.96-2.07c0.45,0.24,0.9,0.58,1.37,1.01c0.71,0.65,1.56,0.85,2.46,0.89c0.62,0.04,1.25,0,1.86-0.01
		c5.17-0.13,10.21,0.69,15.15,2.13C208.6,7.16,211.65,8.12,214.71,9.09z"/>
	<path class="st28" d="M130.79,154.24c-0.12,0.44-0.04,0.94-0.04,1.42v0.06c0.17,2.69-0.38,4.78-3.06,5.13
		c-0.36,0.05-0.77,0.06-1.22,0.04c-1.32-2.19-1.79-4.6-1.85-7.12c0.01-0.16-0.01-0.34,0.05-0.49c0.54-1.41-0.66-3.87,0.31-4.82
		c0.26-0.26,0.69-0.4,1.35-0.38C128.98,148.16,131.8,150.35,130.79,154.24z"/>
	<path class="st15" d="M98.35,362.89c-2.35,0.03-4.69,0.07-7.04,0.09c-3.41,0.05-6.82,0.1-10.23,0.14h-0.03
		c-4.32-0.03-8.65-0.05-12.97-0.08H68c-9.72-0.04-19.46-0.07-29.18-0.11h-0.12c-1.69-0.3-3.38-0.62-5.08-0.92v-1.03l0.02-0.03
		c0.07-0.06,0.14-0.11,0.21-0.15c0.17-0.13,0.34-0.23,0.52-0.31c1.59-0.75,3.28-0.06,4.92,0.02c0.24,0.03,0.48,0.03,0.72,0
		c0.16,0,0.33-0.03,0.5-0.06c6.18,0.06,12.36-0.12,18.55,0.05c0.25,0.01,0.51,0.01,0.76,0.02h0.01c2.21-0.04,4.43-0.26,6.44,0.76
		c0.29,0.15,0.58,0.32,0.86,0.53v0.01h0.01c8.66,0.06,17.32,0.09,25.98,0.21C94.87,362.05,96.8,361.42,98.35,362.89z"/>
	<path class="st29" d="M205.54,6.19c-1.68-0.17-3.36-0.37-5.05-0.57c-4.1-0.48-8.22-0.87-12.37-0.43c-0.32,0.03-0.78,0.08-0.98-0.09
		c-5.06-4.36-8.62-1.48-12.14,1.61c-0.44,0.38-0.86,0.76-1.3,1.13c-0.34,0.29-0.94,0.29-1.42,0.42c1.69-3.44,4.78-5.44,7.84-7.42
		c0.66-0.42,1.81-0.95,2.27-0.67C189.52,4.54,198.39,2.08,205.54,6.19z"/>
	<path class="st30" d="M128.69,185.83V186c-0.13,0.06-0.25,0.11-0.38,0.18c-4.21,2-7.05,5.62-10.02,8.98
		c-1.58,1.77-3.12,2.89-5.15,3.03h-0.01c-0.54,0.03-1.09,0-1.7-0.11c1.17-1.37,3.58-1.63,4-3.5c1.62-7.18,7.14-8.76,13.24-9.64
		C128.68,185.23,128.69,185.54,128.69,185.83z"/>
	<path class="st31" d="M292.72,122.16c-0.1,0.16-0.22,0.31-0.35,0.45c-0.09,0.02-0.17,0.03-0.25,0.04
		c-0.12,0.02-0.24,0.03-0.35,0.03c-0.74-0.01-1.32-0.37-1.83-0.89c-0.14-0.14-0.26-0.28-0.39-0.43c-2.91-1.86-2.62-4.81-2.88-7.58
		c-0.03-0.45-0.09-0.89-0.17-1.32C290.1,114.7,292.46,117.76,292.72,122.16z"/>
	<path class="st32" d="M74.08,275.02c0.25-5.53-0.29-11.21,3.03-16.17c2.45-7.91,2-16.5,5.65-24.13c0.1-0.79,0.25-1.57,0.52-2.33
		c0.49-1.29,1.37-2.27,2.47-3.08c2.25-1.76,4.49-3.56,7.37-4.23c4.62-1.07,7.88,1.64,7.03,6.27c-2.23,12.2-3.31,24.63-7.6,36.42
		c-1.28,3.52-3.2,6.64-4.88,9.91c-0.55,1.07-1.98,2.51-0.03,3.3c1.51,0.61,2.36-0.89,2.81-2.21c0.82-2.42,0.29-5.03,1.03-7.47
		c1.23-4.02,2.66-7.96,4.38-11.79c2.87-6.35,3.8-13.2,5.27-19.92c1.91-8.77,5.25-16.62,13.92-21.02c2.78-1.41,5.46-2.54,8.64-2.05
		c2.09,0.32,4.33,0.31,5.13-2.04c0.91-2.64,2.04-5.46,0.03-8.17c-0.6-0.81-1.47-1.38-2.14-2.14c-1.92-2.18-1.46-3.69,1.41-4.12
		c2.79-0.42,5.55-1.39,8.47-0.51c2.02,0.6,4.01,0.37,5.58-1.31c3.53-1.98,4.92,0.28,5.8,3.09c1.19,3.82,1.77,7.84,3.7,11.42
		c1.52,4.08,4.93,7.27,5.52,11.78c0.27,9.38-5,14.96-14.44,15.4c-5.64,0.26-11.04-0.8-16.36-2.54c-1.71-0.56-3.7-1.62-5.1,0.31
		c-1.78,2.46-3.26,5.21-2.83,8.39c0.22,1.66,1.77,1.81,3.2,1.69c2.85-0.24,5.68-0.7,8.51-1.05c2.07-0.26,4.25-0.03,5.36,1.97
		c1.01,1.83-0.79,3.04-1.71,4.36c-0.38,0.55-0.88,1.02-1.23,1.59c-0.97,1.57-2.57,3.45-1.48,5.04c1.45,2.1,3.3-0.08,4.86-0.67
		c2.35-0.9,4.89-1.33,7.07-2.67c1.14-0.7,2.48-1.4,2.35-2.98c-0.11-1.39-1.42-1.74-2.51-2.18c-0.94-0.37-1.92-0.63-2.78-1.19
		c-2.04-1.33-2.37-2.98-0.3-4.38c3.04-2.07,6.06-4.35,10.06-4.2c4.13,0.71,8.22,2.7,12.39-0.1c0.71-0.48,2.02-0.18,1.83,1.36
		c-4.08,3.2-4.87,7.89-4.95,12.51c-0.13,7.49-3.86,13.59-8.09,18.86c-4.91,6.12-7.66,12.79-9.1,20.15c-0.78,4-2.59,6.67-5.51,9.61
		c-6.82,6.86-15.48,11.82-20.57,20.56c-1.9,3.25-5.09,8.14-8.65,7.48c-3.47-0.65-4.13-6.34-5.53-10.02
		c-1.53-4.01-1.92-7.73,3.35-9.88c2.16-0.88,4.14-2.92,3.79-5.98c-0.3-2.65,1.68-4.41,3.07-6.14c4.44-5.55,4.74-11.98,4.63-18.57
		c-0.03-1.49-0.27-3.33-2.01-3.65c-1.67-0.31-2.29,1.52-2.51,2.67c-1.4,7.23-5.71,13.79-4.62,21.64c0.76,5.5-4.77,10.66-9.08,8.96
		c-4.35-1.71-5.08-4.65-1.89-8.04c0.79-0.84,2-1.28,2.81-2.51c-4.04-0.57-7.79-0.71-6.79-5.85c0.44-2.25,2.51-2.99,4.27-3.98
		c1.88-1.06,4.42-2.08,3.19-4.82c-1.09-2.43-3.36-1.36-5.34-0.81c-1.11,0.31-2.33,0.22-3.5,0.29c-3.19,0.18-7.78,2.92-9.12-0.84
		c-1.17-3.32,0.91-7.8,3.52-10.97c7.87-9.56,8.33-20.64,6.94-32.18c-0.24-2.01-1.35-3.36-2.52-4.78c-1.62,0.04-1.79,1.44-2.14,2.42
		c-5.18,14.37-10.9,28.57-12.68,43.95c-0.49,4.23-1.97,8.34-3,12.51c-1.99-3.71-0.85-7.42,0-11.13c0-0.34,0-0.67,0-1.01
		C74.07,280.75,73.09,277.64,74.08,275.02z"/>
	<path class="st33" d="M72.06,284.12c0,3.71,0,7.42,0,11.13c-2.16,15.93-1.18,32.08-3.74,48.03c-0.96,6.01-2.1,12.27-1.21,18.52
		c-2.44-0.02-4.88-0.04-7.32-0.05c-1.97-2.56-1.35-5.48-0.88-8.24c1.31-7.65,1.92-15.33,1.6-23.08c-0.33-7.76,0.82-15.41,1.49-23.1
		c0.13-1.45,0.82-3.18-0.82-4.12c-1.48-0.84-2.95,0.09-4.25,0.84c-4.63,2.68-6.68,7.59-7.54,12.1c-2.22,11.57-7.34,22.33-8.89,34.06
		c-0.51,3.85,0.23,7.73-0.76,11.51c-2.03-0.26-4.07-0.51-6.1-0.77c0.59-9.24,3.84-17.92,6.09-26.77c1.19-4.67,0.42-9.29,1.72-13.89
		c3.16-11.24,5.66-22.66,8.51-33.99c0.49-1.94,1.2-4.16,3.76-4.12c4.55,0.07,5.98-3.03,7.17-6.52c0.82-2.4,1.7-4.8,3.55-6.6
		c1-0.97,1.76-3.05,3.47-2.28c1.56,0.7,2.2,2.64,2.05,4.34c-0.69,7.6-1.53,15.18-2.34,22.77c-0.07,0.66-0.49,1.29-0.52,1.94
		c-0.06,1.45-0.55,3.58,1.47,3.68c1.62,0.08,1.39-1.94,1.46-3.26C70.26,292.13,69.14,287.79,72.06,284.12z"/>
	<path class="st34" d="M140.99,361.83c-3.11,0.01-6.22,0.03-9.33,0.04c1.31-7.14-2.69-13.35-3.53-20.13
		c-0.21-1.69-0.54-3.27,0.02-4.94c1.67-4.92,3.18-9.9,4.96-14.78c0.86-2.35,2.21-5.36,4.93-5.01c3.1,0.4,3.58,3.97,3.67,6.51
		c0.31,8.22,1.63,16.37,1.2,24.64C142.68,352.8,143.85,357.58,140.99,361.83z"/>
	<path class="st35" d="M164.09,242.67c-0.24-0.21-0.66-0.64-0.71-0.61c-4.34,3.49-8.89,2.03-13.43,0.61
		c1.72-3.08,4.94-4.58,7.39-6.89c1.29-1.22,2.84-0.05,4.16,0.7c1.23,0.77,2.32,1.71,3.37,2.71c3.05,3.46,6.59,6,11.1,7.5
		c4.62,1.53,8.75,4.25,12.83,6.94c0.79,0.51,1.55,1.07,2.28,1.66c4.61,4.02,10.14,6.42,15.6,8.95c0.98,0.65,2.28,1.07,1.97,2.67
		c-3.85,1.82-7.23,0.78-11.18-0.51c-3.64-1.19-7.43-3.19-12.06-1.78c-4.01,1.22-10.29-4.59-11.18-8.92
		c-0.2-0.97-0.16-2.53-0.72-2.79C168.96,250.73,167.43,245.87,164.09,242.67z"/>
	<path class="st36" d="M217.7,287.7c0.01-5,3.6-7.6,7.69-5.1c2.22,1.36,3.47,1.02,5.23-0.31c1.21-0.91,2.64-1.47,4.01,0.05
		c1.15,1.28,1.15,2.38,0.57,4.06c-1.26,3.61-3.44,6.53-5.68,9.52c-1.67,2.24-3.24,2.41-5.48,0.97
		C218.43,293.24,217.7,292.27,217.7,287.7z"/>
	<path class="st37" d="M248.11,259.91c-2.21,2.43-3.88,4.78-2.28,8.48c1.06,2.46-0.55,4.53-2.95,5.66
		c-3.85,1.81-7.93,0.95-11.9,0.75c-1.54-0.08-2.11-1.39-1.55-3.03c1.26-3.65-1.03-3.87-3.71-3.83c-3.7,0.05-7.4-0.03-11.09-0.05
		c0.95-3.27,3.74-2.12,5.81-2.23c8.38-0.42,16.52-1.66,23.96-5.85c0.48-0.25,0.98-0.43,1.51-0.56c0.54-0.09,1.07-0.03,1.59,0.15
		C247.7,259.56,247.9,259.74,248.11,259.91z"/>
	<path class="st38" d="M273.33,232.54c-2.87,4.57-5.68,9.14-7.09,14.49c-0.42,1.58-0.82,3.12-1.05,4.75
		c-0.7,4.99-3.67,6.94-8.38,5.43c-1.56-0.5-2.51,0.14-3.62,0.94c-1.51,1.09-3.16,1.86-5.09,1.76c0,0-0.09-0.1-0.09-0.1
		c2.16-4.86,6.37-8.05,10.36-10.94c4.16-3.01,7.02-6.37,8.27-11.23C268.53,235.5,269.69,232.39,273.33,232.54z"/>
	<path class="st39" d="M246.05,259.88c-7.07,5.68-15.67,6.12-24.14,7.07c-2.43,0.27-5.06-0.92-7.29,0.93
		c-1.99-0.33-3.98-0.66-5.97-0.98c-0.69-0.66-1.38-1.32-2.06-1.99c2.27-2.1,5.14-1.55,7.69-1.31c9.03,0.85,17.75,0.16,26.08-3.76
		C242.14,259.01,244.17,258.27,246.05,259.88z"/>
	<path class="st39" d="M273.33,232.54c-1.97,1.73-3.95,3.46-5.92,5.2c-0.17-0.17-0.34-0.34-0.5-0.51c-0.55-2.44,1.33-3.66,2.66-5.08
		c2.22-2.36,4.11-4.9,5.14-8.01c1.79-3.95,2.79-8.29,5.57-11.77c1.29-3.31,0.28-7.34,3.18-10.14c0,1.01,0,2.01,0,3.02
		c-1.52,1.45-0.88,3.33-1,5.06C279.58,217.79,278.1,225.84,273.33,232.54z"/>
	<path class="st2" d="M195.39,356.32c-0.51,2.22-1.82,3.48-4.09,3.62c-2.33,0.15-3.86-0.71-3.91-3.3c-0.04-1.8,0.39-3.74,2.45-3.53
		C191.94,353.33,194.59,353.45,195.39,356.32z"/>
	<path class="st2" d="M196.43,349.37c-0.12,1.08-0.1,2.62-1.48,1.94c-2.13-1.03-4.39-2.31-5.79-4.1c-0.61-0.78,1.44-2.35,3.06-2.37
		C195.3,344.81,195.73,347.29,196.43,349.37z"/>
	<path class="st31" d="M180.31,86.99c-1.17-0.16-3.21,0.55-2.04-2c4.18-3.78,8.76-2.1,13.29-1.19c-6.47-2.64-12.96-1.49-19.47,0.08
		c-0.79,0.2-1.58,0.31-2.39,0.36c-2.03-0.19-5.07,0.7-5.45-1.95c-0.4-2.79,2.6-3.46,4.85-4.04c3.21-0.84,6.54-1.12,9.8-1.72
		c4.35-0.11,8.72-0.1,13.07-0.01c3.94,0.08,7.68-0.18,10.86-2.94c1.28-1.11,3.01-1.83,4.7-1.3c6.35,1.97,10.15-2.81,14.66-4.78
		c0.23-0.95,0.15-1.41-0.19-1.46c-5.51-0.86-10.23-3.75-15.31-5.7c-6.78-2.6-14.19-1.76-21.34-0.48c-3.93,0.7-7.82,2.11-11.81,0.31
		c-1.17-1.89,0.45-2.26,1.58-2.51c2.06-0.47,4.14-0.8,6.13-1.54c0.47-0.22,0.95-0.39,1.45-0.54c3.2-0.78,6.35-2.03,9.73-0.96
		c10.52,0.46,21.13-1.18,31.54,1.92c4.62,1.38,8.49-2.54,12.96-2.91c-1.71,4.2-1.71,4.19,2.1,7.63c1.37,1.24,2.8,2.43,4.31,3.48
		c3.55,2.49,5.02,2,6.06-2.32c0.53-2.21,1.68-2.77,3.6-2.25c1.62,0.44,3.21,1.05,4.69,1.82c2.59,1.35,5.05,3.07,5.16,6.3
		c0.11,3.09-2.58,3.98-4.82,5.14c-0.74,0.38-1.4,0.92-2.21,1.19c-7.89-1.21-15.45,0.81-23.07,2.29c3.77-0.2,7.53-0.41,11.27-1.03
		c3.45-0.57,6.88-1.56,10.45-0.57c1.77,0.49,3.27-0.25,4.41-1.68c4.31,0.22,6.17,2.07,7.36,7.29c-3.37-0.67-6.74-1.34-10.11-2.02
		c-2.68,1.03-5.57,1.62-8.32,1.76c-7.29,0.37-12.93,3.05-16.29,9.99c5.63-1.36,11.6-0.54,17.14-3.79c4.17-2.45,8.82-1.4,12.51,2.14
		c8.14,1.93,9.51,9.64,12.91,15.49c0.92,1.58,1.47,3.7,2.07,5.61c0.47,1.49,0.89,3.35,2.53,3.4c2.24,0.07,1.46-2.13,1.78-3.47
		c0.15-0.64,0.27-1.5,1.16-1.29c0.55,0.13,1.33,0.68,1.42,1.16c0.27,1.47,0.83,3.26,0.27,4.44c-2.54,5.34-0.25,9.29,3.16,13.06
		c3.08,3.49,4.18,7.63,4.03,12.18c-0.1,1.14,0.28,2.36-0.52,3.37c-0.34,0-0.73,0.12-0.95-0.02c-1.62-1.01-1.34-4.58-3.93-3.83
		c-2.72,0.8-1.44,3.71-1.63,5.75c-0.15,1.63-0.03,3.29-0.03,5.14c-2.78-0.92-2.06-2.91-1.96-4.37c0.18-2.76-0.45-5.4-1.3-7.88
		c-0.8-2.31-2.39-4.98-5.5-3.82c-5.88,2.19-10.62,0.86-14.79-3.58c-0.87-0.93-2.47-1.36-2.03-3.08c0.37-1.46,1.57-2.24,2.89-2.53
		c1.45-0.31,2.99-0.26,4.49-0.36c5.11-4.65,5.33-11.32,0.37-16.45c-2.48-2.57-4.74-5.08-4.86-8.95c-0.07-2.4-1.84-3.34-4.08-3.57
		c-4.07-0.41-7.98,0.2-11.76,1.71c-4,0.34-7.95,1.07-12.02,1.03c-4.14-0.04-7.88,1.43-10.42,5.14c-1.81,2.65-4.42,4.59-6.58,6.94
		c-6.28,6.81-10.93,7.74-19.34,4.04c-1.23-0.54-2.51-0.99-3.58-1.83c-3.95-2.38-7.86-4.84-11.84-7.18
		c5.55-4.52,11.71-7.23,19.06-6.17c2.33,0.34,4.61,0.94,6.91,1.42c3.89,0.81,9.39-3.19,8.53-6.85c-1.56-6.63,2.54-8.64,7.16-10.69
		c-5.25,0.94-9.19,4-12.61,7.87c-1.67,1.89-3.36,3.76-5.54,5.1c-1.74,1.07-3.65,1.41-5.07-0.21c-4.41-5.05-10.83-5.52-16.58-7.53
		C182.06,87.87,181.03,87.79,180.31,86.99z"/>
	<path class="st40" d="M245.02,96.06c4.07-2.85,8.71-2,13.19-1.96c2.06,0.02,4.02,1.44,3.78,3.32c-0.72,5.52,3.31,8.01,6.28,11.31
		c3.25,3.62,2.06,8.23,1.96,12.39c-0.05,2.17-2.41,3.5-4.96,3.25c-1.02-2.26-3.05-2.07-5-2.01c-2.16,0.06-3.89-0.41-4.14-2.98
		c1.45-1.1,3.17-2.13,2-4.37c-1.16-2.24-2.48-4.35-5.42-4.51c-1.65-0.09-3.28,0.5-4.94,0.13c-5.6-2.88-0.24-5.84,0.13-9.84
		c-6.06,2.92-12.58,1.73-18.15,4.95c-5.78,3.34-9.46,17.77-2.9,21.43c1.81,1.01,3.29,2.25,5.5,1.23c2.4-1.1,3-2.92,2.54-5.36
		c-0.25-1.32-0.22-2.67,0.19-3.99c1.4-2.99,3.87-4,6.95-3.48c3.08,0.52,6.04,1.55,9.16-0.24c1.14-0.66,2.11,0.44,1.95,1.93
		c-1.71,0.59-1.69,1.81-1.17,3.22c-2.13,1.79-4.8,0.72-7.15,1.34c-0.94,0.25-2.29,0.32-2.22,1.51c0.09,1.62,1.59,1.38,2.71,1.3
		c2.91-0.2,5.35-1.59,7.68-3.2c3.34,6.86-3.75,18.26-12.13,19.01c-3.71,0.33-7.77,1.11-11.01-1.91c-4.57-1.92-6.08-7.03-10.03-9.59
		c-0.09-0.06-0.23-0.26-0.21-0.44c0.69-5.81-1.4-11.56-0.41-17.37c0.74-4.32,4.02-6.83,6.97-9.52c1.92-1.75,4.22-2.82,6.87-2.56
		C237.41,99.47,241.23,97.85,245.02,96.06z"/>
	<path class="st41" d="M225.8,164.82c1.84,3.33,5.44,4.65,8.07,7.08c1.37,2.24,0.51,3.47-1.84,3.92c-1.7,0.32-3.36-0.03-4.89-0.81
		c-5.71-2.94-11.01-1.94-16.06,1.6c-1.52,1.43-2.76,3.2-4.74,4.1c-1.57,0.55-3.16,0.62-4.76,0.14c-0.5-0.18-0.92-0.49-1.25-0.91
		c0.66-3.61,4.03-4.79,6.44-6.59c5.16-3.84,7.15-7.87,6.4-14.89c-0.86-8.11-5.62-15.59-3.73-24.06c0.25-1.14-0.04-2.46-1.48-2.83
		c-1.39-0.35-2.32,0.57-2.78,1.67c-1.85,4.42-4.54,8.54-2.6,13.86c2.54,6.96,0.1,14.32,1.02,21.47c0.22,1.66-0.67,3.32-2.8,3.57
		c-2.01-1.36-1.61-4.13-3.33-5.65c-0.77-1.04-1.1-2.23-1.21-3.5c-0.1-1.16,0.01-2.34-0.07-3.5c-0.33-4.62-1.13-5.16-5.35-3.22
		c-1.73,0.8-3.26,0.98-4.54-0.48c-1.26-1.43-1-3.14-0.2-4.71c1.53-2.98,3.95-5.39,5.49-8.37c0.47-0.61,1.07-1.04,1.85-1.17
		c3.76-2.52,6.46-5.67,7.16-10.4c0.57-3.82,3.1-6.69,6.74-7.4c3.17-0.62,5.56,2.1,7.4,4.41c2.18,2.74,3.86,5.88,5.73,8.86
		c2.24,3.58,3.62,6.97-2.6,8.01c3.87,4.41,3.37,9.7,4.83,14.34C223.36,161.49,223.67,163.62,225.8,164.82z"/>
	<path class="st42" d="M193.44,141.54c-0.34,0.34-0.67,0.69-1.01,1.03c-1.32,1.71-2.48,3.52-4.17,4.95
		c-5.65,4.79-5.64,4.84-11.58,0.51c-1.12-0.82-2.41-1.1-3.67-1.5c-2.01-0.64-3.74-1.56-3.6-4.1c0.56-1.5,1.15-2.98,1.99-4.37
		c0.41-0.26,0.85-0.45,1.32-0.57c1.46-0.26,2.91-0.26,4.35,0.14c0.81,0.31,1.39,0.83,1.71,1.69c1.34,3.56,3.4,4.35,6.56,2.57
		c0.59-0.33,1.15-0.72,1.58-1.23c4.42-5.24,8.56-10.72,11.61-16.86c2.15-4.33,1.36-5.6-2.87-7.99c-2.07-1.17-5.46-1.16-5.02-4.94
		c0.99-0.27,1.93-0.27,2.8,0.36c5.64,3.16,11.61,6.18,17.65,1.8c3.99-2.89,7.44-6.76,10.42-10.72c2.46-3.26,5.29-4.94,9.16-5.24
		c4.78-0.37,9.57-0.67,14.36-1.01c-2.45,3.67-6.36,4.79-10.21,4.38c-7.2-0.76-15.98,7.77-14.84,15.04c0.1,0.65,0.74,1.37,0.58,1.88
		c-2.98,9.75,4.7,14.78,9.3,21.17c-6.32-0.03-10.91-4.81-11.11-11.68c-0.11-3.68,0.79-8.3-5.54-4.65c-0.72,0.41-2.22,0.31-2.9-0.18
		c-5.09-3.67-7.26,0.41-9.25,3.69C198.01,130.71,196.9,136.7,193.44,141.54z"/>
	<path class="st43" d="M253.14,117.26c-0.47-0.42-0.93-0.84-1.4-1.26c-2.58,3.74-6.02,1.93-8.95,0.99c-3.15-1.01-5.13-0.05-6.89,2.3
		c-0.73,0.98-0.91,2.13-1.04,3.31c-0.29,2.59-1.69,4.47-4.23,5.01c-2.08,0.45-3.41-1.06-4.38-2.72c-1.24-2.12-2.11-4.45-0.27-6.55
		c4.6-5.25,13.06-11.6,22.09-8.27c4.87-2.14,8.42-0.81,11.25,3.71c1.2,1.91,0.59,3.59,0.2,5.16c-0.49,1.99-2.26-0.01-3.4,0.44
		C255.13,118.67,254.13,117.97,253.14,117.26z"/>
	<path class="st44" d="M290.53,139.57c-1.34-4.06-2.69-8.12-4.03-12.18c2.03-1.5,1.8-4.14,3.04-6.04c1.15-0.04,2.08,0.41,2.83,1.26
		c0.05,4.97,0.11,9.93,0.16,14.9C292.54,138.84,292.78,140.42,290.53,139.57z"/>
	<path class="st45" d="M252.99,121.44c-1.53,3.01-7.65,5.79-10.37,4.62c-1.26-0.54-2.35-1.45-2.44-2.95
		c-0.13-1.96,1.66-1.82,2.81-2.23c2.94-1.06,5.98-0.51,8.99-0.39C252.31,120.8,252.65,121.12,252.99,121.44z"/>
	<path class="st46" d="M284.5,147.5c0.36-1.6-1.01-4.68,1.33-5.03c2.15-0.32,2.32,2.72,2.76,4.64c0.19,0.81,0.56,1.58,0.72,2.4
		c0.34,1.78,0.24,3.59-1.93,3.94c-2.23,0.36-2.81-1.3-2.88-3.17C284.48,149.43,284.5,148.6,284.5,147.5z"/>
	<path class="st47" d="M225.81,161.79c3.74-1.94,5-1.05,7.03,5.19c-3.17-0.24-4.7-2.93-7.03-4.18
		C225.81,162.46,225.81,162.12,225.81,161.79z"/>
	<path class="st48" d="M192.43,54.6c-3.23,1.42-6.78,1.21-10.13,2c-0.04-3.24,2.57-4.09,4.82-4.8c2.67-0.84,5.31-1.86,8.09-2.35
		c10.27,1.05,16.92-5.4,23.46-11.68c2.61-2.51,1.12-8.15-2.16-10.05c-3.81-2.21-8.19-2.83-12.23-1.87
		c-6.46,1.54-13.42,1.7-19.13,5.79c-0.96,0.69-2.06,1.31-3.25,0.5c-1.33-0.91-1.31-2.24-0.93-3.62c0.36-1.29,1.18-2.58,0.98-3.88
		c-0.26-1.67,2.86-3.89-0.58-4.98c-2.92-0.93-4.96,1.07-5.88,4.46c-1.58,5.83-2.66,11.68-2.23,17.74c0.02,0.32-0.13,0.66-0.22,0.98
		c-0.41,1.28-1.31,2.32-1.8,3.55c-2.13,5.3-0.24,8.39,5.36,8.85c1.95,0.16,4.04-0.24,5.66,1.35c-2.41,2.82-6.38,1.02-9.06,3.07
		c-0.39,0.91-0.94,1.51-2.04,1.04c-9.04,0.49-11.87-2.2-12.09-11.83c-0.08-3.79-0.76-7.1-3.17-10.3c-3.41-4.53-2.37-6.4,3.38-7.37
		c0.71-0.12,1.33-0.26,1.58-0.98c2.72-7.76,10.69-9.17,16.43-13.12c3.74-2.58,8.88-0.51,13.36-0.93c2.57-0.24,6.32,1.12,5.19-4.1
		c-0.26-1.19,1.47-2.42,2.41-1.32c4.71,5.54,10.98,2.67,16.56,3.42c2.67,0.36,7.6-1.49,4.41,4.75c-0.87,1.71,1.45,2.25,3,2.29
		c2.86,0.07,5.73,0.05,8.59,0.07c0.35,1.29,0.47,2.7,1.08,3.86c2.63,4.99,1.93,8.98-2.59,12.68c-2.32,1.9-3.37,4.52,0.69,6.52
		c2.93,1.45,1.41,4.05,0.69,6.22c-0.79,2.37-2.49,1.54-4.14,1.12c-3.07-0.79-6.06-1.57-9.2,0.37c-1.26,0.78-3.41,0.84-4.9,0.39
		C205.43,50.36,199,53.02,192.43,54.6z"/>
	<path class="st49" d="M256.16,73.78c0.57-0.59,1.05-1.47,1.74-1.7c2.02-0.65,4.18-1.47,4.1-3.79c-0.09-2.54-2.42-3.96-4.38-5.17
		c-1.36-0.84-3.14-0.78-4.62-1.78c-1.63-1.1-3.07-0.81-2.24,1.75c0.61,1.88,0.26,3.31-1.69,4.1c-1.8,0.73-3.64,0.99-5.26-0.29
		c-3.5-2.77-6.47-6.2-10.59-8.21c-1.6-0.78-1.13-1.96,0.13-2.64c1.29-0.7,2.98-0.75,3.59-2.45c1.18-0.01,2.36,0.01,3.54-0.03
		c1.38-0.04,2.95-0.16,3.07-1.88c0.13-1.79-1.44-1.9-2.81-2.15c-3.15-0.59-5.4-6.67-3.44-9.2c0.8-1.03,1.84-0.97,2.47,0.04
		c2.75,4.46,6.27,5.15,10.68,2.51c0.8-0.48,1.84,0,2.2,0.73c2.23,4.52,6.85,7.17,9.01,11.75c2.15,4.55,6,7.91,8.8,12.07
		c5.49,8.18,7.77,16.99,7.78,26.45c0,3.74,2.42,6.9,1.49,10.78c-5.7-7.3-6.93-17.07-13.47-23.8c-2.46-2.25-3.04-6.4-7.08-7.07
		C258.16,74.61,257.15,74.7,256.16,73.78z"/>
	<path class="st50" d="M261.19,88.97c-6.06-2.65-11.28-1.94-17.36,1.45c-4.15,2.31-10.38,0.1-15.6,2.34
		c4.91-5.81,7.7-13.89,17.28-12.94c3.55,0.35,6.86-3.05,10.63-0.95c0,0.67,0,1.35,0,2.02c0.3,3.17,4.09,3.45,5.04,6.07
		C261.2,87.64,261.19,88.31,261.19,88.97z"/>
	<path class="st31" d="M261.2,86.97c-1.69-2.02-7.37-0.72-5.04-6.07c2.41,0.58,4.83,1.05,6.61,3.06
		C265.01,86.48,263.62,86.96,261.2,86.97z"/>
	<path class="st51" d="M24.49,360.7c-5.04,0.01-10.08,0.03-15.12,0.04c-2.86-4.33,0.01-8.44,1.37-11.97
		c4.56-11.82,9.98-23.31,15.14-34.89c1.75-3.94,3.44-7.96,6.22-11.31c1.04-1.26,1.48-3.96,4.01-2.85c2.13,0.93,1.72,3.19,1.49,4.93
		c-0.48,3.63-0.99,7.31-2.03,10.82c-1.65,5.56-0.99,11.31-1.68,16.94C32.65,342.59,28.4,351.54,24.49,360.7z"/>
	<path class="st52" d="M36.66,291.2c0.32-0.77,0.67-1.54,0.96-2.33c0.57-1.54,0.71-3.82,2.54-3.98c2.23-0.2,0.84,2.94,2.55,3.81
		c3.69-3.69,3.06-8.95,4.63-13.37c2.71-7.62,6.06-14.43,11.38-20.78c6.34-7.58,9.09-17.47,13.27-26.43c0.52-1.12,0.94-2.13,2.1-2.65
		c3.37-0.99,3.03,1.63,3.07,3.41c0.05,2.47-0.64,4.92-0.6,7.42c0.03,2.05,0.26,3.95,2.09,5.26c1.15,2.2,0.82,4.57,0.82,6.91
		c-0.55,2.19,0.04,4.82-2.35,6.33c-0.45,0.87-0.87,1.75-1.35,2.61c-0.55,0.99-0.84,2.39-2.37,2.22c-1.31-0.15-1.13-1.41-1.44-2.34
		c-1.03-3.08-3.85-3.53-5.45-1.66c-2.29,2.67-5.32,5.16-5.64,9.22c-0.26,3.32-2.18,5.6-5.29,6.73c-6.3,2.29-7.76,7.58-8.86,13.38
		c-1.91,10.05-2.33,20.46-6.49,30.03c-2.06-0.47-1.57-1.91-1.51-2.92c0.33-5.67,0.28-11.44,1.37-16.97
		C40.84,291.31,39.47,291.03,36.66,291.2z"/>
	<path class="st33" d="M77.12,254.81c1.19-1.88,1.03-3.98,1.01-6.06c0.84-2.36,0.64-4.88,1.07-7.29c0.54-3.02,0.84-6.4,5-6.87
		c-4.02,7.61-2.38,16.86-7.08,24.27C77.11,257.5,77.11,256.15,77.12,254.81z"/>
	<path class="st33" d="M74.08,275.02c-0.52,2.74,1.43,6.09-2.02,8.09C72.61,280.38,72.56,277.51,74.08,275.02z"/>
	<path class="st53" d="M171.17,60.71c0.68-0.35,1.36-0.69,2.04-1.04c9.25,0.38,18.18-3.16,27.53-2.12
		c4.12,0.46,8.02,0.96,11.14,3.89c2.46,2.31,5.44,2.28,8.5,2.33c2.05,0.03,4.42,0.54,4.92,2.73c0.53,2.33-2.18,2.03-3.48,2.82
		c-2.28,1.39-4.77,2.47-6.91,4.03c-2.02,1.47-3.9,1.96-6.02,0.58c-2.08-1.36-4.16-0.92-5.45,0.72c-2.72,3.47-6.3,3.32-10.05,3.25
		c-4.72-0.1-9.43-0.05-14.15-0.06c-1.6-1.42-3.58-0.5-5.35-0.88c-1.74-0.38-3.26-1.17-3.74-2.99c-0.53-2,0.91-3.15,2.36-4.03
		c2.68-1.62,5.63-2.16,8.75-1.81c3.19,0.36,6.4,0.52,9.58,0.07c2.3-0.32,4.53-1.28,4.38-3.99c-0.17-2.97-2.71-2.34-4.68-2.33
		c-10.03,0.09-19.63,2.33-29,5.79c-3.28,1.21-6.25,1.14-7.55-2.95c0-2.36,0-4.72-0.01-7.08c1.13,0.96,2.31,1.85,3.37,2.88
		C160.99,64.04,166.98,64.14,171.17,60.71z"/>
	<path class="st54" d="M180.31,86.99c7.37,0.72,14.54,1.9,19.78,7.94c1.47,1.7,2.96,1.1,4.32-0.25c2.48-2.47,5.03-4.89,7.42-7.45
		c3.39-3.63,7.83-4.95,12.43-6.01c0.79-0.18,1.77-0.47,2.05,0.67c0.26,1.01-0.58,1.51-1.35,1.83c-2.14,0.88-4.61,1.02-6.33,2.84
		c-1.54,1.64-3.48,2.65-1.55,5.78c2.43,3.96-2.36,5.67-4.06,8.23c-1.07,1.61-2.86,2.65-5.62,1.62c-7.06-2.62-14.33-3.72-21.02,1.33
		c-1.54,1.16-3.79-0.13-5.1,1.63c-0.1,0.77-0.5,1.37-1.06,1.87c-4.2,3.6-8.83,6.06-14.61,5.51c-0.83-0.08-1.87-0.16-2.45,0.34
		c-4.4,3.79-9.16,7.11-13.65,10.76c-1.72,1.39-1.19,3.63,1.52,3.8c4.68,0.3,5.2,2.7,3.8,6.48c-0.58,1.57-1.1,3.5,0.36,4.69
		c1.53,1.24,3.13-0.35,4.69-0.77c0.47-0.17,0.96-0.28,1.46-0.36c1.29-0.14,2.54-0.07,3.68,0.62c0.99,0.9,1.28,2.18,0.73,3.21
		c-1.46,2.71,0.21,4.77,1.14,7.01c0.17,1.25-0.1,2.49-1.09,3.2c-5.06,3.67-5.15,9.03-4.06,14.13c1.18,5.52-0.71,9.55-4.29,13.15
		c-2.76,2.77-4.29,5.77-4.27,9.79c0.02,2.94-0.68,5.97-4.98,4.97c-0.52-0.38-0.62-0.85-0.29-1.41c-0.25-2.41,1.03-5.57-3.03-6.07
		c-0.34-3.9,2.53-5.71,5.22-7.27c5.37-3.12,7.82-7.05,6.88-13.65c-1.04-7.32,0.02-14.72,2.53-22.52
		c-4.98,0.28-10.46,3.53-14.47-2.91c-1.4,4.61,0.07,7.91,0.88,11.16c0.9,3.6,1.65,7.22,2.06,10.89c0.62,5.48-1.09,7-6.37,6.02
		c-1.21,2.39,0.64,4.53,0.56,6.83c-0.67,1.59-1.99,2.33-3.58,2.72c-1.78-0.5-2.96-1.33-1.81-3.39c3.16-1.68,1.7-4.66,1.99-7.14
		c-1.43-1.68-1.42-3.35,0.02-5.01c3.15-9.77,0.93-19.54,0-29.32c-0.62-0.68-0.52-1.34,0.02-2c1.98-6.66,4.21-13.25,2.21-20.41
		c-0.84-3.02,0.51-5.69,3.08-7.4c8.19-5.43,17.62-8.39,26.21-13.07C173.29,87.97,177.28,89.1,180.31,86.99z"/>
	<path class="st54" d="M153.99,64.72c2.52,2.24,4.73,2.89,8.37,1.27c7.24-3.21,15.15-4.54,23.07-5.3c1.83-0.18,3.81,0.33,5.51-0.19
		c3.21-0.99,5.64-0.23,6.2,2.96c0.63,3.58-1.89,5.78-5.19,6.13c-3.63,0.38-7.39,0.26-11.02-0.19c-2.83-0.35-5.26,0.4-7.69,1.43
		c-1.16,0.49-2.72,1.19-2.31,2.82c0.34,1.36,1.65,2.06,3.1,2.16c1.96,0.13,4.15-0.4,5.22,2.03c-4.8,1.43-10.4,0.34-14.85,4.34
		c2.21,1.22,4.06,0.5,5.8,0.83c0.16,1.7-1.26,1.69-2.28,2.09c-7.11,2.79-13.6,6.9-21.23,9.46c1.39,0.8,2.56,0.57,3.22,1.48
		c-3.79,2.62-6.77,6.78-12.25,6.18c-2-0.22-1.6,2.27-2.87,2.97c0.21-5.2,2.39-10.1,0.95-15.67c-0.97-3.77,2.31-7.25,5.04-9.99
		c6.97-6.98,7.32-8.38,3.1-16.82C147.5,62.14,150.8,63.18,153.99,64.72z"/>
	<path class="st55" d="M138.83,130.46c-0.01,0.67-0.02,1.34-0.02,2c-2.39,2.81,0.17,6.53-2.03,10.09
		c-3.1-5.11-1.48-10.68-3.02-15.53c-1.87-5.89,0.11-11.26,1.99-16.73c0.68-1.97,1.41-2.17,2.68-0.87c1.69,1.72,3.27,3.95,2.03,6.27
		C137.9,120.49,139.17,125.52,138.83,130.46z"/>
	<path class="st56" d="M149.9,96.03c-1.76,0.11-3.51,0.21-5.27,0.32c-0.17-0.43-0.34-0.86-0.51-1.29
		c8.44-4.51,17.06-8.66,26.08-12.06c0.66-0.04,1.31-0.08,1.97-0.13c4.51-0.85,4.8-0.73,5.06,2.04
		C167.74,87.68,158.76,91.71,149.9,96.03z"/>
	<path class="st54" d="M177.22,84.91c-0.64-3.27-3.32-1.48-5.06-2.04c6.55-2.63,13.23-2.54,19.95-0.83
		c1.37,0.35,3.41,0.67,2.99,2.62c-0.44,2.04-2.71,1.6-3.76,0.99c-4.33-2.5-8.67-1.62-13.08-0.67
		C177.92,84.96,177.57,84.93,177.22,84.91z"/>
	<path class="st57" d="M138.8,161.78c-0.01,1.67-0.01,3.34-0.02,5.01c-1.59,0.86-0.82,5.36-4.06,3.24
		c-3.03-1.99-2.55-5.26-0.95-8.24C135.45,161.6,137.13,160.38,138.8,161.78z"/>
	<path class="st47" d="M280.27,212.36c-1.54,4.08-2.14,8.53-4.9,12.11c-1.02-3.09-2.4-4.68-5.86-2.35
		c-3.58,2.41-7.69,1.59-10.98-0.39c-6.83-4.13-13.56-8.26-21.69-9.28c-0.25-0.93,0.28-1.45,0.99-1.87c2.52-0.68,5.06-1.26,7.7-1.16
		c2.49,0.48,4.83,1.35,7.06,2.58c3.04,1.67,6.23,2.56,9.65,1.04c0.46-0.2,1.01-0.19,1.45-0.41c1.91-0.95,5.7,2.47,5.75-1.26
		c0.04-3.04-0.86-6.7-4.02-9.27c-3.43-2.79-7.61-3.17-11.31-4.94c0.9-0.72,1.72-1.6,2.72-2.13c2.66-1.4,2.15-2.76,0.3-4.51
		c-1.8-1.71-3.38-3.65-5.05-5.49c5.22-0.17,8.05,3.9,11.53,6.69c1.7,1.36,3.18,2.98,5.21,3.87c2.56,1.13,4.06,0.01,4.03-2.56
		c-0.05-3.45-0.93-6.77-4.47-8.38c-2.71-1.23-4.5-2.86-4.06-6.11c0.29-2.17-0.67-3.23-2.88-2.84c-2.28,0.4-4.33,0.06-6.16-1.42
		c-1.54-1.24-3.04-0.78-4.69-0.05c-2.08,0.92-4.04,2.52-6.59,1.69c0.6-2.12,0.87-3.89-1.11-5.82c-2.85-2.78-2.14-5.46,1.75-5.89
		c7.81-0.86,15.7-1.19,23.34,1.61c1.84,0.67,2.7,2.18,3.28,3.6c3.84,9.32,8.51,18.59,3.88,29.07c-0.33,0.75-0.89,1.91-0.58,2.34
		c2.44,3.48,1.67,7.08,0.84,10.78c-0.26,1.13-0.1,2.73,1.18,3.01C278.25,215.02,278.85,212.87,280.27,212.36z"/>
	<path class="st58" d="M233.89,186.05c2.92,0.43,4.67-0.82,5.88-3.51c1.46-3.23,3.44-3.55,5.38-0.26c1.95,3.31,5.55,4.81,8.13,7.43
		c1.82,1.85,2.15,3.08-0.46,4.61c-4.39,2.57-8.17,4.97-13.94,2.34c-2.85-1.3-7.59-0.71-11.07,1.51c-0.4,1.19-1.31,1.7-2.48,1.87
		c-3.97-0.12-7.4-1.46-9.9-4.67c-1.24-1.59-2.23-3.32-1.05-5.42c4.58-1.96,9.7-2.29,14.17-4.63c1.04-0.35,2.11-0.49,3.2-0.37
		C232.6,185.08,233.31,185.45,233.89,186.05z"/>
	<path class="st59" d="M254.12,197.16c5.61-1.65,9.88,1.92,13.52,4.77c2.64,2.07,3.24,6.73,3.48,10.5c0.08,1.27-1.26,3.9-3.31,2.43
		c-2.61-1.86-4.57-1.03-6.94,0.06c-2.74,1.26-5.29-0.18-7.74-1.16c-2.44-0.97-4.73-2.3-7.09-3.47c1.77-4.72,5.93-2.35,9.49-2.95
		c-2.31-3.61-4.9-4.62-8.3-2.17c-2.63,1.89-5.12,2.36-7.69-0.08c-1.54-1.46-3.41-1.09-5.25-0.72c-5.64-0.89-10.3,2.57-15.49,3.69
		c-5.11,1.1-9.19,0.37-13.2-2.54c-0.32-0.49-0.35-0.99-0.07-1.51c3.25-1.96,6.72-1.16,10.1-0.66c2.9,0.43,5.58,0.41,7.95-1.55
		c2.54-1.95,5.07-4.03,8.3-1.19c5.19-3.24,10.13-0.12,15.17,0.58C249.82,200.59,251.18,197.5,254.12,197.16z"/>
	<path class="st59" d="M244.01,175.94c2.53-1.26,5.09-3.6,7.59-3.55c4.64,0.1,9.26,1.58,13.88,2.54c0.22,0.05,0.57,0.63,0.5,0.8
		c-2.45,5.76,2.09,6.95,5.53,9.51c2.41,1.79,3.08,5.51,2.79,8.8c-0.32,3.6-2.62,4.57-5.88,2.87c-4.91-2.56-8.07-7.33-12.88-10.02
		c-1.13-0.64-1.93-1.87-3.44-1.83C247.65,183.56,245.83,179.74,244.01,175.94z"/>
	<path class="st47" d="M233.89,186.05c-0.69-0.02-1.38-0.03-2.06-0.05c-0.48-1.73,1.23-4.16-1.63-5.13c-0.98-0.62-1.84-1.41-2.85-2
		c-4.78-1.12-9.06,1.06-13.48,2.12c-2.65,0.64-5.15,1.39-7.3-1.02c1.02-1.34,2.04-2.68,3.07-4.02c6.51-3.12,13.1-3.12,19.79-0.57
		c0.82,0.31,1.58,0.46,1.44,1.56c0.83,1.12,1.2,2.94,3.26,2.2c1.07-0.38,1.64-2.68,3.2-1c1.31,1.4-0.2,2.8-0.34,4.21
		C236.8,184.34,234.82,184.73,233.89,186.05z"/>
	<path class="st58" d="M230.87,176.93c-6.96-2.84-14.09-2.17-21.23-0.98c5.63-4.18,11.47-5.63,18.13-2.17
		c2.16,1.13,5.56,3.5,6.11-1.87C237.87,176.57,233.66,176.33,230.87,176.93z"/>
	<path class="st47" d="M247.05,201.22c-1.24,1.45-2.84,1.36-4.03,0.31c-3.03-2.67-5.97-2.51-9.11-0.35
		c-0.89,0.61-2.07,0.88-2.81,0.07c-2.68-2.93-4.35-0.2-6.31,0.97c-1.08-1.49-0.12-2.29,1.03-3.02c0.67-0.34,1.34-0.68,2-1.03
		c3.26,0.6,6.22,1.91,9.87,0.24C240.91,196.96,243.68,200.91,247.05,201.22z"/>
	<path class="st60" d="M142.84,199.21c-1.08,2.42-3.44,2.52-5.19,1.85c-3.94-1.52-7.42,0.61-11.2,0.19
		c0.16,1.95,1.28,2.48,2.29,3.02c5.62,2.97,2.08,7.65,1.48,11.19c-0.51,3.02-3.97,3.17-7.16,2.33c-4.11-1.09-13.02,4.53-15.5,8.58
		c-4.14,6.74-5.63,14.31-6.89,21.8c-0.89,5.27-2.89,9.95-4.86,14.73c-1.86,4.51-3.93,8.94-3.52,14.01c0.16,1.94-0.42,3.74-1.7,5.13
		c-1.45,1.57-3.46,1.54-5.1,0.5c-1.91-1.21-1.14-2.72,0.01-4.27c5.1-6.86,7.15-14.79,9.1-23.03c1.78-7.5,1.95-15.2,3.93-22.6
		c0.51-1.93,1.62-3.81-0.32-5.59c-2.16-1.97-4.47-1.14-6.56-0.12c-1.93,0.95-3.62,2.38-5.42,3.6c-1.38-1.92,0.2-3.09,1.18-4.34
		c1.02-1.31,2.18-2.46,2.76-4.13c1.57-4.57,3.77-6.1,8.67-5.09c4.23,0.87,7.59-0.25,10.69-2.85c2.62-2.2,5.72-3.45,8.87-4.61
		c2.59-0.96,4.91-1.9,1.99-5.09c-0.82-0.9-0.73-2.2,0.24-3.2c0.01-0.33,0.01-0.66,0.02-0.99c1.09-1.17,2.54-1.74,4.04-1.86
		C130.75,197.88,136.87,196.96,142.84,199.21z"/>
	<path class="st52" d="M120.61,201.21c-0.23,2.12,0.8,3.37,2.58,4.45c1.83,1.11,1.56,2.81-0.35,3.35
		c-6.22,1.76-11.42,5.4-16.83,8.67c-2.15,1.29-4.2,1.14-6.66,0.75c-3.37-0.54-7.8-2.17-7.83,4.53c-0.01,3.01-4.93,3.98-5.29,7.57
		c-0.67,0.68-1.35,1.35-2.02,2.03c-0.99,0.86-1.26,3.09-3.38,1.78c1.83-6.67,2.91-13.8,10.46-16.94l0,0
		c4.84-4.53,11.36-4.98,17.19-7.08C113.43,208.51,117.04,204.89,120.61,201.21z"/>
	<path class="st61" d="M142.84,199.21c-7.42-0.11-14.84-0.14-22.21,1.01c-0.34-0.03-0.68-0.05-1.02-0.08
		c1.28-3.3,1.63-7.02,4.85-9.41c1.93-1.43,3.74-2.61,6.22-1.68c2.19,2.31,1.78,5.3,2.12,8.09c3.32,1.37,5.5,0.24,7.33-2.8
		c1.73-2.87,4.14-4.54,7.14-1.18c2.11,5.34,2.57,11.11,4.37,16.53c0.15,0.52,0.22,1.05,0.23,1.59c-0.05,0.84-0.29,1.58-0.98,2.12
		c-2.92-3.31-2.74-7.71-4.08-11.58C146.2,200.1,146.28,196.85,142.84,199.21z"/>
	<path class="st62" d="M91.27,217.39c-6.1,4.12-7.01,11.3-10.13,17.19c-0.23,2.69-1.55,4.92-3.03,7.07
		c-2.07,0.14-3.18-0.69-3.03-2.89c0.2-2.82-0.33-5.65,0.55-8.47c0.55-1.78,1.55-4.06-1.56-4.81c0.87-2.29,2.23-3.87,4.83-4.5
		C83.08,219.97,87.16,218.6,91.27,217.39z"/>
	<path class="st62" d="M108.47,210.32c-5.45,3.04-11.49,4.66-17.19,7.08C94.96,210.07,102.21,211.38,108.47,210.32z"/>
	<path class="st63" d="M136.79,173.92c0.01,1.45,0.69,2.46,2.03,3.01c1.11-0.52,2.77-0.21,3.03-2.02c-1.32-1.78-2.41-3.61-2.04-5.99
		c0.22-1.44-0.57-3.35,0.98-4.18c1.83-0.98,1.76,1.46,2.76,2.06c2.74,1.65,3.28-0.39,3.28-2.32c0.01-4.19-0.86-8.28-1.95-12.31
		c-1.04-3.87-2.16-7.73-2.01-11.8c0.06-1.58,0.75-3.96,2.34-1.72c4.04,5.66,8.87,3.71,13.8,2.38c1-0.27,2.01-0.7,2.68,0.38
		c0.49,0.78,0.04,1.56-0.39,2.33c-4.13,7.36-3.94,15.46-2.82,23.28c0.79,5.54-1.55,8.71-5.38,11.23c-3.27,2.15-6.4,4.21-8.23,7.78
		c-2.65,1.95-5.97,2.82-8.17,5.54c-1.99,2.46-3.48,0.7-3.62-1.3c-0.34-4.98-0.39-10.01-0.19-15
		C133.02,172.52,135.31,173.91,136.79,173.92z"/>
	<path class="st64" d="M150.86,210.38c-2.55-5.43-3.23-11.3-4.03-17.15c-0.28-0.28-0.36-0.55-0.23-0.79
		c0.12-0.23,0.24-0.35,0.35-0.35c0.32,0.01,0.64,0.02,0.96,0.03c0,0.33,0.01,0.67,0.01,1c1.74,1.56,1.83,3.89,2.74,5.83
		c0.35,0.75,0.78,1.59,1.8,1.35c0.74-0.17,0.87-0.95,1.02-1.6c0.22-0.98,0.24-1.99,0.3-2.99c0.48-7.47,2.23-14.51,6.75-20.66
		c1.88-2.57,2.05-5.47,1.92-8.58c-0.22-5.16-0.49-10.42,4.16-14.27c1.89-1.57,1.26-3.21-0.49-4.56c-5.61-2.45-0.28-6.11-1.01-9.09
		c1.93-1.18,3.16-0.74,3.62,1.54c-0.76,2.65-0.56,4.45,2.4,6.13c5.23,2.97,6,8.93,2.24,13.73c-1.56,1.99-2.3,4.02-2.08,6.52
		c0.28,3.12-0.19,6.28-2.3,8.58c-5.64,6.14-6.84,13.74-7.5,21.51c-0.35,4.11-1.49,7.95-2.99,11.7
		C156.78,212.59,155.06,213,150.86,210.38z"/>
	<path class="st65" d="M146.95,192.09c-0.04,0.38-0.08,0.76-0.12,1.14c-2.56-1.84-4.64-0.99-5.65,1.6
		c-1.86,4.75-4.96,3.85-8.39,2.31c2.82,0.25,4.72-0.32,5.23-3.77c0.51-3.48,4.14-3.66,6.68-4.41
		C146.45,188.44,146.62,190.7,146.95,192.09z"/>
	<path class="st1" d="M39.74,361.72c-2.63-5.97-0.7-11.92,0.5-17.7c1.36-6.49,3.93-12.72,5.49-19.18
		c1.29-5.35,2.46-10.62,4.87-15.67c1.98-4.15,4.77-6.58,9.01-7.98c3.24-1.07,4.9,0.03,4.25,3.09c-3.46,16.49-0.13,33.46-3.77,49.93
		c-0.53,2.42-0.23,5.02-0.31,7.54C53.11,361.74,46.43,361.73,39.74,361.72z"/>
	<path class="st66" d="M150.88,213.41c0.03-0.69,0.05-1.39,0.08-2.08c3.07,0.42,3.35,3.34,4.72,5.27c0.67,0.94,1.21,2.28,2.58,2.02
		c1.45-0.28,1.23-1.8,1.46-2.9c1.92-9.2,1.44-18.71,3.69-27.88c0.77-3.16,1.83-6.06,3.84-8.64c2.82-3.62,4.91-7.62,5.56-12.24
		c0.63-4.48,3.51-6.19,7.66-6.47c4.48-0.29,8.96,0.26,13.37-1.61c3.43-1.46,2.59,2.42,3.65,3.92c0.04,1.11-0.17,2.3,1.01,3.04
		c0.3,2.1,3.05,4.09,0.29,6.33c-2.77-1.48-3.65-5.22-7.98-5.18c-5.67,0.05-9.63,1.27-13,6.41c-5.98,9.13-9.87,18.61-9.33,29.65
		c0.24,4.87,3.77,8,8.55,7.8c1.73-0.07,1.87-1.21,2-2.33c0.43-3.68,2.25-6.6,4.66-9.29c1.13-1.26,2.17-2.84,2.26-4.44
		c0.41-7,5.14-11.67,8.72-16.97c1.86,0.92,3.56,2.3,5.83,2.15c0.39,0.04,0.77,0.08,1.16,0.11c0.32,1.04-0.2,1.84-0.75,2.63
		c-2.25,2.35-2.93,4.42,0.91,5.86c0.9,0.34,1.8,0.86,1.97,2c-1.5,2.42-3.55,1.14-5.35,0.66c-2.23-0.59-3.61-0.19-3.79,2.35
		c-0.16,2.28-1.54,3.99-2.66,5.84c-0.97,1.6-1.77,3.45-0.54,5.15c1.41,1.95,3.3,0.87,4.99,0.24c1.85-0.68,3.58-1.93,5.71-1.06
		c1.17,0.96,0.5,1.94-0.29,2.42c-4.41,2.68-8.02,8.29-14.28,3.79c-1.27,2.38,2.16,3.69,0.72,5.76c-2.59,1.06-3.87,2.96-4.05,5.79
		c-0.11,1.66-0.34,3.53-1.28,4.84c-5.02,7.04-1.06,12.63,2.72,18.28c0.99,1.49,2.7,2.67,2.02,4.86c-3.12,1.27-4.07-1.94-6.09-2.93
		c-2.9-3.6-4.04-8.4-7.96-11.37c-1.86-1.41-3.63-2.93-5.73-3.98c-0.84-0.42-1.86-1.29-2.66-0.2c-0.68,0.93,0.07,1.9,0.62,2.72
		c1.22,1.79,2.83,3.3,3.86,5.23c0.62,1.16,1.56,2.46,0.37,3.65c-1.38,1.38-2.4,0.01-3.35-0.86c-0.87-0.79-1.73-1.57-2.84-2.02
		c-0.95-0.71-1.9-1.41-2.85-2.12c-4.69-3.25-3.58-8.71-5.02-13.2C155.28,220.3,151.81,217.45,150.88,213.41z"/>
	<path class="st67" d="M156.06,224.41c2.65,4.03,1.94,9.33,5.02,13.2c-1.7-1.42-3.57-2.14-4.77,0.32c-1.36,2.78-3.97,3.54-6.37,4.75
		c-4.45-0.38-7.15,3.09-10.8,4.61c0.84,2.19,2.58,2.16,4.18,2.54c1.78,0.42,3.88,0.86,4.32,2.94c0.53,2.5-1.6,3.56-3.4,4.37
		c-4.07,1.84-8.18,3.61-12.38,5.12c-2.67,0.96-3.26-0.71-2.82-3c0.76-3.97,3.31-6.85,6.45-9.85c-4.51-3.49-8.94-0.48-13.07-0.27
		c-5.45,0.28-6.76-0.72-5.12-5.99c0.35-1.12,0.83-2.19,1.18-3.31c1.41-4.51,3.72-5.99,8.52-3.75c4.37,2.04,9.27,2.63,14.2,2.58
		C151.35,238.56,155.89,234.28,156.06,224.41z"/>
	<path class="st60" d="M78.12,241.65c-0.01-2.79,1.2-5.07,3.03-7.07c1.02-0.67,2.03-1.35,3.05-2.02c0,0.67,0,1.34,0,2.02
		c-3.06,2.29-3.65,5.63-4.32,9.12c-0.32,1.66-0.18,3.72-1.74,5.04C78.13,246.38,78.12,244.01,78.12,241.65z"/>
	<path class="st68" d="M246.05,259.88c-2.76,0-5.17,1.17-7.61,2.25c-6.99,3.1-14.3,3.65-21.83,2.99c-3.32-0.29-6.68-0.15-10.02-0.21
		c-6.22-1.59-11.59-4.7-16.32-8.98c2.33-1.73,4,0.22,5.87,1.05c2.42,1.52,4.93,2.92,7.64,3.83c4.26,1.43,8.3,0.94,11.81-2.08
		c6.29-5.39,13.83-6.07,21.35-4.6c5.3,1.04,9.89,1.29,14.17-2.34c0.64-0.54,1.52-0.67,2.39-0.53c1.82,0.99,0.49,1.88-0.15,2.7
		C251.39,256.51,248.58,258.03,246.05,259.88L246.05,259.88z"/>
	<path class="st69" d="M195.46,257.84c-1.73-0.64-3.15-2.12-5.19-1.91c-0.63-0.41-1.25-0.83-1.88-1.24
		c-0.92-1.73-2.74-2.39-4.15-3.52c-1.75-1.4-3.3-2.93-1.94-5.46c1.69,1.35,3.37,2.69,5.06,4.04c1.96,0.23,3.33,1.64,5,2.46
		c3.21,1.71,6.86,1.51,10.27,2.37c4.77,0.92,9.03-0.22,12.6-3.44c2.31-2.08,5.34-3.28,7.61-5.96c-2.63-1.67-5.19-1.02-7.59-1.26
		c-2.06-0.2-4.45,0.65-5.92-1.68c0.06-0.58,0.34-0.99,0.85-1.26c4.95-1.61,10.15,0.08,15.12-1.15c0.83-0.18,1.67-0.23,2.51-0.17
		c4.13,0.76,8.31,1.36,12,3.6c1.32,0.8,2.67,1.71,2.59,3.44c-0.09,1.77-1.6,2.5-3.02,3.04c-4.11,1.56-8.47,2.28-12.74,2.98
		c-4.29,0.7-8.22,2.02-11.67,4.41c-4.48,3.11-8.98,4.42-14.16,2.02C199.12,258.36,197.12,258.77,195.46,257.84z"/>
	<path class="st70" d="M182.3,245.71c-0.22,4.52,5.15,5.25,6.09,8.98c-5.09-3.19-10.22-6.27-16.02-8.04
		c-3.74-1.14-5.94-4.23-8.44-6.92c2.46-0.63,3.21,2.83,5.98,2.41c-0.88-3.12-3.1-5.08-4.93-7.33c-1.25-1.53-2.83-3.61-1.39-5.41
		c1.74-2.18,3.48,0.1,5.21,0.91C175.57,233.49,179.23,239.32,182.3,245.71z"/>
	<path class="st39" d="M246.05,259.88c1.96-3.43,6.4-4.4,8.06-8.12c2.4-5.25,6.45-9.31,9.95-13.75c0.71-0.9,1.9-1.33,3.1-0.51
		c0,0,0.25,0.25,0.25,0.25c-0.7,4.75-2.52,8.36-7.03,11.15c-4.61,2.84-8.28,7.22-12.36,10.92
		C247.36,259.83,246.7,259.85,246.05,259.88z"/>
	<path class="st18" d="M267.15,237.49c-5.16,1.82-5.95,7.57-9.6,10.82c-1.16,1.03-2.39,2.2-3.44,3.45
		c-1.72-0.03-2.58,1.39-3.81,2.21c-3.12,2.07-6.14,3.32-10.31,2.16c-9.03-2.51-17.72-1.97-25.18,4.91
		c-3.13,2.89-7.33,2.48-11.01,1.27c-2.95-0.97-5.98-2.22-8.35-4.47c3.18-0.41,6.32-0.56,9.26,1.07c2.47,1.37,4.66,0.22,6.48-1.2
		c6.88-5.36,15.16-6.41,23.3-8.01c2.54-0.5,6.4-0.4,6.74-3.1c0.32-2.53-3.5-3.01-5.73-3.86c-2.47-0.94-5.12-1.43-7.69-2.11
		c0.33-2.74,2.61-2,4.22-2.25c1.64-0.26,3.39,0.12,4.96-0.55c1.87-0.79,2.7-2.12,1.18-3.9c-3.92-4.57-21.09-4.67-25.33-0.15
		c-1.1,1.18-2.83,2.34-1.85,4.24c0.79,1.54,2.63,1.12,4.09,1.3c3.57,0.44,7.38-1.09,10.71,1.32c-5.28,2.15-10.8,0.46-16.18,1.02
		c-4.6-0.1-6.21-3.02-3.96-7.18c3.49-6.45,9.11-9.18,16.22-9.28c3.05-0.04,6.07-0.11,8.93-1.37c2.21-0.98,2.29-2.01,0.43-3.64
		c-2.52-2.21-6.08-1.9-8.66-3.86c0.76-2.89,3.41-1.93,5.26-2.58c1.73-0.61,3.6-0.58,5.32-1.2c1.25-0.32,2.5-0.96,3.81-0.2
		c7.63-1.38,13.39,2.7,19.21,6.6c4.15,2.78,8.3,4.6,13.37,1.91c6.14-3.26,6.22-3.1,5.81,3.62c-0.06,3.46-2.46,5.59-4.48,7.95
		C269.53,234.02,267.47,235.12,267.15,237.49z"/>
	<path class="st71" d="M180.26,106.13c0.34-0.33,0.68-0.66,1.02-0.99c5.13-0.13,7.9,4.47,12.16,6.09c-1.02,0-2.04,0.01-3.05,0.01
		c-2.37,1.92-5.23,2.38-8.05,2.04c-3.94-0.47-7.17,1.23-10.44,2.8c-1.97,0.95-3.66,1.88-1.83,4.92c2.01,3.34-1.61,4.4-3.65,5.91
		c-1,0.39-2,0.43-3.02,0.05c-0.48-0.25-0.86-0.61-1.14-1.08c-3.02-8.57-0.24-13.19,8.75-14.1
		C175.11,111.37,177.33,108.27,180.26,106.13z"/>
	<path class="st50" d="M256.16,73.78c1.01,0.01,2.01,0.03,3.02,0.04c0.27,3.04-1.78,3.47-3.89,2.94
		c-6.96-1.75-13.46,1.59-20.24,1.58c-0.82,0-1.64,0.5-2.45,0.46c-1.2-0.06-3.13,0.71-3.23-1.26c-0.07-1.33,1.39-2.54,2.75-2.54
		c7.7,0,15.2-3.98,23.04-1.22C255.46,73.89,255.83,73.79,256.16,73.78z"/>
	<path class="st54" d="M203.38,85.06c7.13-4.61,12.78-10.52,21.04-11.95c1.37-0.24,3.4-1.1,3.82,0.85c0.34,1.55-1.38,2.62-2.96,2.8
		c-6.3,0.69-11.19,4.18-15.92,7.95C207.59,86.11,205.94,86.3,203.38,85.06z"/>
	<path class="st72" d="M248.06,110.07c-7.9-0.38-14.58,2.34-20.24,7.81c-1.42,1.38-2.56,2.65-1.38,4.73c0.96,1.7,1.44,4.31,3.8,4.09
		c1.98-0.18,3.38-2.03,3.59-4.25c0.14-1.46,0.7-2.54,2.05-3.16c0.06,1.34-0.31,2.9,0.25,3.99c1.81,3.55-0.58,4.84-2.95,6.28
		c-2.55,1.55-4.47,0.68-6.82-0.95c-6.85-4.73-4.5-10.94-2.81-16.74c1.75-6.03,6.44-9.27,12.68-9.64c2.91-0.18,5.53-0.61,8.14-1.99
		c1.46-0.77,3.49-2.11,5.02-0.04c1.56,2.1-0.27,3.44-1.59,4.65C245.74,106.77,245.51,108.45,248.06,110.07z"/>
	<path class="st73" d="M197.48,162.8c-1.21-2.65-2.09-4.2-5.54-1.68c-2.74,2-6.86,0.56-10.36,0.63c-4.31,0.08-7.43,0.8-7.55,6.33
		c-0.08,3.63-1.94,7.1-4.36,10.01c-5.22,6.28-6.11,13.8-6.63,21.55c-0.43,6.31-1.33,12.6-2.01,18.9c-0.14,1.26-0.59,2.3-1.91,2.67
		c-1.58,0.44-2.56-0.59-3.38-1.66c-1.94-2.52-2.47-5.89-4.79-8.2c-0.05-0.31-0.08-0.63-0.1-0.95c4.13,1.84,5.78,0,7.13-3.93
		c1.88-5.47,2.26-11.12,3.01-16.72c0.71-5.3,2.26-10.14,5.96-14.06c2.64-2.79,3.91-6.11,2.98-9.66c-0.79-3.01,0.41-4.77,2.17-6.67
		c3.99-4.32,2.67-10.4-2.74-12.7c-3.4-1.45-4.71-3.27-1.23-6.09c1.13-0.56,1.63,0.12,2.03,1.02c-0.03,1.4,0.08,3.01,1.68,3.24
		c3.64,0.53,6.34,2.16,8.56,5.16c1.08,1.47,2.67,0.28,3.9-0.77c2.67-2.26,5.41-4.42,8.13-6.63c-0.4,3.78-3.69,5.85-5.31,8.91
		c-0.76,1.43-1.27,2.78,0.18,4.04c1.07,0.93,2.05,0.69,3.08-0.26c1.28-1.18,2.4-3.33,4.55-2.14c2.07,1.15,2.55,3.38,2.55,5.66
		C197.48,160.12,197.48,161.46,197.48,162.8z"/>
	<path class="st74" d="M200.5,179.96c-2.37,1.08-5.4,3.81-5.04-2c-0.88-0.87-0.45-1.68,0.13-2.48c1.47-1.43,3.06-2.71,4.92-3.61
		c1.88-0.82,2.39-2.48,2-4.19c-1.8-7.92,1.87-16.36-2.38-24.08c-0.79-1.44,4.07-12.68,5.48-13.55c1.26-0.78,2.6-0.87,3.81-0.08
		c1.29,0.85,2.08,1.82,1.69,3.75c-0.99,4.95-0.44,9.43,1.75,14.44c2.14,4.91,1.89,11.1,2.34,16.68c0.27,3.3-3.11,6.72-6.24,8.63
		C205.87,175.37,203.58,178.16,200.5,179.96z"/>
	<path class="st75" d="M200.48,182c0.39-0.64,0.78-1.29,1.17-1.93c1.64-0.04,3.28-0.07,4.91-0.11c5.79,1.67,10.71-2.24,16.2-2.56
		c2.06-0.12,4.15-1.29,5.99,0.6c-0.47,0.5-1.06,0.78-1.69,1.01c-1.19,0.44-2.88,0.42-2.75,2.29c0.08,1.11,1.15,1.57,2.1,1.91
		c1.58,0.56,2.55-0.14,3.13-1.6c0.25-0.63,0.65-1.16,1.23-1.53c4.43,1.25,3.06,3.53,1.05,5.92c-1,0.02-1.99,0.05-2.99,0.07
		c-6.93-0.14-13.42,4.84-20.6,1.75c-0.81-0.49-1.08-1.12-0.67-2.05c0.41-0.92,1.82-1.93-0.01-2.79c-0.92-0.43-2.03-0.57-2.75,0.32
		c-1.31,1.64,0.21,2.27,1.25,3.04c0.26,0.2,0.51,0.42,0.74,0.67c0.21,0.54,0.12,1.01-0.27,1.44c-0.45,0.33-0.95,0.54-1.49,0.65
		C198.43,188.42,197.83,187.49,200.48,182z"/>
	<path class="st73" d="M200.51,171.87c-1,1.7-2.23,3.16-4.08,3.98c-1.1-2.25,0.23-3.24,2.07-3.96c2.29-2.02-0.73-4.04,0-6.06
		C200.47,167.41,200.59,169.61,200.51,171.87z"/>
	<path class="st76" d="M166.11,126.37c0.53-1.37,1.91-1.77,2.93-2.59c1.16-0.93,1.23-2.31-0.07-2.85c-4.99-2.07-1.4-3.24,0.35-4.74
		c6.18-5.29,13.95-3.72,21.07-4.95c1.2,0.9,2.27,2.12,3.61,2.65c10.43,4.13,8.15,6.19,3.76,14.21c-2.14,3.91-5.01,7.77-7.94,11.37
		c-1.59,1.94-3.23,4-5.78,4.67c-4.56,1.2-6.1-0.15-6.78-5.62c-0.3-1.32,0.73-1.66,1.57-2.14c0.45-0.21,1.14-0.24,1.36-0.58
		c2.33-3.59,4.08-8.18,9.8-4.18c0.82,0.57,1.83-1.15,2.47-2.12c2.42-3.72,2.23-8.32-0.47-11.15c-3.06-3.23-8.85-4.42-12.51-2.65
		c-1.31,0.63-1.97,1.38-0.84,2.64c2.3,2.57,0.43,4.16-1.52,5.1C173.67,125.09,170.54,128.32,166.11,126.37z"/>
	<path class="st77" d="M170.16,141.56c-0.68-0.34-1.35-0.68-2.03-1.02c-0.08-2.05-1.55-2.04-3.01-2.01
		c-1.37-0.02-2.73-0.05-4.1-0.07c-0.54-0.62-0.61-1.32-0.35-2.08c2.81-2.24,4.92-5.37,8.47-6.69c2.18,0.02,3.12,1.24,2.28,3.13
		c-0.88,1.97-0.11,3.82-0.24,5.71C172,139.93,171.78,140.99,170.16,141.56z"/>
	<path class="st78" d="M179.29,137.49c-0.82,0.05-1.6,0.21-2.04,1.03c-1.65-0.01-3.3-0.02-4.96-0.03c-2.81-3.75-2.53-5.04,1.49-6.51
		c1.26-0.46,2.57-0.81,3.92-0.98C182.26,133.21,182.49,134.14,179.29,137.49z"/>
	<path class="st79" d="M178.3,131.45c-0.82,1.29-2.36,1.46-3.54,1.63c-3.88,0.56-4.45,2.32-2.47,5.4c-0.37,0.02-0.74,0.04-1.11,0.05
		c-1.75-1.77-2.77-3.56-0.8-5.92c1.18-1.42,0.08-1.96-1.24-2.18C172.07,127.11,174.8,127.42,178.3,131.45z"/>
	<path class="st80" d="M182.27,56.6c-1.01,0-2.02,0.05-3.02,0c-3.42-0.17-7.8,1.21-9.54-2.65c-1.76-3.92-0.94-8.21,2.49-11.47
		c0.55-2.75,0.63-5.49,0.69-8.3c0.12-5.14,3.06-9.64,5.19-14.25c0.47-1.03,1.9-1.4,3.14-0.82c1.43,0.67,1.82,1.83,1.38,3.34
		c-0.71,2.41-1.12,4.89-2.21,7.21c-1.04,2.2-0.58,3.66,2.27,3.16c4.64-0.81,8.73-0.72,10.47,4.89c0.66,2.14,2.48,1.2,3.81,0.6
		c3.04-1.36,6.23-1.27,9.42-1.16c2.78,0.09,5.62,0.4,6.09,3.92c0.45,3.33-1.99,5.07-4.54,5.85c-4.13,1.26-8.23,2.65-12.45,3.66
		c-4.36,2.08-9.96,1.46-13.17,6.04C182.29,56.6,182.27,56.6,182.27,56.6z"/>
	<path class="st81" d="M195.46,50.56c3.54-2.16,6.92-4.34,11.47-4.26c2.57,0.04,4.67-2.17,4.56-5.07c-0.12-3.18-2.79-2.79-4.94-2.78
		c-3.82,0.03-7.67-0.55-11.06,2.24c-1.9,1.57-3.38,0.48-4.02-1.81c-1.34-4.8-4.6-6.46-9.35-4.88c-1.32,0.44-2.65,2.05-4.07,0.42
		c-1.35-1.54,0.29-2.77,0.73-4.1c0.74-2.21,1.53-4.4,2.3-6.6c0.47-1.33,1.96-2.98-0.13-3.87c-2.29-0.98-3.18,1.45-3.22,2.77
		c-0.15,5.24-6.36,8.8-3.89,14.87c0.4,0.98-0.1,3.65-1.67,4.99c-1.6-7.06,1.49-13.65,2.15-20.48c0.31-3.21,7.19-5.39,9.65-3.27
		c1.72,1.48-0.4,2.73-0.3,4.04c0.22,3.05-3.26,6.34-1.42,8.34c1.91,2.07,3.34-2.49,5.98-2.91c7.64-1.23,14.82-4.79,22.97-3.56
		c6.83,1.03,10.14,3.98,10.32,10.75c0.02,0.77-0.17,1.84-0.69,2.28C213.46,44.04,206.86,52.05,195.46,50.56z"/>
	<path class="st23" d="M166.13,147.63c1.52,0.02,3.27-0.09,3.66,1.82c0.27,1.35-0.5,2.96-1.63,3.46c-5.72,2.54-4.85,8.17-4.47,12.17
		c0.44,4.62-0.38,8.52-2.75,11.79c-4.59,6.33-5.36,13.48-5.91,20.8c-0.16,2.17,0.06,5-2.59,5.18c-1.9,0.13-2.95-2.37-3.45-4.35
		c-0.44-1.77-0.71-3.58-1.06-5.38c2.03,0.06,4.31-0.47,3.87-2.78c-1.25-6.6,2.69-10.7,6.53-14.84c2.41-2.6,2.63-5.08,2.12-8.63
		c-0.85-5.93-2.29-12.62,4.87-16.47C166.32,149.86,166.08,148.62,166.13,147.63z"/>
	<path class="st77" d="M180.26,106.13c-2.51,3.65-5.19,6.52-10.38,6.25c-4.51-0.23-8.42,5.16-7.7,9.6c0.24,1.46,0.56,2.9,0.85,4.35
		c-0.8,1.74-2.45,2.7-3.72,4.01c-4.07,4.23-4.02,5.06,0.74,8.19c-1.64,1.68-3.7,2.9-5.77,1.38c-2.24-1.65-1.63-4.29-0.7-6.46
		c1.49-3.47,2.03-5.54-3.2-4.49c-3.07,0.62-4.6-2.66-2.81-5.54c1.08-1.75,2.97-2.62,4.62-3.78c6.19-4.37,11.53-10.03,20.31-9.34
		C174.96,110.48,177.67,107.6,180.26,106.13z"/>
	<path class="st71" d="M160.06,138.53c-1.92-0.1-4.17,0.44-4.9-2.19c-0.58-2.1,0.03-3.92,1.74-5.3c2.01-1.62,3.2-4.3,6.13-4.71
		c0,0,0.16,0.2,0.16,0.2c0.33,1.98-1.09,3.13-2.3,4.16c-2.48,2.13-1.7,3.95,0.18,5.83c-0.02,0.64-0.03,1.29-0.05,1.93
		C160.7,138.49,160.38,138.51,160.06,138.53z"/>
	<path class="st23" d="M141.85,174.92c0.88,0.67,1.33,1.59,0.48,2.43c-1.22,1.23-2.37-0.01-3.51-0.42
		C139.39,175.59,140.4,174.93,141.85,174.92z"/>
	<path class="st82" d="M236.97,212.35c-1.03,0.32-2.06,0.65-3.09,0.97c-11.38,2.68-22.87,4.14-34.58,3.41
		c-1.17-0.07-2.36,0.03-3.49-0.34c-1.17-0.38-2.27-0.97-2.28-2.33c-0.01-1.55,1.42-1.63,2.51-1.96c5.53-1.66,11.36-0.92,16.96-2.04
		c6.91-0.88,13.97-1.02,20.39-4.26c1.05-0.53,2.24-0.69,3.43-0.58c1.98,0.17,3.7,0.96,4.21,2.97c0.63,2.45-1.88,2.24-3.07,3.16
		C237.62,211.68,237.3,212.01,236.97,212.35z"/>
	<path class="st83" d="M237.95,211.34c0.3-1.38,3.85-1.27,1.79-3.69c-1.52-1.79-3.68-1.91-5.51-0.85c-6.4,3.69-13.6,3.52-20.55,4.54
		c0.03-3.07,2.85-3.53,4.56-3.55c6.02-0.07,10.97-3.62,16.67-4.54c1.96-1.25,3.8-1.25,5.27,0.73c2.03,2.73,4.03,2.05,6.34,0.3
		c3.68-2.79,8.95-1.72,10.99,2.05c0.33,0.62,0.48,1.24,0.01,1.85c-0.97,1.26-2.39,1.43-3.62,0.86c-2.98-1.37-5.48-0.67-7.85,1.27
		C243.3,210.32,240.75,211.84,237.95,211.34z"/>
	<path class="st66" d="M205.63,188.23c0.3-0.09,0.61-0.15,0.92-0.19c3.14-0.97,5.96-0.7,8.12,2.1c0.7,6.72,5.93,7.88,11.14,9.06
		c-0.34,1.01-0.69,2.01-1.03,3.02c-1.86,3.01-4.86,3.62-7.82,2.81c-3.79-1.04-7.55-0.62-11.33-0.76c-0.42,0.32-0.83,0.33-1.23-0.03
		c-0.15-0.7,0.03-1.33,0.51-1.83c5.78-5.96,5.82-6.72,0.63-12.9C205.29,189.07,205.33,188.64,205.63,188.23z"/>
	<path class="st84" d="M214.68,190.14c-2.48-1.58-5.15-2.42-8.12-2.1c0.04-0.3,0.08-0.6,0.11-0.9c0.24-0.35,0.54-0.41,0.9-0.18
		c4.56,0.42,9.08,1.45,13.44-1.4c2.42-1.59,5.16,0.97,7.84,0.52C224.59,189.07,219.82,190.24,214.68,190.14z"/>
	<path class="st85" d="M234.9,203.24c-4.86,2.22-9.12,5.92-15.12,5.19c-2.25-0.27-4.42,1.17-6.11,2.9
		c-6.3,1.87-13.06,0.24-19.55,2.65c1.8,2.24,4.25,1.19,6.35,1.29c11.2,0.51,22.32-0.48,33.4-1.96c-3.34,2.35-7.69,1.04-11.12,3.04
		c-1.75,1.83-4.05,1.35-6.18,1.41c-7.4,0.21-14.81-0.33-22.2,0.32c-0.86,0.2-1.72,0.18-2.57-0.1c-3.79-4.11-3.61-4.97,1.24-6.29
		c2.79-0.76,5.09-2.41,7.31-4.21c1.51-1.23,2.9-2.89,5.24-2.22c0.84,0.02,1.88-0.28,2.47,0.11c6.55,4.32,12.46,1.27,18.41-1.45
		C229.22,202.69,232.1,203.48,234.9,203.24z"/>
	<path class="st86" d="M205.6,205.27c-2.24,0.83-4.02,2.3-5.62,4.05c-1.51,1.65-3.34,3.09-5.59,2.9c-5-0.41-4.56,1.96-2.96,5.15
		c-0.37,0.3-0.79,0.4-1.25,0.35c-0.98-0.48-2.27-0.73-1.81-2.33c-0.37-0.55-0.72-1.11-1.13-1.64c-1.07-1.38-3.3-2.79-1.85-4.57
		c1.56-1.92,3.63-0.78,5.17,0.79c1.08,1.1,2.06,1.36,3.46,0.29c2.76-2.11,5.67-4.01,8.52-6c0.66-0.54,1.32-0.63,1.99-0.03
		c0.37,0.01,0.74,0.03,1.1,0.04C205.6,204.61,205.59,204.94,205.6,205.27z"/>
	<path class="st87" d="M230.78,180.09c-1.07,1.57,1.4,5.36-2.91,4.84c-2.54-0.3-5.76-1.17-5.56-4c0.26-3.55,3.8-2.95,6.45-2.92
		C229.44,178.71,230.11,179.4,230.78,180.09z"/>
	<path class="st88" d="M188.37,215.39c0.66,0.68,1.33,1.36,1.99,2.03c-4.42,4.47-4.15,10.81-6.35,16.16
		c-0.7,1.7,0.08,3.36,1.93,4.13c2.47,1.03,4.73,0.54,6.35-1.55c2.39-3.09,5.17-5.71,8.25-8.1c2.15-1.67,4.36-3.05,6.97-3.94
		c4.39-1.5,4.43-2.13,0.82-5.09c-0.69-0.56-1.29-1.11-0.51-2.02c3.54-0.27,7.08-0.04,10.61-0.12c1.82-0.04,3.41,0.33,4,2.31
		c0.6,2.02-0.14,3.63-1.75,4.88c-1.23,0.95-2.67,1.47-4.15,1.78c-5.55,1.14-8.97,5.16-12.21,9.22c-2.54,3.19-0.21,6.37,5.31,7.59
		c3.88,0.02,7.76-0.08,11.62,0.12c1.46,0.07,3.31,0.58,3.77,2.11c0.52,1.73-1.53,2.05-2.56,2.57c-4.89,2.46-8.05,7.68-14.05,8.46
		c-2.04,0.27-3.92,0.43-5.86-0.12c-3.29-2.56-7.31-2.4-11.12-3.02c-1.48-0.85-3.32-1.22-4.06-3.05c-2.23-4.42-5.46-8.24-7.54-12.8
		c-1.27-2.78-1.44-5.19,0.21-7.46c2.17-2.99,3.05-6.38,3.18-9.84C183.35,215.88,185.24,215.09,188.37,215.39z"/>
	<path class="st89" d="M198.49,171.89c-0.58,1.38-2.12,2.25-2.07,3.96c-0.79,0.49-0.89,1.29-0.96,2.1
		c-0.96,3.19-2.63,5.89-5.35,7.91c-1.48,1.1-1.71,2.72-1.77,4.5c-0.15,4.33-1.69,8.15-4.87,11.18c-2.5,2.39-3.19,5.41-3.2,8.69
		c-0.01,2.86-1.05,3.9-3.61,2.01c-1.19-0.87-2.53-0.73-3.82-1.01c-3.67-0.79-5.52-2.71-5.83-6.91
		c-1.04-13.98,4.81-25.45,12.77-36.04c3.43-4.57,9.11-2.08,13.81-2.37C197.64,165.68,197.25,169.57,198.49,171.89z"/>
	<path class="st90" d="M204.53,204.23c-0.66,0.01-1.33,0.02-1.99,0.03c-2.34-0.25-4.14,1.1-6.09,2.02c-2.03,0.96-4.29,1.89-6.06,0.1
		c-1.84-1.87-1.42-4.46-0.22-6.53c1.66-2.85,3.72-5.32,3.46-9.04c-0.14-2.09,1.93-1.61,3.47-1.37c2.13,0.33,4.08,2.71,6.45,0.67
		c0.4-0.88,0.85-1.65,2.02-1.01c3.65,1.26,4.95,4.01,5.09,7.67c0.12,3.24-1.38,4.95-4.4,5.78
		C205.59,202.73,205.11,203.65,204.53,204.23z"/>
	<path class="st47" d="M205.58,189.09c-0.67,0.34-1.35,0.67-2.02,1.01c-2.17-0.84-5.22-0.37-5.95-3.45
		c-0.54-2.29,1.07-3.61,2.87-4.65c-1.64,4.84,0.26,6.77,5.15,6.23C205.61,188.52,205.59,188.81,205.58,189.09z"/>
	<path class="st91" d="M225.8,240.65c-4.38,0-8.75,0-13.13-0.01c-1.56,0-3.12-0.08-3.78-1.83c-0.6-1.6,0.17-2.8,1.09-4.13
		c5.67-8.17,13.57-6.2,21.33-4.81c2.13,0.38,4.2,1.14,6.28,1.78c2.16,0.66,3.59,2.07,3.25,4.42c-0.33,2.27-1.95,3.3-4.24,3.58
		c-2.93,0.35-6.06-1.04-8.79,0.99C227.15,240.64,226.47,240.64,225.8,240.65z"/>
	<path class="st86" d="M209.62,242.68c-3.67,2.47-5.67-0.39-7.25-2.74c-1.66-2.47-0.7-4.45,1.59-6.85
		c4.28-4.49,8.96-7.73,14.93-9.29c1.93-0.51,3.22-1.88,2.7-4.15c-0.49-2.12-2.19-2.25-3.94-2.25c-3.35,0.01-6.71,0.01-10.06,0.01
		c-4.74,1.3-9.48,4.13-14.19-0.07c3.09-1.92,6.51-0.82,9.76-0.93c6.53-0.22,13.07-0.05,19.6-0.05c4.68-0.98,7.93,1.91,11.4,4.21
		c2.33,1.54,1.37,2.56-0.51,3.53c-3.35,1.72-6.84,2.55-10.66,2.43c-6.55-0.2-12.09,1.58-15.75,7.76c-2.4,4.06-2.34,5.17,2.38,7.37
		C209.62,242,209.62,242.34,209.62,242.68z"/>
	<path class="st66" d="M191.42,252.79c4.42-1.62,8.24-1.01,11.12,3.02C198.92,254.51,194.55,255.94,191.42,252.79z"/>
	<path class="st92" d="M161.08,136.53c-4.95-1.82-5.11-2.45-1.6-6.07c1.26-1.29,2.48-2.62,3.71-3.93c0.97-0.05,1.94-0.11,2.91-0.16
		c4.62-0.79,8.74-2.63,12.69-5.7c0.1-2.11-5.12-1.51-2.7-4.51c2.42-3,6.72-3.43,9.7-2.62c10.56,2.9,12.25,10.31,6.7,18.25
		c-1.25,1.79-2.55,2.87-4.8,0.71c-1.28-1.23-4.43-4.61-4.08,1.45c0.1,1.81-2.04,3.35-4.33,3.52c2.42-2.46,0.76-4.26-0.99-6.04
		c-2.93-1.47-5.82-3.28-9.16-1.02C166.08,131.98,164.8,135.87,161.08,136.53z"/>
	<path class="st93" d="M207.56,186.96c-0.3,0.07-0.6,0.12-0.9,0.18c-1.64-0.26-3.92,0.6-4.07-2.31c-0.08-1.58,0.13-3.19,1.93-3.56
		c2.37-0.49,5.2,0.01,6.27,1.9C212.3,185.85,207.62,184.74,207.56,186.96z"/>
	<path class="st94" d="M193.4,217.34c4.72,2.1,9.47-1.07,14.19,0.07c1.69,1.66,5.84,0.7,5.56,4.02c-0.25,3.05-3.64,3.2-6.11,4.22
		c-5.14,2.13-9.53,5.51-12.68,10.18c-2.28,3.38-5.06,4.75-8.98,3.27c-1.86-0.7-3.53-1.88-3-4.04c1.28-5.14,2.77-10.24,4.41-15.27
		c0.46-1.39,1.85-2.38,3.57-2.37c0.35-0.02,0.71-0.03,1.07-0.05C192.09,217.36,192.74,217.35,193.4,217.34z"/>
	<path class="st95" d="M174.22,198.27c-0.05-8.14,3.13-13.98,6.95-19.54c1.29-1.88,3.26-2.49,5.26-1.02
		c1.93,1.41,3.97,3.21,2.57,5.86c-3.1,5.9-5.86,11.93-8.13,18.19c-0.44,1.22-1.5,2.48-3.06,2.09c-1.43-0.36-3-0.99-3.36-2.69
		C174.16,199.87,174.23,198.5,174.22,198.27z"/>
</g>
</svg>
